%TF.GenerationSoftware,KiCad,Pcbnew,9.0.4*%
%TF.CreationDate,2025-09-08T22:46:10+10:00*%
%TF.ProjectId,simple-p4,73696d70-6c65-42d7-9034-2e6b69636164,rev?*%
%TF.SameCoordinates,Original*%
%TF.FileFunction,Copper,L1,Top*%
%TF.FilePolarity,Positive*%
%FSLAX46Y46*%
G04 Gerber Fmt 4.6, Leading zero omitted, Abs format (unit mm)*
G04 Created by KiCad (PCBNEW 9.0.4) date 2025-09-08 22:46:10*
%MOMM*%
%LPD*%
G01*
G04 APERTURE LIST*
G04 Aperture macros list*
%AMRoundRect*
0 Rectangle with rounded corners*
0 $1 Rounding radius*
0 $2 $3 $4 $5 $6 $7 $8 $9 X,Y pos of 4 corners*
0 Add a 4 corners polygon primitive as box body*
4,1,4,$2,$3,$4,$5,$6,$7,$8,$9,$2,$3,0*
0 Add four circle primitives for the rounded corners*
1,1,$1+$1,$2,$3*
1,1,$1+$1,$4,$5*
1,1,$1+$1,$6,$7*
1,1,$1+$1,$8,$9*
0 Add four rect primitives between the rounded corners*
20,1,$1+$1,$2,$3,$4,$5,0*
20,1,$1+$1,$4,$5,$6,$7,0*
20,1,$1+$1,$6,$7,$8,$9,0*
20,1,$1+$1,$8,$9,$2,$3,0*%
G04 Aperture macros list end*
%TA.AperFunction,EtchedComponent*%
%ADD10C,0.000000*%
%TD*%
%TA.AperFunction,SMDPad,CuDef*%
%ADD11R,1.000000X1.800000*%
%TD*%
%TA.AperFunction,SMDPad,CuDef*%
%ADD12RoundRect,0.200000X-0.250000X-0.200000X0.250000X-0.200000X0.250000X0.200000X-0.250000X0.200000X0*%
%TD*%
%TA.AperFunction,SMDPad,CuDef*%
%ADD13RoundRect,0.375000X-0.625000X-0.375000X0.625000X-0.375000X0.625000X0.375000X-0.625000X0.375000X0*%
%TD*%
%TA.AperFunction,SMDPad,CuDef*%
%ADD14RoundRect,0.500000X-0.500000X-1.400000X0.500000X-1.400000X0.500000X1.400000X-0.500000X1.400000X0*%
%TD*%
%TA.AperFunction,SMDPad,CuDef*%
%ADD15RoundRect,0.150000X-0.512500X-0.150000X0.512500X-0.150000X0.512500X0.150000X-0.512500X0.150000X0*%
%TD*%
%TA.AperFunction,SMDPad,CuDef*%
%ADD16RoundRect,0.162500X-0.650000X-0.162500X0.650000X-0.162500X0.650000X0.162500X-0.650000X0.162500X0*%
%TD*%
%TA.AperFunction,SMDPad,CuDef*%
%ADD17O,0.650000X0.200000*%
%TD*%
%TA.AperFunction,SMDPad,CuDef*%
%ADD18O,0.200000X0.650000*%
%TD*%
%TA.AperFunction,SMDPad,CuDef*%
%ADD19R,2.100000X2.100000*%
%TD*%
%TA.AperFunction,SMDPad,CuDef*%
%ADD20C,1.500000*%
%TD*%
%TA.AperFunction,SMDPad,CuDef*%
%ADD21R,1.000000X0.750000*%
%TD*%
%TA.AperFunction,SMDPad,CuDef*%
%ADD22RoundRect,0.135000X-0.135000X-0.185000X0.135000X-0.185000X0.135000X0.185000X-0.135000X0.185000X0*%
%TD*%
%TA.AperFunction,SMDPad,CuDef*%
%ADD23RoundRect,0.250000X-0.300000X-1.000000X0.300000X-1.000000X0.300000X1.000000X-0.300000X1.000000X0*%
%TD*%
%TA.AperFunction,SMDPad,CuDef*%
%ADD24R,1.000000X1.500000*%
%TD*%
%TA.AperFunction,SMDPad,CuDef*%
%ADD25R,0.600000X1.450000*%
%TD*%
%TA.AperFunction,SMDPad,CuDef*%
%ADD26R,0.300000X1.450000*%
%TD*%
%TA.AperFunction,HeatsinkPad*%
%ADD27O,1.000000X2.100000*%
%TD*%
%TA.AperFunction,HeatsinkPad*%
%ADD28O,1.000000X1.600000*%
%TD*%
%TA.AperFunction,ComponentPad*%
%ADD29R,1.700000X1.700000*%
%TD*%
%TA.AperFunction,ComponentPad*%
%ADD30C,1.700000*%
%TD*%
%TA.AperFunction,SMDPad,CuDef*%
%ADD31RoundRect,0.225000X-0.225000X-0.250000X0.225000X-0.250000X0.225000X0.250000X-0.225000X0.250000X0*%
%TD*%
%TA.AperFunction,SMDPad,CuDef*%
%ADD32RoundRect,0.140000X-0.140000X-0.170000X0.140000X-0.170000X0.140000X0.170000X-0.140000X0.170000X0*%
%TD*%
%TA.AperFunction,Conductor*%
%ADD33C,0.160000*%
%TD*%
G04 APERTURE END LIST*
D10*
%TA.AperFunction,EtchedComponent*%
%TO.C,JP2*%
G36*
X117150000Y-59460000D02*
G01*
X116650000Y-59460000D01*
X116650000Y-58860000D01*
X117150000Y-58860000D01*
X117150000Y-59460000D01*
G37*
%TD.AperFunction*%
%TA.AperFunction,EtchedComponent*%
%TO.C,JP1*%
G36*
X117150000Y-55910000D02*
G01*
X116650000Y-55910000D01*
X116650000Y-55310000D01*
X117150000Y-55310000D01*
X117150000Y-55910000D01*
G37*
%TD.AperFunction*%
%TD*%
D11*
%TO.P,Y2,1,1*%
%TO.N,GPIO0*%
X100990000Y-117550000D03*
%TO.P,Y2,2,2*%
%TO.N,GPIO1*%
X98490000Y-117550000D03*
%TD*%
D12*
%TO.P,Y1,1,1*%
%TO.N,XTAL_P*%
X103590000Y-118250000D03*
%TO.P,Y1,2,2*%
%TO.N,GND*%
X104990000Y-118250000D03*
%TO.P,Y1,3,3*%
%TO.N,XTAL_N*%
X104990000Y-117150000D03*
%TO.P,Y1,4,4*%
%TO.N,GND*%
X103590000Y-117150000D03*
%TD*%
D13*
%TO.P,U4,1,VI*%
%TO.N,+5V*%
X111020000Y-76675000D03*
%TO.P,U4,2,GND*%
%TO.N,GND*%
X111020000Y-78975000D03*
D14*
X117320000Y-78975000D03*
D13*
%TO.P,U4,3,VO*%
%TO.N,Net-(JP1-A)*%
X111020000Y-81275000D03*
%TD*%
D15*
%TO.P,U3,1,EN*%
%TO.N,EN_DCDC*%
X110682500Y-84545000D03*
%TO.P,U3,2,GND*%
%TO.N,GND*%
X110682500Y-85495000D03*
%TO.P,U3,3,SW*%
%TO.N,Net-(U3-SW)*%
X110682500Y-86445000D03*
%TO.P,U3,4,VIN*%
%TO.N,+3V3*%
X112957500Y-86445000D03*
%TO.P,U3,5,FB*%
%TO.N,FB_DCDC*%
X112957500Y-84545000D03*
%TD*%
D16*
%TO.P,U2,1,~{CS}*%
%TO.N,FLASH_CS*%
X110492500Y-67295000D03*
%TO.P,U2,2,DO/IO_{1}*%
%TO.N,FLASH_Q*%
X110492500Y-68565000D03*
%TO.P,U2,3,~{WP}/IO_{2}*%
%TO.N,FLASH_WP*%
X110492500Y-69835000D03*
%TO.P,U2,4,GND*%
%TO.N,GND*%
X110492500Y-71105000D03*
%TO.P,U2,5,DI/IO_{0}*%
%TO.N,FLASH_D*%
X117667500Y-71105000D03*
%TO.P,U2,6,CLK*%
%TO.N,FLASH_CK*%
X117667500Y-69835000D03*
%TO.P,U2,7,~{HOLD}/~{RESET}/IO_{3}*%
%TO.N,FLASH_HD*%
X117667500Y-68565000D03*
%TO.P,U2,8,VCC*%
%TO.N,VDD_FLASH*%
X117667500Y-67295000D03*
%TD*%
D17*
%TO.P,U1,1,GPIO1/ADC*%
%TO.N,GPIO1*%
X123650000Y-111800000D03*
%TO.P,U1,2,GPIO2/ADC*%
%TO.N,GPIO2*%
X123650000Y-112150000D03*
%TO.P,U1,3,GPIO3/ADC*%
%TO.N,GPIO3*%
X123650000Y-112500000D03*
%TO.P,U1,4,GPIO4/ADC*%
%TO.N,GPIO4*%
X123650000Y-112850000D03*
%TO.P,U1,5,GPIO5/ADC*%
%TO.N,GPIO5*%
X123650000Y-113200000D03*
%TO.P,U1,6,GPIO6/ADC*%
%TO.N,GPIO6*%
X123650000Y-113550000D03*
%TO.P,U1,7,GPIO7/ADC*%
%TO.N,GPIO7*%
X123650000Y-113900000D03*
%TO.P,U1,8,GPIO8/ADC*%
%TO.N,GPIO8*%
X123650000Y-114250000D03*
%TO.P,U1,9,VDDPST_1*%
%TO.N,+3V3*%
X123650000Y-114600000D03*
%TO.P,U1,10,GPIO9/ADC*%
%TO.N,GPIO9*%
X123650000Y-114950000D03*
%TO.P,U1,11,GPIO10/ADC*%
%TO.N,GPIO10*%
X123650000Y-115300000D03*
%TO.P,U1,12,GPIO11/ADC*%
%TO.N,GPIO11*%
X123650000Y-115650000D03*
%TO.P,U1,13,GPIO12/ADC*%
%TO.N,GPIO12*%
X123650000Y-116000000D03*
%TO.P,U1,14,GPIO13/ADC*%
%TO.N,GPIO13*%
X123650000Y-116350000D03*
%TO.P,U1,15,GPIO14/ADC*%
%TO.N,GPIO14*%
X123650000Y-116700000D03*
%TO.P,U1,16,GPIO15/ADC*%
%TO.N,GPIO15*%
X123650000Y-117050000D03*
%TO.P,U1,17,GPIO16/ADC*%
%TO.N,GPIO16*%
X123650000Y-117400000D03*
%TO.P,U1,18,GPIO17/ADC*%
%TO.N,GPIO17*%
X123650000Y-117750000D03*
%TO.P,U1,19,GPIO18/ADC*%
%TO.N,GPIO18*%
X123650000Y-118100000D03*
%TO.P,U1,20,GPIO19/ADC*%
%TO.N,GPIO19*%
X123650000Y-118450000D03*
%TO.P,U1,21,VDDPST_2*%
%TO.N,+3V3*%
X123650000Y-118800000D03*
%TO.P,U1,22,GPIO20/ADC*%
%TO.N,GPIO20*%
X123650000Y-119150000D03*
%TO.P,U1,23,GPIO21/ADC*%
%TO.N,GPIO21*%
X123650000Y-119500000D03*
%TO.P,U1,24,GPIO22/ADC*%
%TO.N,GPIO22*%
X123650000Y-119850000D03*
%TO.P,U1,25,GPIO23/ADC*%
%TO.N,GPIO23*%
X123650000Y-120200000D03*
%TO.P,U1,26,VDD_HP_0*%
%TO.N,+1V2*%
X123650000Y-120550000D03*
D18*
%TO.P,U1,27,FLASH_CS*%
%TO.N,FLASH_CS*%
X124150000Y-121050000D03*
%TO.P,U1,28,FLASH_Q*%
%TO.N,FLASH_Q*%
X124500000Y-121050000D03*
%TO.P,U1,29,FLASH_WP*%
%TO.N,FLASH_WP*%
X124850000Y-121050000D03*
%TO.P,U1,30,VDDPST_3*%
%TO.N,VDDO_FLASH*%
X125200000Y-121050000D03*
%TO.P,U1,31,FLASH_HOLD*%
%TO.N,FLASH_HD*%
X125550000Y-121050000D03*
%TO.P,U1,32,FLASH_CK*%
%TO.N,FLASH_CK*%
X125900000Y-121050000D03*
%TO.P,U1,33,FLASH_D*%
%TO.N,FLASH_D*%
X126250000Y-121050000D03*
%TO.P,U1,34,DSI_REXT*%
%TO.N,unconnected-(U1-DSI_REXT-Pad34)*%
X126600000Y-121050000D03*
%TO.P,U1,35,DSI_DATAP1*%
%TO.N,unconnected-(U1-DSI_DATAP1-Pad35)*%
X126950000Y-121050000D03*
%TO.P,U1,36,DSI_DATAN1*%
%TO.N,unconnected-(U1-DSI_DATAN1-Pad36)*%
X127300000Y-121050000D03*
%TO.P,U1,37,DSI_CLKN*%
%TO.N,unconnected-(U1-DSI_CLKN-Pad37)*%
X127650000Y-121050000D03*
%TO.P,U1,38,DSI_CLKP*%
%TO.N,unconnected-(U1-DSI_CLKP-Pad38)*%
X128000000Y-121050000D03*
%TO.P,U1,39,DSI_DATAP0*%
%TO.N,unconnected-(U1-DSI_DATAP0-Pad39)*%
X128350000Y-121050000D03*
%TO.P,U1,40,DSI_DATAN0*%
%TO.N,unconnected-(U1-DSI_DATAN0-Pad40)*%
X128700000Y-121050000D03*
%TO.P,U1,41,VDD_MIPI_DPHY*%
%TO.N,unconnected-(U1-VDD_MIPI_DPHY-Pad41)*%
X129050000Y-121050000D03*
%TO.P,U1,42,CSI_DATAN0*%
%TO.N,unconnected-(U1-CSI_DATAN0-Pad42)*%
X129400000Y-121050000D03*
%TO.P,U1,43,CSI_DATAP0*%
%TO.N,unconnected-(U1-CSI_DATAP0-Pad43)*%
X129750000Y-121050000D03*
%TO.P,U1,44,CSI_CLKP*%
%TO.N,unconnected-(U1-CSI_CLKP-Pad44)*%
X130100000Y-121050000D03*
%TO.P,U1,45,CSI_CLKN*%
%TO.N,unconnected-(U1-CSI_CLKN-Pad45)*%
X130450000Y-121050000D03*
%TO.P,U1,46,CSI_DATAN1*%
%TO.N,unconnected-(U1-CSI_DATAN1-Pad46)*%
X130800000Y-121050000D03*
%TO.P,U1,47,CSI_DATAP1*%
%TO.N,unconnected-(U1-CSI_DATAP1-Pad47)*%
X131150000Y-121050000D03*
%TO.P,U1,48,CSI_REXT*%
%TO.N,unconnected-(U1-CSI_REXT-Pad48)*%
X131500000Y-121050000D03*
%TO.P,U1,49,USB-DM*%
%TO.N,USB_DM*%
X131850000Y-121050000D03*
%TO.P,U1,50,USB-DP*%
%TO.N,USB_DP*%
X132200000Y-121050000D03*
%TO.P,U1,51,VCCA*%
%TO.N,+3V3*%
X132550000Y-121050000D03*
%TO.P,U1,52,GPIO24/ADC/USB*%
%TO.N,GPIO24*%
X132900000Y-121050000D03*
D17*
%TO.P,U1,53,GPIO25/ADC/USB*%
%TO.N,GPIO25*%
X133400000Y-120550000D03*
%TO.P,U1,54,NC*%
%TO.N,unconnected-(U1-NC-Pad54)*%
X133400000Y-120200000D03*
%TO.P,U1,55,GPIO26/ADC/USB*%
%TO.N,GPIO26*%
X133400000Y-119850000D03*
%TO.P,U1,56,GPIO27/ADC/USB*%
%TO.N,GPIO27*%
X133400000Y-119500000D03*
%TO.P,U1,57,GPIO28*%
%TO.N,GPIO28*%
X133400000Y-119150000D03*
%TO.P,U1,58,GPIO29*%
%TO.N,GPIO29*%
X133400000Y-118800000D03*
%TO.P,U1,59,VDDPST*%
%TO.N,VDDO_PSRAM*%
X133400000Y-118450000D03*
%TO.P,U1,60,GPIO30*%
%TO.N,GPIO30*%
X133400000Y-118100000D03*
%TO.P,U1,61,GPIO31*%
%TO.N,GPIO31*%
X133400000Y-117750000D03*
%TO.P,U1,62,VDDPST_4*%
%TO.N,+3V3*%
X133400000Y-117400000D03*
%TO.P,U1,63,GPIO32*%
%TO.N,GPIO32*%
X133400000Y-117050000D03*
%TO.P,U1,64,GPIO33*%
%TO.N,GPIO33*%
X133400000Y-116700000D03*
%TO.P,U1,65,GPIO34*%
%TO.N,GPIO34*%
X133400000Y-116350000D03*
%TO.P,U1,66,GPIO35*%
%TO.N,GPIO35{slash}BOOT*%
X133400000Y-116000000D03*
%TO.P,U1,67,VDDPST*%
%TO.N,VDDO_PSRAM*%
X133400000Y-115650000D03*
%TO.P,U1,68,GPIO36*%
%TO.N,GPIO36*%
X133400000Y-115300000D03*
%TO.P,U1,69,GPIO37*%
%TO.N,GPIO37{slash}U0TXD*%
X133400000Y-114950000D03*
%TO.P,U1,70,GPIO38*%
%TO.N,GPIO38{slash}U0RXD*%
X133400000Y-114600000D03*
%TO.P,U1,71,VFB/VO1*%
%TO.N,VDDO_FLASH*%
X133400000Y-114250000D03*
%TO.P,U1,72,VFB/VO2*%
%TO.N,VDDO_PSRAM*%
X133400000Y-113900000D03*
%TO.P,U1,73,VFB/VO3*%
%TO.N,VDDO3*%
X133400000Y-113550000D03*
%TO.P,U1,74,VFB/VO4*%
%TO.N,VDDO4*%
X133400000Y-113200000D03*
%TO.P,U1,75,VDDPST_LDO*%
%TO.N,+3V3*%
X133400000Y-112850000D03*
%TO.P,U1,76,VDD_HP_2*%
%TO.N,+1V2*%
X133400000Y-112500000D03*
%TO.P,U1,77,VDDPST_DCDC*%
%TO.N,+3V3*%
X133400000Y-112150000D03*
%TO.P,U1,78,FB_DCDC*%
%TO.N,FB_DCDC*%
X133400000Y-111800000D03*
D18*
%TO.P,U1,79,EN_DCDC*%
%TO.N,EN_DCDC*%
X132900000Y-111300000D03*
%TO.P,U1,80,GPIO39*%
%TO.N,GPIO39*%
X132550000Y-111300000D03*
%TO.P,U1,81,GPIO40*%
%TO.N,GPIO40*%
X132200000Y-111300000D03*
%TO.P,U1,82,GPIO41*%
%TO.N,GPIO41*%
X131850000Y-111300000D03*
%TO.P,U1,83,GPIO42*%
%TO.N,GPIO52*%
X131500000Y-111300000D03*
%TO.P,U1,84,GPIO43*%
%TO.N,GPIO43*%
X131150000Y-111300000D03*
%TO.P,U1,85,VDDPST_5*%
%TO.N,+3V3*%
X130800000Y-111300000D03*
%TO.P,U1,86,GPIO44*%
%TO.N,GPIO44*%
X130450000Y-111300000D03*
%TO.P,U1,87,GPIO45*%
%TO.N,GPIO45*%
X130100000Y-111300000D03*
%TO.P,U1,88,GPIO46*%
%TO.N,GPIO46*%
X129750000Y-111300000D03*
%TO.P,U1,89,GPIO47*%
%TO.N,GPIO47*%
X129400000Y-111300000D03*
%TO.P,U1,90,GPIO48*%
%TO.N,GPIO48*%
X129050000Y-111300000D03*
%TO.P,U1,91,VDD_HP_3*%
%TO.N,+1V2*%
X128700000Y-111300000D03*
%TO.P,U1,92,GPIO49/ADC*%
%TO.N,GPIO49*%
X128350000Y-111300000D03*
%TO.P,U1,93,GPIO50/ADC*%
%TO.N,GPIO50*%
X128000000Y-111300000D03*
%TO.P,U1,94,GPIO51/ADC*%
%TO.N,GPIO51*%
X127650000Y-111300000D03*
%TO.P,U1,95,GPIO52/ADC*%
%TO.N,GPIO52*%
X127300000Y-111300000D03*
%TO.P,U1,96,VDDPST_6*%
%TO.N,+3V3*%
X126950000Y-111300000D03*
%TO.P,U1,97,GPIO53/ADC*%
%TO.N,GPIO53*%
X126600000Y-111300000D03*
%TO.P,U1,98,GPIO54/ADC*%
%TO.N,GPIO54*%
X126250000Y-111300000D03*
%TO.P,U1,99,XTAL_N*%
%TO.N,XTAL_N*%
X125900000Y-111300000D03*
%TO.P,U1,100,XTAL_P*%
%TO.N,XTAL_P*%
X125550000Y-111300000D03*
%TO.P,U1,101,VDDA*%
%TO.N,+3V3*%
X125200000Y-111300000D03*
%TO.P,U1,102,VBAT*%
%TO.N,Net-(JP2-B)*%
X124850000Y-111300000D03*
%TO.P,U1,103,CHIP_PU*%
%TO.N,CHIP_PU*%
X124500000Y-111300000D03*
%TO.P,U1,104,GPIO0/ADC*%
%TO.N,GPIO0*%
X124150000Y-111300000D03*
D19*
%TO.P,U1,105,GND*%
%TO.N,GND*%
X125825000Y-113475000D03*
X125825000Y-116175000D03*
X125825000Y-118875000D03*
X128525000Y-113475000D03*
X128525000Y-116175000D03*
X128525000Y-118875000D03*
X131225000Y-113475000D03*
X131225000Y-116175000D03*
X131225000Y-118875000D03*
%TD*%
D20*
%TO.P,TP5,1,1*%
%TO.N,+1V2*%
X116600000Y-119600000D03*
%TD*%
%TO.P,TP4,1,1*%
%TO.N,VDDO3*%
X116600000Y-116050000D03*
%TD*%
%TO.P,TP3,1,1*%
%TO.N,VDDO_PSRAM*%
X116600000Y-112500000D03*
%TD*%
%TO.P,TP2,1,1*%
%TO.N,VDDO4*%
X116600000Y-108950000D03*
%TD*%
%TO.P,TP1,1,1*%
%TO.N,VDDO_FLASH*%
X116600000Y-105400000D03*
%TD*%
D21*
%TO.P,SW2,1,1*%
%TO.N,GND*%
X109970000Y-97935000D03*
X115970000Y-97935000D03*
%TO.P,SW2,2,2*%
%TO.N,CHIP_PU*%
X109970000Y-101685000D03*
X115970000Y-101685000D03*
%TD*%
%TO.P,SW1,1,1*%
%TO.N,GND*%
X109970000Y-91285000D03*
X115970000Y-91285000D03*
%TO.P,SW1,2,2*%
%TO.N,GPIO35{slash}BOOT*%
X109970000Y-95035000D03*
X115970000Y-95035000D03*
%TD*%
D22*
%TO.P,R11,1*%
%TO.N,FLASH_CS*%
X112760000Y-62790000D03*
%TO.P,R11,2*%
%TO.N,VDD_FLASH*%
X113780000Y-62790000D03*
%TD*%
%TO.P,R10,1*%
%TO.N,Net-(J6-CC1)*%
X112760000Y-60800000D03*
%TO.P,R10,2*%
%TO.N,GND*%
X113780000Y-60800000D03*
%TD*%
%TO.P,R9,1*%
%TO.N,Net-(J6-CC2)*%
X112760000Y-58810000D03*
%TO.P,R9,2*%
%TO.N,GND*%
X113780000Y-58810000D03*
%TD*%
%TO.P,R8,1*%
%TO.N,Net-(J5-D+-PadA6)*%
X112760000Y-56820000D03*
%TO.P,R8,2*%
%TO.N,USB_DP*%
X113780000Y-56820000D03*
%TD*%
%TO.P,R7,1*%
%TO.N,USB_DM*%
X112760000Y-54830000D03*
%TO.P,R7,2*%
%TO.N,Net-(J5-D--PadA7)*%
X113780000Y-54830000D03*
%TD*%
%TO.P,R6,1*%
%TO.N,Net-(J5-CC1)*%
X109850000Y-64780000D03*
%TO.P,R6,2*%
%TO.N,GND*%
X110870000Y-64780000D03*
%TD*%
%TO.P,R5,1*%
%TO.N,Net-(J5-CC2)*%
X109850000Y-62790000D03*
%TO.P,R5,2*%
%TO.N,GND*%
X110870000Y-62790000D03*
%TD*%
%TO.P,R4,1*%
%TO.N,+3V3*%
X109850000Y-60800000D03*
%TO.P,R4,2*%
%TO.N,CHIP_PU*%
X110870000Y-60800000D03*
%TD*%
%TO.P,R3,1*%
%TO.N,+3V3*%
X109850000Y-58810000D03*
%TO.P,R3,2*%
%TO.N,GPIO35{slash}BOOT*%
X110870000Y-58810000D03*
%TD*%
%TO.P,R2,1*%
%TO.N,FB_DCDC*%
X109850000Y-56820000D03*
%TO.P,R2,2*%
%TO.N,GND*%
X110870000Y-56820000D03*
%TD*%
%TO.P,R1,1*%
%TO.N,+1V2*%
X109850000Y-54830000D03*
%TO.P,R1,2*%
%TO.N,FB_DCDC*%
X110870000Y-54830000D03*
%TD*%
D23*
%TO.P,L1,1,1*%
%TO.N,Net-(U3-SW)*%
X115720000Y-85165000D03*
%TO.P,L1,2,2*%
%TO.N,+1V2*%
X117820000Y-85165000D03*
%TD*%
D24*
%TO.P,JP2,1,A*%
%TO.N,+3V3*%
X116250000Y-59160000D03*
%TO.P,JP2,2,B*%
%TO.N,Net-(JP2-B)*%
X117550000Y-59160000D03*
%TD*%
%TO.P,JP1,1,A*%
%TO.N,Net-(JP1-A)*%
X116250000Y-55610000D03*
%TO.P,JP1,2,B*%
%TO.N,+3V3*%
X117550000Y-55610000D03*
%TD*%
D25*
%TO.P,J6,A1,GND*%
%TO.N,GND*%
X99810000Y-66055000D03*
%TO.P,J6,A4,VBUS*%
%TO.N,+5V*%
X100610000Y-66055000D03*
D26*
%TO.P,J6,A5,CC1*%
%TO.N,Net-(J6-CC1)*%
X101810000Y-66055000D03*
%TO.P,J6,A6,D+*%
%TO.N,GPIO25*%
X102810000Y-66055000D03*
%TO.P,J6,A7,D-*%
%TO.N,GPIO24*%
X103310000Y-66055000D03*
%TO.P,J6,A8,SBU1*%
%TO.N,unconnected-(J6-SBU1-PadA8)*%
X104310000Y-66055000D03*
D25*
%TO.P,J6,A9,VBUS*%
%TO.N,+5V*%
X105510000Y-66055000D03*
%TO.P,J6,A12,GND*%
%TO.N,GND*%
X106310000Y-66055000D03*
%TO.P,J6,B1,GND*%
X106310000Y-66055000D03*
%TO.P,J6,B4,VBUS*%
%TO.N,+5V*%
X105510000Y-66055000D03*
D26*
%TO.P,J6,B5,CC2*%
%TO.N,Net-(J6-CC2)*%
X104810000Y-66055000D03*
%TO.P,J6,B6,D+*%
%TO.N,GPIO25*%
X103810000Y-66055000D03*
%TO.P,J6,B7,D-*%
%TO.N,GPIO24*%
X102310000Y-66055000D03*
%TO.P,J6,B8,SBU2*%
%TO.N,unconnected-(J6-SBU2-PadB8)*%
X101310000Y-66055000D03*
D25*
%TO.P,J6,B9,VBUS*%
%TO.N,+5V*%
X100610000Y-66055000D03*
%TO.P,J6,B12,GND*%
%TO.N,GND*%
X99810000Y-66055000D03*
D27*
%TO.P,J6,S1,SHIELD*%
X98740000Y-66970000D03*
D28*
X98740000Y-71150000D03*
D27*
X107380000Y-66970000D03*
D28*
X107380000Y-71150000D03*
%TD*%
D25*
%TO.P,J5,A1,GND*%
%TO.N,GND*%
X99810000Y-55585000D03*
%TO.P,J5,A4,VBUS*%
%TO.N,+5V*%
X100610000Y-55585000D03*
D26*
%TO.P,J5,A5,CC1*%
%TO.N,Net-(J5-CC1)*%
X101810000Y-55585000D03*
%TO.P,J5,A6,D+*%
%TO.N,Net-(J5-D+-PadA6)*%
X102810000Y-55585000D03*
%TO.P,J5,A7,D-*%
%TO.N,Net-(J5-D--PadA7)*%
X103310000Y-55585000D03*
%TO.P,J5,A8,SBU1*%
%TO.N,unconnected-(J5-SBU1-PadA8)*%
X104310000Y-55585000D03*
D25*
%TO.P,J5,A9,VBUS*%
%TO.N,+5V*%
X105510000Y-55585000D03*
%TO.P,J5,A12,GND*%
%TO.N,GND*%
X106310000Y-55585000D03*
%TO.P,J5,B1,GND*%
X106310000Y-55585000D03*
%TO.P,J5,B4,VBUS*%
%TO.N,+5V*%
X105510000Y-55585000D03*
D26*
%TO.P,J5,B5,CC2*%
%TO.N,Net-(J5-CC2)*%
X104810000Y-55585000D03*
%TO.P,J5,B6,D+*%
%TO.N,Net-(J5-D+-PadA6)*%
X103810000Y-55585000D03*
%TO.P,J5,B7,D-*%
%TO.N,Net-(J5-D--PadA7)*%
X102310000Y-55585000D03*
%TO.P,J5,B8,SBU2*%
%TO.N,unconnected-(J5-SBU2-PadB8)*%
X101310000Y-55585000D03*
D25*
%TO.P,J5,B9,VBUS*%
%TO.N,+5V*%
X100610000Y-55585000D03*
%TO.P,J5,B12,GND*%
%TO.N,GND*%
X99810000Y-55585000D03*
D27*
%TO.P,J5,S1,SHIELD*%
X98740000Y-56500000D03*
D28*
X98740000Y-60680000D03*
D27*
X107380000Y-56500000D03*
D28*
X107380000Y-60680000D03*
%TD*%
D29*
%TO.P,J4,1,Pin_1*%
%TO.N,+3V3*%
X112530000Y-105920000D03*
D30*
%TO.P,J4,2,Pin_2*%
%TO.N,GPIO37{slash}U0TXD*%
X112530000Y-108460000D03*
%TO.P,J4,3,Pin_3*%
%TO.N,GPIO38{slash}U0RXD*%
X112530000Y-111000000D03*
%TO.P,J4,4,Pin_4*%
%TO.N,CHIP_PU*%
X112530000Y-113540000D03*
%TO.P,J4,5,Pin_5*%
%TO.N,GPIO35{slash}BOOT*%
X112530000Y-116080000D03*
%TO.P,J4,6,Pin_6*%
%TO.N,GND*%
X112530000Y-118620000D03*
%TD*%
D29*
%TO.P,J3,1,Pin_1*%
%TO.N,GPIO54*%
X94920000Y-56140000D03*
D30*
%TO.P,J3,2,Pin_2*%
%TO.N,GPIO53*%
X94920000Y-58680000D03*
%TO.P,J3,3,Pin_3*%
%TO.N,GND*%
X94920000Y-61220000D03*
%TO.P,J3,4,Pin_4*%
%TO.N,GPIO52*%
X94920000Y-63760000D03*
%TO.P,J3,5,Pin_5*%
%TO.N,GPIO51*%
X94920000Y-66300000D03*
%TO.P,J3,6,Pin_6*%
%TO.N,GPIO50*%
X94920000Y-68840000D03*
%TO.P,J3,7,Pin_7*%
%TO.N,GPIO49*%
X94920000Y-71380000D03*
%TO.P,J3,8,Pin_8*%
%TO.N,GND*%
X94920000Y-73920000D03*
%TO.P,J3,9,Pin_9*%
%TO.N,GPIO48*%
X94920000Y-76460000D03*
%TO.P,J3,10,Pin_10*%
%TO.N,GPIO47*%
X94920000Y-79000000D03*
%TO.P,J3,11,Pin_11*%
%TO.N,GPIO46*%
X94920000Y-81540000D03*
%TO.P,J3,12,Pin_12*%
%TO.N,GPIO45*%
X94920000Y-84080000D03*
%TO.P,J3,13,Pin_13*%
%TO.N,GPIO44*%
X94920000Y-86620000D03*
%TO.P,J3,14,Pin_14*%
%TO.N,GND*%
X94920000Y-89160000D03*
%TO.P,J3,15,Pin_15*%
%TO.N,GPIO43*%
X94920000Y-91700000D03*
%TO.P,J3,16,Pin_16*%
%TO.N,GPIO52*%
X94920000Y-94240000D03*
%TO.P,J3,17,Pin_17*%
%TO.N,GPIO41*%
X94920000Y-96780000D03*
%TO.P,J3,18,Pin_18*%
%TO.N,GPIO40*%
X94920000Y-99320000D03*
%TO.P,J3,19,Pin_19*%
%TO.N,GPIO39*%
X94920000Y-101860000D03*
%TO.P,J3,20,Pin_20*%
%TO.N,+3V3*%
X94920000Y-104400000D03*
%TD*%
D29*
%TO.P,J2,1,Pin_1*%
%TO.N,GPIO25*%
X90330000Y-56140000D03*
D30*
%TO.P,J2,2,Pin_2*%
%TO.N,GND*%
X90330000Y-58680000D03*
%TO.P,J2,3,Pin_3*%
%TO.N,GPIO26*%
X90330000Y-61220000D03*
%TO.P,J2,4,Pin_4*%
%TO.N,GPIO27*%
X90330000Y-63760000D03*
%TO.P,J2,5,Pin_5*%
%TO.N,GPIO28*%
X90330000Y-66300000D03*
%TO.P,J2,6,Pin_6*%
%TO.N,GPIO29*%
X90330000Y-68840000D03*
%TO.P,J2,7,Pin_7*%
%TO.N,GND*%
X90330000Y-71380000D03*
%TO.P,J2,8,Pin_8*%
%TO.N,GPIO30*%
X90330000Y-73920000D03*
%TO.P,J2,9,Pin_9*%
%TO.N,GPIO31*%
X90330000Y-76460000D03*
%TO.P,J2,10,Pin_10*%
%TO.N,GND*%
X90330000Y-79000000D03*
%TO.P,J2,11,Pin_11*%
%TO.N,GPIO32*%
X90330000Y-81540000D03*
%TO.P,J2,12,Pin_12*%
%TO.N,GPIO33*%
X90330000Y-84080000D03*
%TO.P,J2,13,Pin_13*%
%TO.N,GPIO34*%
X90330000Y-86620000D03*
%TO.P,J2,14,Pin_14*%
%TO.N,GPIO35{slash}BOOT*%
X90330000Y-89160000D03*
%TO.P,J2,15,Pin_15*%
%TO.N,GND*%
X90330000Y-91700000D03*
%TO.P,J2,16,Pin_16*%
%TO.N,GPIO36*%
X90330000Y-94240000D03*
%TO.P,J2,17,Pin_17*%
%TO.N,GPIO37{slash}U0TXD*%
X90330000Y-96780000D03*
%TO.P,J2,18,Pin_18*%
%TO.N,GPIO38{slash}U0RXD*%
X90330000Y-99320000D03*
%TO.P,J2,19,Pin_19*%
%TO.N,+3V3*%
X90330000Y-101860000D03*
%TO.P,J2,20,Pin_20*%
X90330000Y-104400000D03*
%TD*%
D29*
%TO.P,J1,1,Pin_1*%
%TO.N,GND*%
X85740000Y-56130000D03*
D30*
%TO.P,J1,2,Pin_2*%
%TO.N,GPIO2*%
X85740000Y-58670000D03*
%TO.P,J1,3,Pin_3*%
%TO.N,GPIO3*%
X85740000Y-61210000D03*
%TO.P,J1,4,Pin_4*%
%TO.N,GPIO4*%
X85740000Y-63750000D03*
%TO.P,J1,5,Pin_5*%
%TO.N,GPIO5*%
X85740000Y-66290000D03*
%TO.P,J1,6,Pin_6*%
%TO.N,GPIO6*%
X85740000Y-68830000D03*
%TO.P,J1,7,Pin_7*%
%TO.N,GPIO7*%
X85740000Y-71370000D03*
%TO.P,J1,8,Pin_8*%
%TO.N,GPIO8*%
X85740000Y-73910000D03*
%TO.P,J1,9,Pin_9*%
%TO.N,GND*%
X85740000Y-76450000D03*
%TO.P,J1,10,Pin_10*%
%TO.N,GPIO9*%
X85740000Y-78990000D03*
%TO.P,J1,11,Pin_11*%
%TO.N,GPIO10*%
X85740000Y-81530000D03*
%TO.P,J1,12,Pin_12*%
%TO.N,GPIO11*%
X85740000Y-84070000D03*
%TO.P,J1,13,Pin_13*%
%TO.N,GPIO12*%
X85740000Y-86610000D03*
%TO.P,J1,14,Pin_14*%
%TO.N,GPIO13*%
X85740000Y-89150000D03*
%TO.P,J1,15,Pin_15*%
%TO.N,GPIO14*%
X85740000Y-91690000D03*
%TO.P,J1,16,Pin_16*%
%TO.N,GPIO15*%
X85740000Y-94230000D03*
%TO.P,J1,17,Pin_17*%
%TO.N,GPIO16*%
X85740000Y-96770000D03*
%TO.P,J1,18,Pin_18*%
%TO.N,GPIO17*%
X85740000Y-99310000D03*
%TO.P,J1,19,Pin_19*%
%TO.N,GPIO18*%
X85740000Y-101850000D03*
%TO.P,J1,20,Pin_20*%
%TO.N,GPIO19*%
X85740000Y-104390000D03*
%TO.P,J1,21,Pin_21*%
%TO.N,GND*%
X85740000Y-106930000D03*
%TO.P,J1,22,Pin_22*%
%TO.N,GPIO20*%
X85740000Y-109470000D03*
%TO.P,J1,23,Pin_23*%
%TO.N,GPIO21*%
X85740000Y-112010000D03*
%TO.P,J1,24,Pin_24*%
%TO.N,GPIO22*%
X85740000Y-114550000D03*
%TO.P,J1,25,Pin_25*%
%TO.N,GPIO23*%
X85740000Y-117090000D03*
%TO.P,J1,26,Pin_26*%
%TO.N,+3V3*%
X85740000Y-119630000D03*
%TD*%
D31*
%TO.P,C41,1*%
%TO.N,Net-(JP1-A)*%
X106465000Y-81050000D03*
%TO.P,C41,2*%
%TO.N,GND*%
X108015000Y-81050000D03*
%TD*%
D32*
%TO.P,C40,1*%
%TO.N,Net-(JP1-A)*%
X106780000Y-98700000D03*
%TO.P,C40,2*%
%TO.N,GND*%
X107740000Y-98700000D03*
%TD*%
%TO.P,C39,1*%
%TO.N,+5V*%
X106780000Y-96730000D03*
%TO.P,C39,2*%
%TO.N,GND*%
X107740000Y-96730000D03*
%TD*%
%TO.P,C38,1*%
%TO.N,VDD_FLASH*%
X106780000Y-94760000D03*
%TO.P,C38,2*%
%TO.N,GND*%
X107740000Y-94760000D03*
%TD*%
D31*
%TO.P,C37,1*%
%TO.N,+5V*%
X106465000Y-78540000D03*
%TO.P,C37,2*%
%TO.N,GND*%
X108015000Y-78540000D03*
%TD*%
D32*
%TO.P,C36,1*%
%TO.N,CHIP_PU*%
X106780000Y-92790000D03*
%TO.P,C36,2*%
%TO.N,GND*%
X107740000Y-92790000D03*
%TD*%
%TO.P,C35,1*%
%TO.N,GPIO35{slash}BOOT*%
X106780000Y-90820000D03*
%TO.P,C35,2*%
%TO.N,GND*%
X107740000Y-90820000D03*
%TD*%
D31*
%TO.P,C34,1*%
%TO.N,+3V3*%
X106465000Y-76030000D03*
%TO.P,C34,2*%
%TO.N,GND*%
X108015000Y-76030000D03*
%TD*%
D32*
%TO.P,C33,1*%
%TO.N,+3V3*%
X103910000Y-102640000D03*
%TO.P,C33,2*%
%TO.N,GND*%
X104870000Y-102640000D03*
%TD*%
%TO.P,C32,1*%
%TO.N,+3V3*%
X103910000Y-100670000D03*
%TO.P,C32,2*%
%TO.N,GND*%
X104870000Y-100670000D03*
%TD*%
%TO.P,C31,1*%
%TO.N,VDDO_FLASH*%
X103910000Y-98700000D03*
%TO.P,C31,2*%
%TO.N,GND*%
X104870000Y-98700000D03*
%TD*%
D31*
%TO.P,C30,1*%
%TO.N,VDDO_FLASH*%
X102455000Y-88580000D03*
%TO.P,C30,2*%
%TO.N,GND*%
X104005000Y-88580000D03*
%TD*%
D32*
%TO.P,C29,1*%
%TO.N,+1V2*%
X103910000Y-96730000D03*
%TO.P,C29,2*%
%TO.N,GND*%
X104870000Y-96730000D03*
%TD*%
D31*
%TO.P,C28,1*%
%TO.N,+1V2*%
X102455000Y-86070000D03*
%TO.P,C28,2*%
%TO.N,GND*%
X104005000Y-86070000D03*
%TD*%
%TO.P,C27,1*%
%TO.N,VDDO_PSRAM*%
X102455000Y-83560000D03*
%TO.P,C27,2*%
%TO.N,GND*%
X104005000Y-83560000D03*
%TD*%
D32*
%TO.P,C26,1*%
%TO.N,VDDO_PSRAM*%
X103910000Y-94760000D03*
%TO.P,C26,2*%
%TO.N,GND*%
X104870000Y-94760000D03*
%TD*%
%TO.P,C25,1*%
%TO.N,GPIO1*%
X103910000Y-92790000D03*
%TO.P,C25,2*%
%TO.N,GND*%
X104870000Y-92790000D03*
%TD*%
%TO.P,C24,1*%
%TO.N,GND*%
X103910000Y-90820000D03*
%TO.P,C24,2*%
%TO.N,+3V3*%
X104870000Y-90820000D03*
%TD*%
%TO.P,C23,1*%
%TO.N,+3V3*%
X101040000Y-102640000D03*
%TO.P,C23,2*%
%TO.N,GND*%
X102000000Y-102640000D03*
%TD*%
D31*
%TO.P,C22,1*%
%TO.N,VDDO4*%
X102455000Y-81050000D03*
%TO.P,C22,2*%
%TO.N,GND*%
X104005000Y-81050000D03*
%TD*%
D32*
%TO.P,C21,1*%
%TO.N,+3V3*%
X101040000Y-100670000D03*
%TO.P,C21,2*%
%TO.N,GND*%
X102000000Y-100670000D03*
%TD*%
D31*
%TO.P,C20,1*%
%TO.N,+3V3*%
X102455000Y-78540000D03*
%TO.P,C20,2*%
%TO.N,GND*%
X104005000Y-78540000D03*
%TD*%
%TO.P,C19,1*%
%TO.N,VDDO3*%
X102455000Y-76030000D03*
%TO.P,C19,2*%
%TO.N,GND*%
X104005000Y-76030000D03*
%TD*%
%TO.P,C18,1*%
%TO.N,VDDO_PSRAM*%
X98445000Y-88580000D03*
%TO.P,C18,2*%
%TO.N,GND*%
X99995000Y-88580000D03*
%TD*%
%TO.P,C17,1*%
%TO.N,VDDO_FLASH*%
X98445000Y-86070000D03*
%TO.P,C17,2*%
%TO.N,GND*%
X99995000Y-86070000D03*
%TD*%
D32*
%TO.P,C16,1*%
%TO.N,+3V3*%
X101040000Y-98700000D03*
%TO.P,C16,2*%
%TO.N,GND*%
X102000000Y-98700000D03*
%TD*%
%TO.P,C15,1*%
%TO.N,+1V2*%
X101040000Y-96730000D03*
%TO.P,C15,2*%
%TO.N,GND*%
X102000000Y-96730000D03*
%TD*%
D31*
%TO.P,C14,1*%
%TO.N,+3V3*%
X98445000Y-83560000D03*
%TO.P,C14,2*%
%TO.N,GND*%
X99995000Y-83560000D03*
%TD*%
D32*
%TO.P,C13,1*%
%TO.N,+3V3*%
X101040000Y-94760000D03*
%TO.P,C13,2*%
%TO.N,GND*%
X102000000Y-94760000D03*
%TD*%
%TO.P,C12,1*%
%TO.N,Net-(JP2-B)*%
X101040000Y-92790000D03*
%TO.P,C12,2*%
%TO.N,GND*%
X102000000Y-92790000D03*
%TD*%
D31*
%TO.P,C11,1*%
%TO.N,Net-(JP2-B)*%
X98445000Y-81050000D03*
%TO.P,C11,2*%
%TO.N,GND*%
X99995000Y-81050000D03*
%TD*%
D32*
%TO.P,C10,1*%
%TO.N,GND*%
X101040000Y-90820000D03*
%TO.P,C10,2*%
%TO.N,GPIO0*%
X102000000Y-90820000D03*
%TD*%
%TO.P,C9,1*%
%TO.N,+3V3*%
X98170000Y-102640000D03*
%TO.P,C9,2*%
%TO.N,GND*%
X99130000Y-102640000D03*
%TD*%
%TO.P,C8,1*%
%TO.N,+1V2*%
X98170000Y-100670000D03*
%TO.P,C8,2*%
%TO.N,GND*%
X99130000Y-100670000D03*
%TD*%
%TO.P,C7,1*%
%TO.N,+3V3*%
X98170000Y-98700000D03*
%TO.P,C7,2*%
%TO.N,GND*%
X99130000Y-98700000D03*
%TD*%
%TO.P,C6,1*%
%TO.N,+3V3*%
X98170000Y-96730000D03*
%TO.P,C6,2*%
%TO.N,GND*%
X99130000Y-96730000D03*
%TD*%
%TO.P,C5,1*%
%TO.N,XTAL_N*%
X98170000Y-94760000D03*
%TO.P,C5,2*%
%TO.N,GND*%
X99130000Y-94760000D03*
%TD*%
%TO.P,C4,1*%
%TO.N,GND*%
X98170000Y-92790000D03*
%TO.P,C4,2*%
%TO.N,XTAL_P*%
X99130000Y-92790000D03*
%TD*%
D31*
%TO.P,C3,1*%
%TO.N,+1V2*%
X98445000Y-78540000D03*
%TO.P,C3,2*%
%TO.N,GND*%
X99995000Y-78540000D03*
%TD*%
D32*
%TO.P,C2,1*%
%TO.N,+1V2*%
X98170000Y-90820000D03*
%TO.P,C2,2*%
%TO.N,FB_DCDC*%
X99130000Y-90820000D03*
%TD*%
D31*
%TO.P,C1,1*%
%TO.N,+3V3*%
X98445000Y-76030000D03*
%TO.P,C1,2*%
%TO.N,GND*%
X99995000Y-76030000D03*
%TD*%
D33*
%TO.N,Net-(JP2-B)*%
X124850000Y-110050000D02*
X124800000Y-110000000D01*
X124850000Y-111300000D02*
X124850000Y-110050000D01*
%TD*%
M02*
