M48
; DRILL file {KiCad 9.0.4} date 2025-09-08T22:46:10+1000
; FORMAT={-:-/ absolute / inch / decimal}
; #@! TF.CreationDate,2025-09-08T22:46:10+10:00
; #@! TF.GenerationSoftware,Kicad,Pcbnew,9.0.4
; #@! TF.FileFunction,Plated,1,2,PTH
FMAT,2
INCH
; #@! TA.AperFunction,Plated,PTH,ComponentDrill
T1C0.0236
; #@! TA.AperFunction,Plated,PTH,ComponentDrill
T2C0.0394
%
G90
G05
T2
X3.3756Y-2.2098
X3.3756Y-2.3098
X3.3756Y-2.4098
X3.3756Y-2.5098
X3.3756Y-2.6098
X3.3756Y-2.7098
X3.3756Y-2.8098
X3.3756Y-2.9098
X3.3756Y-3.0098
X3.3756Y-3.1098
X3.3756Y-3.2098
X3.3756Y-3.3098
X3.3756Y-3.4098
X3.3756Y-3.5098
X3.3756Y-3.6098
X3.3756Y-3.7098
X3.3756Y-3.8098
X3.3756Y-3.9098
X3.3756Y-4.0098
X3.3756Y-4.1098
X3.3756Y-4.2098
X3.3756Y-4.3098
X3.3756Y-4.4098
X3.3756Y-4.5098
X3.3756Y-4.6098
X3.3756Y-4.7098
X3.5563Y-2.2102
X3.5563Y-2.3102
X3.5563Y-2.4102
X3.5563Y-2.5102
X3.5563Y-2.6102
X3.5563Y-2.7102
X3.5563Y-2.8102
X3.5563Y-2.9102
X3.5563Y-3.0102
X3.5563Y-3.1102
X3.5563Y-3.2102
X3.5563Y-3.3102
X3.5563Y-3.4102
X3.5563Y-3.5102
X3.5563Y-3.6102
X3.5563Y-3.7102
X3.5563Y-3.8102
X3.5563Y-3.9102
X3.5563Y-4.0102
X3.5563Y-4.1102
X3.737Y-2.2102
X3.737Y-2.3102
X3.737Y-2.4102
X3.737Y-2.5102
X3.737Y-2.6102
X3.737Y-2.7102
X3.737Y-2.8102
X3.737Y-2.9102
X3.737Y-3.0102
X3.737Y-3.1102
X3.737Y-3.2102
X3.737Y-3.3102
X3.737Y-3.4102
X3.737Y-3.5102
X3.737Y-3.6102
X3.737Y-3.7102
X3.737Y-3.8102
X3.737Y-3.9102
X3.737Y-4.0102
X3.737Y-4.1102
X4.4303Y-4.1701
X4.4303Y-4.2701
X4.4303Y-4.3701
X4.4303Y-4.4701
X4.4303Y-4.5701
X4.4303Y-4.6701
T1
G00X3.8874Y-2.2028
M15
G01X3.8874Y-2.2461
M16
G05
G00X3.8874Y-2.3772
M15
G01X3.8874Y-2.4008
M16
G05
G00X3.8874Y-2.615
M15
G01X3.8874Y-2.6583
M16
G05
G00X3.8874Y-2.7894
M15
G01X3.8874Y-2.813
M16
G05
G00X4.2276Y-2.2028
M15
G01X4.2276Y-2.2461
M16
G05
G00X4.2276Y-2.3772
M15
G01X4.2276Y-2.4008
M16
G05
G00X4.2276Y-2.615
M15
G01X4.2276Y-2.6583
M16
G05
G00X4.2276Y-2.7894
M15
G01X4.2276Y-2.813
M16
G05
M30
