M48
; DRILL file {KiCad 9.0.4} date 2025-09-11T23:10:15+1000
; FORMAT={-:-/ absolute / inch / decimal}
; #@! TF.CreationDate,2025-09-11T23:10:15+10:00
; #@! TF.GenerationSoftware,Kicad,Pcbnew,9.0.4
; #@! TF.FileFunction,Plated,1,4,PTH
FMAT,2
INCH
; #@! TA.AperFunction,Plated,PTH,ViaDrill
T1C0.0118
; #@! TA.AperFunction,Plated,PTH,ComponentDrill
T2C0.0236
; #@! TA.AperFunction,Plated,PTH,ComponentDrill
T3C0.0394
%
G90
G05
T1
X4.9409Y-3.7008
X4.9409Y-3.7992
X4.9409Y-4.1043
X4.9409Y-4.2028
X4.9508Y-4.8524
X4.9508Y-4.8917
X4.9508Y-4.9311
X4.9508Y-4.9705
X4.9508Y-5.0098
X4.9508Y-5.0492
X4.9508Y-5.0886
X4.9508Y-5.128
X4.9606Y-2.6673
X4.9606Y-2.7067
X4.9606Y-2.7461
X4.9606Y-2.7854
X4.9606Y-2.8248
X4.9606Y-2.8642
X4.9606Y-2.9035
X4.9606Y-2.9429
X4.9606Y-2.9823
X4.9606Y-3.0217
X4.9606Y-3.061
X4.9606Y-3.1004
X4.9606Y-3.1398
X4.9606Y-3.1791
X4.9606Y-3.2185
X4.9606Y-3.2579
X4.9606Y-3.2972
X4.9606Y-3.3366
X4.9606Y-3.376
X4.9902Y-5.128
X5.0Y-2.6673
X5.0295Y-5.128
X5.0394Y-2.6673
X5.0689Y-5.128
X5.0787Y-2.6673
X5.1083Y-5.128
X5.1181Y-2.6673
X5.1476Y-5.128
X5.1575Y-2.6673
X5.1772Y-4.4783
X5.187Y-3.5827
X5.187Y-5.128
X5.1969Y-2.6673
X5.1969Y-4.685
X5.2035Y-3.8929
X5.2264Y-3.5827
X5.2264Y-3.622
X5.2264Y-5.128
X5.2362Y-2.6673
X5.2417Y-4.0272
X5.2559Y-4.4193
X5.2559Y-4.626
X5.2657Y-3.5827
X5.2657Y-3.622
X5.2657Y-3.6614
X5.2657Y-5.128
X5.2756Y-2.6673
X5.3051Y-3.622
X5.3051Y-3.6614
X5.3051Y-3.7008
X5.3051Y-4.3701
X5.3051Y-4.5669
X5.3051Y-5.128
X5.315Y-2.6673
X5.3445Y-3.6614
X5.3445Y-3.7008
X5.3445Y-3.7402
X5.3445Y-5.128
X5.3543Y-2.6673
X5.3543Y-4.3209
X5.3642Y-4.5079
X5.3839Y-3.7008
X5.3839Y-3.7402
X5.3839Y-3.7795
X5.3839Y-4.7047
X5.3839Y-4.7343
X5.3839Y-5.128
X5.3937Y-2.6673
X5.4035Y-4.2717
X5.4035Y-4.4685
X5.4232Y-3.7402
X5.4232Y-3.7795
X5.4232Y-3.8189
X5.4232Y-5.128
X5.4331Y-2.6673
X5.4504Y-4.0354
X5.4626Y-3.7795
X5.4626Y-3.8189
X5.4626Y-4.4193
X5.4626Y-4.9409
X5.4626Y-4.9803
X5.4626Y-5.0197
X5.4626Y-5.0591
X5.4626Y-5.0984
X5.4724Y-2.6673
X5.4921Y-4.3898
X5.4921Y-4.4193
X5.502Y-3.8189
X5.502Y-4.9409
X5.502Y-4.9803
X5.502Y-5.0197
X5.5118Y-2.6673
X5.5217Y-4.3602
X5.5217Y-4.4193
X5.5315Y-4.3898
X5.5331Y-3.6063
X5.5413Y-4.9409
X5.5413Y-4.9803
X5.5413Y-5.0197
X5.5512Y-2.6673
X5.5512Y-4.3307
X5.5512Y-4.4193
X5.561Y-4.3602
X5.561Y-4.3898
X5.561Y-4.7338
X5.5807Y-4.311
X5.5807Y-4.4193
X5.5807Y-4.9409
X5.5807Y-4.9803
X5.5807Y-5.0197
X5.5882Y-4.0283
X5.5906Y-2.6673
X5.6102Y-4.5276
X5.6142Y-3.6575
X5.6201Y-4.6161
X5.6201Y-4.9409
X5.6201Y-4.9803
X5.6201Y-5.0197
X5.622Y-3.8514
X5.626Y-4.3189
X5.6299Y-2.6673
X5.6299Y-2.7067
X5.6299Y-2.7461
X5.6299Y-2.7854
X5.6299Y-2.8248
X5.6299Y-2.8642
X5.6299Y-2.9035
X5.6299Y-2.9429
X5.6299Y-2.9823
X5.6299Y-3.0217
X5.6299Y-3.061
X5.6299Y-3.1004
X5.6299Y-3.1398
X5.6299Y-3.1791
X5.6299Y-3.2185
X5.6299Y-3.2579
X5.6575Y-4.2323
X5.6594Y-4.9409
X5.6594Y-4.9803
X5.6594Y-5.0197
X5.6801Y-4.4016
X5.69Y-3.6486
X5.6988Y-4.9409
X5.6988Y-4.9803
X5.6988Y-5.0197
X5.6988Y-5.0591
X5.6988Y-5.0984
X5.7091Y-4.2937
X5.7256Y-4.4169
X5.7323Y-3.6545
X5.7382Y-3.8612
X5.7382Y-4.6161
X5.7421Y-4.5642
X5.7533Y-3.7608
X5.7579Y-3.6339
X5.7677Y-3.8386
X5.7835Y-4.5362
X5.7878Y-4.5764
X5.7937Y-3.3346
X5.7953Y-3.2205
X5.8008Y-4.6173
X5.8071Y-4.4488
X5.8189Y-4.3307
X5.8264Y-3.4098
X5.8346Y-4.537
X5.8346Y-4.5764
X5.8465Y-3.8425
X5.85Y-4.6173
X5.8533Y-3.3346
X5.8542Y-4.4332
X5.8543Y-3.2205
X5.8661Y-4.3937
X5.873Y-4.0404
X5.874Y-4.0935
X5.874Y-4.1457
X5.876Y-4.7638
X5.876Y-4.8425
X5.876Y-4.872
X5.8846Y-3.8705
X5.8935Y-3.6577
X5.8957Y-3.4646
X5.8967Y-3.3386
X5.8976Y-3.2205
X5.9016Y-4.5906
X5.9055Y-4.5157
X5.9055Y-4.5512
X5.9055Y-4.7638
X5.9134Y-4.3346
X5.9262Y-4.0394
X5.9262Y-4.1496
X5.9327Y-3.5508
X5.9331Y-3.8701
X5.935Y-3.5138
X5.935Y-3.5925
X5.935Y-3.6319
X5.935Y-4.7638
X5.9409Y-3.2205
X5.9449Y-3.3583
X5.9754Y-4.4315
X5.9793Y-4.1467
X5.9803Y-4.0394
X5.9803Y-4.0935
X5.9803Y-4.3346
X5.9843Y-3.2205
X5.9843Y-4.7638
X6.0008Y-3.3362
X6.0039Y-3.5138
X6.0039Y-3.5531
X6.0039Y-3.6122
X6.0039Y-3.6516
X6.0039Y-3.7106
X6.0043Y-3.437
X6.0138Y-4.9409
X6.0138Y-5.0098
X6.0138Y-5.0492
X6.0138Y-5.0886
X6.0236Y-4.6949
X6.0276Y-3.2205
X6.0276Y-4.5354
X6.0276Y-4.5866
X6.0295Y-4.6402
X6.0335Y-4.7835
X6.0492Y-3.3996
X6.0531Y-5.0098
X6.0531Y-5.0492
X6.0531Y-5.0886
X6.061Y-3.4469
X6.0701Y-3.224
X6.0713Y-3.3287
X6.0728Y-2.8445
X6.0866Y-3.4094
X6.0925Y-5.0098
X6.0925Y-5.0492
X6.0925Y-5.0886
X6.1024Y-4.7441
X6.1071Y-4.639
X6.1083Y-3.813
X6.1122Y-2.8445
X6.1122Y-3.5433
X6.1122Y-3.5728
X6.1122Y-3.6024
X6.1122Y-3.6909
X6.1122Y-4.3398
X6.1122Y-4.3839
X6.1122Y-4.6949
X6.1142Y-3.224
X6.1142Y-3.8626
X6.122Y-3.5039
X6.122Y-4.4882
X6.122Y-4.5177
X6.1268Y-3.7587
X6.1319Y-5.0098
X6.1319Y-5.0492
X6.1319Y-5.0886
X6.1378Y-3.4094
X6.1457Y-4.2992
X6.1516Y-2.8445
X6.1516Y-3.6043
X6.1516Y-3.7598
X6.1516Y-4.4882
X6.1535Y-3.6898
X6.1551Y-3.9252
X6.1575Y-3.2244
X6.1575Y-4.3307
X6.1614Y-4.7933
X6.1618Y-4.4422
X6.1626Y-4.1539
X6.1713Y-5.0098
X6.1713Y-5.0492
X6.1713Y-5.0886
X6.1772Y-2.7008
X6.1772Y-3.8504
X6.1799Y-4.4083
X6.1811Y-3.1063
X6.1811Y-3.7598
X6.1909Y-2.8445
X6.1929Y-3.3386
X6.1929Y-4.2815
X6.1969Y-3.2244
X6.1993Y-3.7106
X6.1993Y-3.7401
X6.2008Y-3.6024
X6.2008Y-4.7933
X6.2031Y-4.1575
X6.2057Y-4.2199
X6.2059Y-4.0783
X6.2063Y-3.4772
X6.2106Y-4.498
X6.2205Y-4.9508
X6.2303Y-2.8445
X6.2331Y-4.1441
X6.2402Y-4.7933
X6.2488Y-4.098
X6.25Y-3.6319
X6.25Y-3.6614
X6.252Y-3.8504
X6.2598Y-4.2469
X6.2756Y-2.8622
X6.2756Y-3.1063
X6.276Y-3.4142
X6.2795Y-2.6969
X6.2795Y-4.5472
X6.2815Y-3.6752
X6.2815Y-4.1988
X6.2992Y-3.7677
X6.2992Y-4.3051
X6.3071Y-3.8583
X6.3091Y-4.439
X6.311Y-3.6752
X6.322Y-4.5969
X6.3268Y-4.0
X6.3287Y-3.7677
X6.3287Y-4.4882
X6.3406Y-3.6752
X6.3681Y-3.7677
X6.3681Y-4.3307
X6.3701Y-3.6752
X6.376Y-3.8543
X6.378Y-2.6772
X6.3795Y-4.5382
X6.3858Y-4.0
X6.3868Y-4.065
X6.3878Y-3.9272
X6.3976Y-3.6752
X6.3976Y-3.7677
X6.3976Y-4.2461
X6.4075Y-3.8484
X6.414Y-4.1888
X6.4173Y-2.6772
X6.4173Y-4.3799
X6.4213Y-3.689
X6.4213Y-3.7972
X6.4232Y-3.8228
X6.4272Y-3.75
X6.437Y-3.4154
X6.448Y-4.0665
X6.4488Y-4.0
X6.4567Y-2.6772
X6.4917Y-4.1232
X6.4961Y-2.6772
X6.5004Y-4.1535
X6.5108Y-4.0
X6.5157Y-4.0945
X6.5236Y-4.2323
X6.5256Y-4.7941
X6.5354Y-2.6772
X6.5354Y-5.0295
X6.5354Y-5.0689
X6.5354Y-5.1083
X6.5394Y-3.1811
X6.5425Y-3.3281
X6.5453Y-4.9508
X6.5551Y-4.4488
X6.5551Y-4.5965
X6.5728Y-4.0252
X6.5748Y-2.6772
X6.5748Y-3.7008
X6.5748Y-3.7402
X6.5748Y-3.7795
X6.5748Y-5.0295
X6.5748Y-5.0689
X6.5748Y-5.1083
X6.5815Y-4.7366
X6.6043Y-3.2972
X6.6043Y-3.4154
X6.6043Y-4.3406
X6.6142Y-2.6772
X6.6142Y-3.7008
X6.6142Y-3.7402
X6.6142Y-3.7795
X6.6142Y-5.0295
X6.6142Y-5.0689
X6.6142Y-5.1083
X6.6378Y-4.0433
X6.6535Y-2.6772
X6.6535Y-3.7008
X6.6535Y-3.7402
X6.6535Y-3.7795
X6.6535Y-5.0295
X6.6535Y-5.0689
X6.6535Y-5.1083
X6.6575Y-4.1654
X6.6811Y-3.1811
X6.6929Y-2.6772
X6.6929Y-3.7008
X6.6929Y-3.7402
X6.6929Y-3.7795
X6.6929Y-4.7933
X6.6929Y-5.0295
X6.6929Y-5.0689
X6.6929Y-5.1083
X6.7126Y-4.6358
X6.7323Y-2.6772
X6.7323Y-3.2677
X6.7323Y-3.7008
X6.7323Y-3.7402
X6.7323Y-3.7795
X6.7323Y-4.7933
X6.7392Y-4.9665
X6.7421Y-3.4744
X6.7717Y-2.6772
X6.7717Y-3.4154
X6.7717Y-3.7008
X6.7717Y-3.7402
X6.7717Y-3.7795
X6.7717Y-4.7933
X6.811Y-2.6772
X6.8504Y-2.6772
X6.8504Y-2.7165
X6.8504Y-2.7559
X6.8504Y-2.7953
X6.8504Y-2.8346
X6.8504Y-2.874
X6.8504Y-2.9134
X6.8504Y-2.9528
X6.8504Y-2.9921
X6.8504Y-3.0315
X6.8504Y-3.0709
X6.8504Y-3.1102
X6.8504Y-3.1496
X6.8504Y-3.189
X6.8504Y-3.2283
X6.8504Y-3.2677
X6.8504Y-3.3071
X6.8504Y-3.3465
X6.8504Y-3.3858
X6.8504Y-3.4252
X6.8504Y-3.4646
X6.8504Y-3.5039
X6.8504Y-3.5433
X6.8504Y-3.5827
X6.8504Y-3.622
X6.8504Y-3.6614
X6.8504Y-3.7008
X6.8504Y-3.7402
X6.8504Y-3.7795
X6.8504Y-3.8189
X6.8504Y-3.8583
X6.8504Y-3.8976
X6.8504Y-3.937
X6.8504Y-3.9764
X6.8504Y-4.0157
X6.8504Y-4.0551
X6.8504Y-4.0945
X6.8504Y-4.1339
X6.8504Y-4.1831
X6.8504Y-4.2224
X6.8504Y-4.2618
X6.8504Y-4.3012
X6.8504Y-4.3406
X6.8504Y-4.3799
X6.8504Y-4.4193
X6.8504Y-4.4587
X6.8504Y-4.498
X6.8504Y-4.5374
X6.8504Y-4.5768
X6.8504Y-4.6161
X6.8504Y-4.6555
X6.8504Y-4.6949
X6.8504Y-4.7343
X6.8504Y-4.7736
X6.8504Y-4.813
X6.8504Y-4.8524
X6.8504Y-4.8917
X6.8504Y-4.9311
X6.8504Y-4.9705
T3
X4.9945Y-3.548
X4.9945Y-3.648
X4.9945Y-3.748
X4.9945Y-3.848
X4.9945Y-3.948
X4.9945Y-4.048
X4.9945Y-4.148
X4.9945Y-4.248
X4.9945Y-4.348
X4.9945Y-4.448
X4.9945Y-4.548
X4.9945Y-4.648
X4.9945Y-4.748
X5.0945Y-3.548
X5.0945Y-3.648
X5.0945Y-3.748
X5.0945Y-3.848
X5.0945Y-3.948
X5.0945Y-4.048
X5.0945Y-4.148
X5.0945Y-4.248
X5.0945Y-4.348
X5.0945Y-4.448
X5.0945Y-4.548
X5.0945Y-4.648
X5.0945Y-4.748
X6.7504Y-3.9232
X6.7504Y-4.0232
X6.7504Y-4.1232
X6.7504Y-4.2232
X6.7504Y-4.3232
X6.7504Y-4.4232
T2
G00X5.9312Y-4.868
M15
G01X5.9312Y-4.9113
M16
G05
G00X5.9312Y-5.0424
M15
G01X5.9312Y-5.0661
M16
G05
G00X6.2714Y-4.868
M15
G01X6.2714Y-4.9113
M16
G05
G00X6.2714Y-5.0424
M15
G01X6.2714Y-5.0661
M16
G05
G00X6.452Y-4.8693
M15
G01X6.452Y-4.9126
M16
G05
G00X6.452Y-5.0437
M15
G01X6.452Y-5.0673
M16
G05
G00X6.7921Y-4.8693
M15
G01X6.7921Y-4.9126
M16
G05
G00X6.7921Y-5.0437
M15
G01X6.7921Y-5.0673
M16
G05
M30
