%TF.GenerationSoftware,KiCad,Pcbnew,9.0.4*%
%TF.CreationDate,2025-09-12T09:19:31+10:00*%
%TF.ProjectId,simple-p4,73696d70-6c65-42d7-9034-2e6b69636164,rev?*%
%TF.SameCoordinates,Original*%
%TF.FileFunction,Copper,L4,Bot*%
%TF.FilePolarity,Positive*%
%FSLAX46Y46*%
G04 Gerber Fmt 4.6, Leading zero omitted, Abs format (unit mm)*
G04 Created by KiCad (PCBNEW 9.0.4) date 2025-09-12 09:19:31*
%MOMM*%
%LPD*%
G01*
G04 APERTURE LIST*
%TA.AperFunction,HeatsinkPad*%
%ADD10O,1.000000X2.100000*%
%TD*%
%TA.AperFunction,HeatsinkPad*%
%ADD11O,1.000000X1.600000*%
%TD*%
%TA.AperFunction,ComponentPad*%
%ADD12R,1.700000X1.700000*%
%TD*%
%TA.AperFunction,ComponentPad*%
%ADD13C,1.700000*%
%TD*%
%TA.AperFunction,ViaPad*%
%ADD14C,0.500000*%
%TD*%
%TA.AperFunction,Conductor*%
%ADD15C,0.250000*%
%TD*%
%TA.AperFunction,Conductor*%
%ADD16C,0.200000*%
%TD*%
%TA.AperFunction,Conductor*%
%ADD17C,0.160000*%
%TD*%
G04 APERTURE END LIST*
D10*
%TO.P,J6,S1,SHIELD*%
%TO.N,GND*%
X163880000Y-124230000D03*
D11*
X163880000Y-128410000D03*
D10*
X172520000Y-124230000D03*
D11*
X172520000Y-128410000D03*
%TD*%
D12*
%TO.P,J2,1,Pin_1*%
%TO.N,+3V3*%
X171460000Y-99650000D03*
D13*
%TO.P,J2,2,Pin_2*%
%TO.N,GPIO37{slash}U0TXD*%
X171460000Y-102190000D03*
%TO.P,J2,3,Pin_3*%
%TO.N,GPIO38{slash}U0RXD*%
X171460000Y-104730000D03*
%TO.P,J2,4,Pin_4*%
%TO.N,CHIP_PU*%
X171460000Y-107270000D03*
%TO.P,J2,5,Pin_5*%
%TO.N,GPIO35{slash}BOOT*%
X171460000Y-109810000D03*
%TO.P,J2,6,Pin_6*%
%TO.N,GND*%
X171460000Y-112350000D03*
%TD*%
D10*
%TO.P,J5,S1,SHIELD*%
%TO.N,GND*%
X150652300Y-124197700D03*
D11*
X150652300Y-128377700D03*
D10*
X159292300Y-124197700D03*
D11*
X159292300Y-128377700D03*
%TD*%
D12*
%TO.P,J1,1,Pin_1*%
%TO.N,GND*%
X126860000Y-90120000D03*
D13*
%TO.P,J1,2,Pin_2*%
%TO.N,GPIO2*%
X129400000Y-90120000D03*
%TO.P,J1,3,Pin_3*%
%TO.N,GPIO3*%
X126860000Y-92660000D03*
%TO.P,J1,4,Pin_4*%
%TO.N,GPIO4*%
X129400000Y-92660000D03*
%TO.P,J1,5,Pin_5*%
%TO.N,GPIO5*%
X126860000Y-95200000D03*
%TO.P,J1,6,Pin_6*%
%TO.N,GPIO6*%
X129400000Y-95200000D03*
%TO.P,J1,7,Pin_7*%
%TO.N,GPIO7*%
X126860000Y-97740000D03*
%TO.P,J1,8,Pin_8*%
%TO.N,GPIO8*%
X129400000Y-97740000D03*
%TO.P,J1,9,Pin_9*%
%TO.N,GND*%
X126860000Y-100280000D03*
%TO.P,J1,10,Pin_10*%
%TO.N,GPIO9*%
X129400000Y-100280000D03*
%TO.P,J1,11,Pin_11*%
%TO.N,GPIO10*%
X126860000Y-102820000D03*
%TO.P,J1,12,Pin_12*%
%TO.N,GPIO11*%
X129400000Y-102820000D03*
%TO.P,J1,13,Pin_13*%
%TO.N,GPIO12*%
X126860000Y-105360000D03*
%TO.P,J1,14,Pin_14*%
%TO.N,GPIO13*%
X129400000Y-105360000D03*
%TO.P,J1,15,Pin_15*%
%TO.N,GPIO14*%
X126860000Y-107900000D03*
%TO.P,J1,16,Pin_16*%
%TO.N,GPIO15*%
X129400000Y-107900000D03*
%TO.P,J1,17,Pin_17*%
%TO.N,GPIO16*%
X126860000Y-110440000D03*
%TO.P,J1,18,Pin_18*%
%TO.N,GPIO17*%
X129400000Y-110440000D03*
%TO.P,J1,19,Pin_19*%
%TO.N,GPIO18*%
X126860000Y-112980000D03*
%TO.P,J1,20,Pin_20*%
%TO.N,GPIO19*%
X129400000Y-112980000D03*
%TO.P,J1,21,Pin_21*%
%TO.N,GND*%
X126860000Y-115520000D03*
%TO.P,J1,22,Pin_22*%
%TO.N,GPIO20*%
X129400000Y-115520000D03*
%TO.P,J1,23,Pin_23*%
%TO.N,GPIO21*%
X126860000Y-118060000D03*
%TO.P,J1,24,Pin_24*%
%TO.N,GPIO22*%
X129400000Y-118060000D03*
%TO.P,J1,25,Pin_25*%
%TO.N,GPIO23*%
X126860000Y-120600000D03*
%TO.P,J1,26,Pin_26*%
%TO.N,+3V3*%
X129400000Y-120600000D03*
%TD*%
D14*
%TO.N,GND*%
X125750000Y-125250000D03*
X160250000Y-112750000D03*
X174000000Y-112250000D03*
X143000000Y-80750000D03*
X143000000Y-77750000D03*
X147340000Y-117280000D03*
X161950000Y-97900000D03*
X150750000Y-91250000D03*
X126000000Y-78750000D03*
X138750000Y-126500000D03*
X158500000Y-121750000D03*
X167000000Y-95000000D03*
X137750000Y-96000000D03*
X159400000Y-78900000D03*
X151900000Y-103975000D03*
X150200000Y-110100000D03*
X142750000Y-117250000D03*
X126000000Y-81750000D03*
X163800000Y-101600000D03*
X156250000Y-91550000D03*
X167000000Y-129750000D03*
X160700000Y-101600000D03*
X152500000Y-91750000D03*
X146900000Y-115220000D03*
X136750000Y-96000000D03*
X144750000Y-129500000D03*
X125750000Y-124250000D03*
X132750000Y-130250000D03*
X129000000Y-67750000D03*
X150690000Y-90190000D03*
X169100000Y-105800000D03*
X137250000Y-113500000D03*
X174000000Y-102000000D03*
X143000000Y-82750000D03*
X141750000Y-125500000D03*
X145600000Y-92825000D03*
X133750000Y-92000000D03*
X139750000Y-126500000D03*
X126000000Y-69750000D03*
X171250000Y-88250000D03*
X138750000Y-128500000D03*
X150750000Y-92250000D03*
X138750000Y-129500000D03*
X149250000Y-123750000D03*
X155300000Y-81890000D03*
X162500000Y-95700000D03*
X174000000Y-105000000D03*
X156750000Y-129250000D03*
X174000000Y-124250000D03*
X171000000Y-68000000D03*
X143750000Y-125500000D03*
X154750000Y-127250000D03*
X127750000Y-130250000D03*
X168600000Y-102700000D03*
X128750000Y-130250000D03*
X133750000Y-93000000D03*
X158750000Y-93000000D03*
X174000000Y-104000000D03*
X126000000Y-74750000D03*
X125500000Y-106750000D03*
X151875000Y-105325000D03*
X166000000Y-129750000D03*
X140000000Y-67750000D03*
X138750000Y-125500000D03*
X136750000Y-95000000D03*
X143000000Y-68750000D03*
X136250000Y-114500000D03*
X125750000Y-128250000D03*
X150525000Y-105400000D03*
X134000000Y-67750000D03*
X171000000Y-83000000D03*
X153250000Y-121500000D03*
X174000000Y-86000000D03*
X140750000Y-125500000D03*
X171000000Y-96000000D03*
X174000000Y-84000000D03*
X137750000Y-97000000D03*
X149694632Y-92905368D03*
X140500000Y-111500000D03*
X152750000Y-127250000D03*
X172000000Y-86750000D03*
X149200000Y-105300000D03*
X152500000Y-90250000D03*
X145850000Y-115930000D03*
X141750000Y-112250000D03*
X137000000Y-67750000D03*
X174000000Y-73000000D03*
X135750000Y-93000000D03*
X129750000Y-130250000D03*
X158750000Y-92250000D03*
X163000000Y-111250000D03*
X153150000Y-117860000D03*
X169700000Y-80800000D03*
X138750000Y-112250000D03*
X138750000Y-97000000D03*
X146250000Y-92300000D03*
X163150000Y-97100000D03*
X174000000Y-119250000D03*
X171000000Y-94000000D03*
X132750000Y-92000000D03*
X143000000Y-70750000D03*
X139500000Y-112250000D03*
X174000000Y-78000000D03*
X153100000Y-115200000D03*
X159400000Y-72700000D03*
X154180000Y-81890000D03*
X136000000Y-67750000D03*
X172000000Y-95000000D03*
X156250000Y-95500000D03*
X169000000Y-68000000D03*
X139750000Y-125500000D03*
X141750000Y-126500000D03*
X143000000Y-69750000D03*
X156250000Y-72250000D03*
X174000000Y-106250000D03*
X154750000Y-128250000D03*
X168000000Y-127750000D03*
X174000000Y-79000000D03*
X152500000Y-94250000D03*
X174000000Y-103000000D03*
X157400000Y-81900000D03*
X155120000Y-117830000D03*
X170000000Y-96000000D03*
X125500000Y-96500000D03*
X142750000Y-126500000D03*
X170000000Y-127750000D03*
X143750000Y-127500000D03*
X133500000Y-112250000D03*
X148200000Y-115240000D03*
X147200000Y-81800000D03*
X174000000Y-81000000D03*
X141000000Y-110000000D03*
X156400000Y-81900000D03*
X174000000Y-71000000D03*
X138750000Y-96000000D03*
X174000000Y-70000000D03*
X126000000Y-72750000D03*
X169000000Y-94000000D03*
X174000000Y-123250000D03*
X163500000Y-86750000D03*
X152750000Y-129250000D03*
X127000000Y-67750000D03*
X155250000Y-72250000D03*
X132000000Y-119000000D03*
X145750000Y-117250000D03*
X131500000Y-113750000D03*
X134750000Y-116000000D03*
X174000000Y-77000000D03*
X139750000Y-127500000D03*
X143000000Y-75750000D03*
X159550000Y-93350000D03*
X161800000Y-93350000D03*
X144750000Y-125500000D03*
X153750000Y-127250000D03*
X156250000Y-114000000D03*
X135750000Y-94000000D03*
X128000000Y-67750000D03*
X160000000Y-95700000D03*
X169000000Y-129750000D03*
X169000000Y-96000000D03*
X139000000Y-67750000D03*
X168000000Y-96000000D03*
X174000000Y-109250000D03*
X149250000Y-123000000D03*
X141750000Y-127500000D03*
X153100000Y-81800000D03*
X174000000Y-82000000D03*
X152750000Y-128250000D03*
X144750000Y-128500000D03*
X132750000Y-91000000D03*
X141750000Y-109500000D03*
X169000000Y-127750000D03*
X126000000Y-73750000D03*
X170000000Y-121750000D03*
X174000000Y-118250000D03*
X154750000Y-129250000D03*
X155250000Y-90750000D03*
X134750000Y-130250000D03*
X168000000Y-94000000D03*
X162750000Y-97750000D03*
X163000000Y-68000000D03*
X135750000Y-95000000D03*
X126000000Y-75750000D03*
X126000000Y-67750000D03*
X125750000Y-127250000D03*
X174000000Y-110250000D03*
X174000000Y-108250000D03*
X152000000Y-121000000D03*
X135750000Y-130250000D03*
X125750000Y-130250000D03*
X167170000Y-120310000D03*
X174000000Y-101000000D03*
X143000000Y-81750000D03*
X126000000Y-84750000D03*
X133750000Y-91000000D03*
X172000000Y-68000000D03*
X143000000Y-79750000D03*
X174000000Y-88000000D03*
X168000000Y-68000000D03*
X147160000Y-84700000D03*
X133140000Y-102290000D03*
X143000000Y-67750000D03*
X162000000Y-68000000D03*
X141000000Y-67750000D03*
X168000000Y-128750000D03*
X125750000Y-126250000D03*
X174000000Y-121250000D03*
X168000000Y-95000000D03*
X140750000Y-126500000D03*
X141000000Y-112250000D03*
X170000000Y-95000000D03*
X133750000Y-130250000D03*
X139750000Y-97000000D03*
X153100000Y-116500000D03*
X150750000Y-121000000D03*
X133500000Y-117500000D03*
X170000000Y-94000000D03*
X131750000Y-130250000D03*
X167750000Y-83750000D03*
X174000000Y-74000000D03*
X155620000Y-95470000D03*
X174000000Y-96000000D03*
X153000000Y-119250000D03*
X136750000Y-130250000D03*
X156750000Y-127250000D03*
X148200000Y-116240000D03*
X160580000Y-116760000D03*
X159500000Y-115500000D03*
X157000000Y-78900000D03*
X141250000Y-111500000D03*
X150750000Y-89250000D03*
X141250000Y-110750000D03*
X126750000Y-130250000D03*
X143000000Y-78750000D03*
X155250000Y-93750000D03*
X163100000Y-96450000D03*
X157300000Y-108750000D03*
X144750000Y-126500000D03*
X153750000Y-128250000D03*
X156900000Y-68600000D03*
X137750000Y-95000000D03*
X174000000Y-126250000D03*
X156750000Y-128250000D03*
X174000000Y-111250000D03*
X126000000Y-71750000D03*
X167000000Y-94000000D03*
X168000000Y-129750000D03*
X170000000Y-128750000D03*
X162040000Y-115270000D03*
X166100000Y-80800000D03*
X147010000Y-116240000D03*
X161750000Y-110000000D03*
X157500000Y-91500000D03*
X173000000Y-68000000D03*
X174000000Y-76000000D03*
X138440000Y-102500000D03*
X170000000Y-68000000D03*
X151900000Y-110100000D03*
X157500000Y-121750000D03*
X172000000Y-94000000D03*
X172000000Y-121750000D03*
X174000000Y-94000000D03*
X157461500Y-94998999D03*
X174000000Y-68000000D03*
X159550000Y-106650000D03*
X161750000Y-95700000D03*
X147500000Y-113000000D03*
X126000000Y-83750000D03*
X174000000Y-116250000D03*
X135000000Y-67750000D03*
X155150000Y-96850000D03*
X174000000Y-75000000D03*
X157625000Y-107185000D03*
X174000000Y-113250000D03*
X155500000Y-114750000D03*
X126000000Y-80750000D03*
X174000000Y-120250000D03*
X142750000Y-127500000D03*
X174000000Y-83000000D03*
X149750000Y-88000000D03*
X155750000Y-127250000D03*
X160750000Y-114000000D03*
X131750000Y-91000000D03*
X174000000Y-99000000D03*
X160750000Y-95700000D03*
X157750000Y-114250000D03*
X158800000Y-97800000D03*
X157000000Y-95500000D03*
X155250000Y-90000000D03*
X145010000Y-109060000D03*
X137250000Y-108500000D03*
X170000000Y-129750000D03*
X152500000Y-92750000D03*
X162500000Y-107850000D03*
X142750000Y-125500000D03*
X172000000Y-96000000D03*
X174000000Y-107250000D03*
X150525000Y-102600000D03*
X133000000Y-67750000D03*
X170500000Y-117750000D03*
X174000000Y-115250000D03*
X174000000Y-87000000D03*
X163250000Y-95250000D03*
X144525000Y-92675000D03*
X136000000Y-109750000D03*
X145430000Y-112190000D03*
X166500000Y-113000000D03*
X126000000Y-82750000D03*
X130750000Y-130250000D03*
X174000000Y-97000000D03*
X125500000Y-104250000D03*
X159500000Y-68500000D03*
X131000000Y-67750000D03*
X149200000Y-103975000D03*
X126000000Y-79750000D03*
X137750000Y-130250000D03*
X139500000Y-111500000D03*
X138750000Y-127500000D03*
X143750000Y-126500000D03*
X160000000Y-109350000D03*
X155750000Y-128250000D03*
X138000000Y-67750000D03*
X174000000Y-90000000D03*
X174000000Y-85000000D03*
X167000000Y-128750000D03*
X143000000Y-74750000D03*
X148590000Y-117280000D03*
X174000000Y-117250000D03*
X134750000Y-93000000D03*
X136750000Y-94000000D03*
X160300000Y-93350000D03*
X153750000Y-129250000D03*
X157461500Y-94250000D03*
X140250000Y-112250000D03*
X148700000Y-81800000D03*
X174000000Y-89000000D03*
X144750000Y-127500000D03*
X167000000Y-127750000D03*
X126000000Y-85750000D03*
X125750000Y-123250000D03*
X140250000Y-110750000D03*
X174000000Y-80000000D03*
X162500000Y-93350000D03*
X169000000Y-128750000D03*
X125750000Y-129250000D03*
X126000000Y-77750000D03*
X155250000Y-111350000D03*
X165750000Y-121770000D03*
X174000000Y-98000000D03*
X155000000Y-120500000D03*
X126000000Y-68750000D03*
X174000000Y-72000000D03*
X142800000Y-97825000D03*
X130000000Y-67750000D03*
X140750000Y-127500000D03*
X171000000Y-95000000D03*
X165375000Y-101600000D03*
X174000000Y-69000000D03*
X174000000Y-91000000D03*
X143000000Y-71750000D03*
X149800000Y-81800000D03*
X167750000Y-86750000D03*
X174000000Y-93000000D03*
X174000000Y-100000000D03*
X142000000Y-67750000D03*
X149250000Y-121000000D03*
X166000000Y-127750000D03*
X125500000Y-94000000D03*
X162200000Y-101600000D03*
X143000000Y-76750000D03*
X143000000Y-72750000D03*
X174000000Y-92000000D03*
X155500000Y-89000000D03*
X171000000Y-121750000D03*
X166000000Y-68000000D03*
X150000000Y-121000000D03*
X174000000Y-125250000D03*
X126000000Y-76750000D03*
X149175000Y-102625000D03*
X156500000Y-121750000D03*
X174000000Y-95000000D03*
X134750000Y-92000000D03*
X174000000Y-122250000D03*
X169000000Y-95000000D03*
X155250000Y-119250000D03*
X155750000Y-129250000D03*
X155500000Y-114000000D03*
X132000000Y-67750000D03*
X164000000Y-68000000D03*
X150900000Y-81800000D03*
X132170000Y-98880000D03*
X166000000Y-128750000D03*
X167750000Y-110250000D03*
X155250000Y-91500000D03*
X165000000Y-68000000D03*
X154250000Y-72250000D03*
X126000000Y-70750000D03*
X154210000Y-84550000D03*
X152000000Y-81800000D03*
X174000000Y-114250000D03*
X167000000Y-68000000D03*
X161050000Y-93350000D03*
X134750000Y-111000000D03*
X134750000Y-94000000D03*
X163100000Y-93700000D03*
X152500000Y-89250000D03*
X167000000Y-96000000D03*
X166500000Y-116750000D03*
X143000000Y-73750000D03*
X151900000Y-102600000D03*
%TO.N,+3V3*%
X156300000Y-93720000D03*
X146135000Y-95525000D03*
X159410000Y-86720000D03*
X136750000Y-120250000D03*
X141940000Y-102320000D03*
X155250000Y-110230000D03*
X140540000Y-91600000D03*
X156530000Y-105510000D03*
X165700000Y-107500000D03*
X142900000Y-109700000D03*
X147990000Y-86610000D03*
X166950000Y-102240000D03*
X152420000Y-84740000D03*
X143700000Y-107500000D03*
X162915000Y-106395000D03*
X157640000Y-88320000D03*
X152510000Y-87300000D03*
X136750000Y-119500000D03*
X149470000Y-98310000D03*
X156340000Y-99700000D03*
%TO.N,+1V2*%
X150700000Y-98300000D03*
X160200000Y-98000000D03*
X144275000Y-111800000D03*
%TO.N,Net-(JP2-B)*%
X146500000Y-97500000D03*
X148500000Y-97600000D03*
X142600000Y-92900000D03*
%TO.N,VDDO_FLASH*%
X151775000Y-112560000D03*
X163780000Y-103290000D03*
X142500000Y-115000000D03*
%TO.N,VDDO_PSRAM*%
X162225000Y-103250000D03*
X158320000Y-105260000D03*
X159000000Y-107870000D03*
%TO.N,GPIO35{slash}BOOT*%
X157559938Y-105600062D03*
X165110000Y-105500000D03*
%TO.N,CHIP_PU*%
X145750000Y-98075000D03*
X166180000Y-84535000D03*
X162250000Y-99750000D03*
%TO.N,+5V*%
X171175000Y-126150000D03*
X158000000Y-125750000D03*
X152750000Y-125500000D03*
X166250000Y-125750000D03*
%TO.N,Net-(JP1-A)*%
X141250000Y-120239000D03*
%TO.N,GPIO38{slash}U0RXD*%
X164890000Y-104730000D03*
X157630000Y-103590000D03*
%TO.N,GPIO25*%
X156970000Y-111970000D03*
X156100000Y-109200000D03*
%TO.N,GPIO37{slash}U0TXD*%
X158720000Y-104090000D03*
X165500000Y-104000000D03*
%TO.N,GPIO40*%
X155900000Y-86600000D03*
X154600000Y-86600000D03*
%TO.N,GPIO45*%
X151000000Y-85300000D03*
X157300000Y-84800000D03*
%TO.N,GPIO41*%
X148675000Y-84700000D03*
X153950000Y-87550000D03*
%TO.N,GPIO24*%
X156509341Y-112831000D03*
X156400000Y-110000000D03*
%TO.N,FLASH_CK*%
X148696687Y-112603313D03*
X150000000Y-115600000D03*
%TO.N,FLASH_HD*%
X150000000Y-114700000D03*
X147800000Y-110000000D03*
%TO.N,EN_DCDC*%
X156900000Y-97800000D03*
X155300000Y-98110000D03*
%TO.N,FLASH_D*%
X149000000Y-111600000D03*
X149900000Y-116600000D03*
%TO.N,GPIO42*%
X153650000Y-86350000D03*
X149775000Y-84800000D03*
%TD*%
D15*
%TO.N,GND*%
X145010000Y-111770000D02*
X145430000Y-112190000D01*
X145010000Y-109060000D02*
X145010000Y-111770000D01*
D16*
%TO.N,+3V3*%
X142900000Y-109700000D02*
X142900000Y-108300000D01*
X142900000Y-108300000D02*
X143700000Y-107500000D01*
%TO.N,Net-(JP2-B)*%
X146500000Y-96800000D02*
X146500000Y-97500000D01*
X142600000Y-92900000D02*
X146500000Y-96800000D01*
X148400000Y-97500000D02*
X148500000Y-97600000D01*
X146500000Y-97500000D02*
X148400000Y-97500000D01*
D17*
%TO.N,GPIO35{slash}BOOT*%
X159050000Y-105830000D02*
X159380000Y-105500000D01*
X157559938Y-105600062D02*
X157699876Y-105740000D01*
X159380000Y-105500000D02*
X165110000Y-105500000D01*
X157710000Y-105740000D02*
X157800000Y-105830000D01*
X157800000Y-105830000D02*
X159050000Y-105830000D01*
X157699876Y-105740000D02*
X157710000Y-105740000D01*
%TO.N,CHIP_PU*%
X145750000Y-98075000D02*
X145815000Y-98075000D01*
X147939000Y-97808000D02*
X147939000Y-97832374D01*
X147939000Y-97832374D02*
X148267626Y-98161000D01*
X146732374Y-98061000D02*
X146985374Y-97808000D01*
X146985374Y-97808000D02*
X147939000Y-97808000D01*
X156906626Y-97000000D02*
X160250000Y-97000000D01*
X156406626Y-97500000D02*
X156906626Y-97000000D01*
X149393374Y-97500000D02*
X156406626Y-97500000D01*
X148267626Y-98161000D02*
X148732374Y-98161000D01*
X160250000Y-97000000D02*
X162250000Y-99000000D01*
X162250000Y-99000000D02*
X162250000Y-99750000D01*
X166180000Y-95820000D02*
X162120000Y-99880000D01*
X145750000Y-98075000D02*
X145764000Y-98061000D01*
X166180000Y-84535000D02*
X166180000Y-95820000D01*
X148732374Y-98161000D02*
X149393374Y-97500000D01*
X145764000Y-98061000D02*
X146732374Y-98061000D01*
%TO.N,GPIO38{slash}U0RXD*%
X157860000Y-103590000D02*
X157630000Y-103590000D01*
X164870000Y-104750000D02*
X159020000Y-104750000D01*
X158921000Y-104651000D02*
X158487626Y-104651000D01*
X158159000Y-104322374D02*
X158159000Y-103889000D01*
X164890000Y-104730000D02*
X164870000Y-104750000D01*
X158159000Y-103889000D02*
X157860000Y-103590000D01*
X159020000Y-104750000D02*
X158921000Y-104651000D01*
X158487626Y-104651000D02*
X158159000Y-104322374D01*
D16*
%TO.N,GPIO25*%
X156970000Y-110251659D02*
X156981000Y-110240659D01*
X156970000Y-111970000D02*
X156970000Y-110251659D01*
X156930000Y-111970000D02*
X156970000Y-111970000D01*
X156981000Y-110240659D02*
X156981000Y-109759341D01*
X156970000Y-111970000D02*
X156970000Y-112030000D01*
X156981000Y-109759341D02*
X156421660Y-109200000D01*
X156421660Y-109200000D02*
X156100000Y-109200000D01*
D17*
%TO.N,GPIO37{slash}U0TXD*%
X163850001Y-104149999D02*
X164000000Y-104000000D01*
X158779999Y-104149999D02*
X163850001Y-104149999D01*
X158720000Y-104090000D02*
X158779999Y-104149999D01*
X164000000Y-104000000D02*
X165500000Y-104000000D01*
%TO.N,GPIO40*%
X154600000Y-86600000D02*
X155900000Y-86600000D01*
%TO.N,GPIO45*%
X156800000Y-85300000D02*
X157300000Y-84800000D01*
X151000000Y-85300000D02*
X156800000Y-85300000D01*
%TO.N,GPIO41*%
X153000000Y-86600000D02*
X153950000Y-87550000D01*
X150100000Y-86600000D02*
X153000000Y-86600000D01*
X148675000Y-84700000D02*
X148675000Y-85175000D01*
X148675000Y-85175000D02*
X150100000Y-86600000D01*
D16*
%TO.N,GPIO24*%
X156509341Y-112471001D02*
X156319170Y-112280830D01*
X156319170Y-111880830D02*
X156400000Y-111800000D01*
X156400000Y-111800000D02*
X156400000Y-110000000D01*
X156509341Y-112831000D02*
X156509341Y-112471001D01*
X156509341Y-112831000D02*
X156392660Y-112831000D01*
X156319170Y-112280830D02*
X156319170Y-111880830D01*
D17*
%TO.N,FLASH_CK*%
X150561001Y-114467627D02*
X150561001Y-115038999D01*
X148696687Y-112603313D02*
X150561001Y-114467627D01*
X150561001Y-115038999D02*
X150000000Y-115600000D01*
%TO.N,FLASH_HD*%
X147600000Y-112300000D02*
X150000000Y-114700000D01*
X147600000Y-110200000D02*
X147600000Y-112300000D01*
X147800000Y-110000000D02*
X147600000Y-110200000D01*
%TO.N,EN_DCDC*%
X156300000Y-98400000D02*
X156900000Y-97800000D01*
X155590000Y-98400000D02*
X156300000Y-98400000D01*
X155300000Y-98110000D02*
X155590000Y-98400000D01*
%TO.N,FLASH_D*%
X149000000Y-112100000D02*
X150849001Y-113949001D01*
X149000000Y-111600000D02*
X149000000Y-112100000D01*
X150849001Y-113949001D02*
X150849001Y-115650999D01*
X150849001Y-115650999D02*
X149900000Y-116600000D01*
%TO.N,GPIO42*%
X150700000Y-86200000D02*
X153500000Y-86200000D01*
X149775000Y-85275000D02*
X150700000Y-86200000D01*
X153500000Y-86200000D02*
X153650000Y-86350000D01*
X149775000Y-84800000D02*
X149775000Y-85275000D01*
%TD*%
%TA.AperFunction,Conductor*%
%TO.N,GND*%
G36*
X174971280Y-66518982D02*
G01*
X174998300Y-66565782D01*
X174999500Y-66579500D01*
X174999500Y-131560500D01*
X174981018Y-131611280D01*
X174934218Y-131638300D01*
X174920500Y-131639500D01*
X125079500Y-131639500D01*
X125028720Y-131621018D01*
X125001700Y-131574218D01*
X125000500Y-131560500D01*
X125000500Y-128003831D01*
X149902300Y-128003831D01*
X149902300Y-128252700D01*
X150352300Y-128252700D01*
X150352300Y-128502700D01*
X149902300Y-128502700D01*
X149902300Y-128751568D01*
X149931122Y-128896468D01*
X149987658Y-129032955D01*
X149987659Y-129032958D01*
X150069735Y-129155795D01*
X150069741Y-129155802D01*
X150174197Y-129260258D01*
X150174204Y-129260264D01*
X150297041Y-129342340D01*
X150297044Y-129342341D01*
X150433529Y-129398876D01*
X150433531Y-129398877D01*
X150527299Y-129417528D01*
X150527300Y-129417528D01*
X150527300Y-128951942D01*
X150536504Y-128957256D01*
X150612804Y-128977700D01*
X150691796Y-128977700D01*
X150768096Y-128957256D01*
X150777300Y-128951942D01*
X150777300Y-129417528D01*
X150871068Y-129398877D01*
X150871070Y-129398876D01*
X151007555Y-129342341D01*
X151007558Y-129342340D01*
X151130395Y-129260264D01*
X151130402Y-129260258D01*
X151234858Y-129155802D01*
X151234864Y-129155795D01*
X151316940Y-129032958D01*
X151316941Y-129032955D01*
X151373477Y-128896468D01*
X151402300Y-128751568D01*
X151402300Y-128502700D01*
X150952300Y-128502700D01*
X150952300Y-128252700D01*
X151402300Y-128252700D01*
X151402300Y-128003831D01*
X158542300Y-128003831D01*
X158542300Y-128252700D01*
X158992300Y-128252700D01*
X158992300Y-128502700D01*
X158542300Y-128502700D01*
X158542300Y-128751568D01*
X158571122Y-128896468D01*
X158627658Y-129032955D01*
X158627659Y-129032958D01*
X158709735Y-129155795D01*
X158709741Y-129155802D01*
X158814197Y-129260258D01*
X158814204Y-129260264D01*
X158937041Y-129342340D01*
X158937044Y-129342341D01*
X159073529Y-129398876D01*
X159073531Y-129398877D01*
X159167299Y-129417528D01*
X159167300Y-129417528D01*
X159167300Y-128951942D01*
X159176504Y-128957256D01*
X159252804Y-128977700D01*
X159331796Y-128977700D01*
X159408096Y-128957256D01*
X159417300Y-128951942D01*
X159417300Y-129417528D01*
X159511068Y-129398877D01*
X159511070Y-129398876D01*
X159647555Y-129342341D01*
X159647558Y-129342340D01*
X159770395Y-129260264D01*
X159770402Y-129260258D01*
X159874858Y-129155802D01*
X159874864Y-129155795D01*
X159956940Y-129032958D01*
X159956941Y-129032955D01*
X160013477Y-128896468D01*
X160042300Y-128751568D01*
X160042300Y-128502700D01*
X159592300Y-128502700D01*
X159592300Y-128252700D01*
X160042300Y-128252700D01*
X160042300Y-128036131D01*
X163130000Y-128036131D01*
X163130000Y-128285000D01*
X163580000Y-128285000D01*
X163580000Y-128535000D01*
X163130000Y-128535000D01*
X163130000Y-128783868D01*
X163158822Y-128928768D01*
X163215358Y-129065255D01*
X163215359Y-129065258D01*
X163297435Y-129188095D01*
X163297441Y-129188102D01*
X163401897Y-129292558D01*
X163401904Y-129292564D01*
X163524741Y-129374640D01*
X163524744Y-129374641D01*
X163661229Y-129431176D01*
X163661231Y-129431177D01*
X163754999Y-129449828D01*
X163755000Y-129449828D01*
X163755000Y-128984242D01*
X163764204Y-128989556D01*
X163840504Y-129010000D01*
X163919496Y-129010000D01*
X163995796Y-128989556D01*
X164005000Y-128984242D01*
X164005000Y-129449828D01*
X164098768Y-129431177D01*
X164098770Y-129431176D01*
X164235255Y-129374641D01*
X164235258Y-129374640D01*
X164358095Y-129292564D01*
X164358102Y-129292558D01*
X164462558Y-129188102D01*
X164462564Y-129188095D01*
X164544640Y-129065258D01*
X164544641Y-129065255D01*
X164601177Y-128928768D01*
X164630000Y-128783868D01*
X164630000Y-128535000D01*
X164180000Y-128535000D01*
X164180000Y-128285000D01*
X164630000Y-128285000D01*
X164630000Y-128036131D01*
X171770000Y-128036131D01*
X171770000Y-128285000D01*
X172220000Y-128285000D01*
X172220000Y-128535000D01*
X171770000Y-128535000D01*
X171770000Y-128783868D01*
X171798822Y-128928768D01*
X171855358Y-129065255D01*
X171855359Y-129065258D01*
X171937435Y-129188095D01*
X171937441Y-129188102D01*
X172041897Y-129292558D01*
X172041904Y-129292564D01*
X172164741Y-129374640D01*
X172164744Y-129374641D01*
X172301229Y-129431176D01*
X172301231Y-129431177D01*
X172394999Y-129449828D01*
X172395000Y-129449828D01*
X172395000Y-128984242D01*
X172404204Y-128989556D01*
X172480504Y-129010000D01*
X172559496Y-129010000D01*
X172635796Y-128989556D01*
X172645000Y-128984242D01*
X172645000Y-129449828D01*
X172738768Y-129431177D01*
X172738770Y-129431176D01*
X172875255Y-129374641D01*
X172875258Y-129374640D01*
X172998095Y-129292564D01*
X172998102Y-129292558D01*
X173102558Y-129188102D01*
X173102564Y-129188095D01*
X173184640Y-129065258D01*
X173184641Y-129065255D01*
X173241177Y-128928768D01*
X173270000Y-128783868D01*
X173270000Y-128535000D01*
X172820000Y-128535000D01*
X172820000Y-128285000D01*
X173270000Y-128285000D01*
X173270000Y-128036131D01*
X173241177Y-127891231D01*
X173184641Y-127754744D01*
X173184640Y-127754741D01*
X173102564Y-127631904D01*
X173102558Y-127631897D01*
X172998102Y-127527441D01*
X172998095Y-127527435D01*
X172875258Y-127445359D01*
X172875255Y-127445358D01*
X172738768Y-127388822D01*
X172738770Y-127388822D01*
X172645000Y-127370169D01*
X172645000Y-127835757D01*
X172635796Y-127830444D01*
X172559496Y-127810000D01*
X172480504Y-127810000D01*
X172404204Y-127830444D01*
X172395000Y-127835757D01*
X172395000Y-127370169D01*
X172301230Y-127388822D01*
X172164744Y-127445358D01*
X172164741Y-127445359D01*
X172041904Y-127527435D01*
X172041897Y-127527441D01*
X171937441Y-127631897D01*
X171937435Y-127631904D01*
X171855359Y-127754741D01*
X171855358Y-127754744D01*
X171798822Y-127891231D01*
X171770000Y-128036131D01*
X164630000Y-128036131D01*
X164601177Y-127891231D01*
X164544641Y-127754744D01*
X164544640Y-127754741D01*
X164462564Y-127631904D01*
X164462558Y-127631897D01*
X164358102Y-127527441D01*
X164358095Y-127527435D01*
X164235258Y-127445359D01*
X164235255Y-127445358D01*
X164098768Y-127388822D01*
X164098770Y-127388822D01*
X164005000Y-127370169D01*
X164005000Y-127835757D01*
X163995796Y-127830444D01*
X163919496Y-127810000D01*
X163840504Y-127810000D01*
X163764204Y-127830444D01*
X163755000Y-127835757D01*
X163755000Y-127370169D01*
X163661230Y-127388822D01*
X163524744Y-127445358D01*
X163524741Y-127445359D01*
X163401904Y-127527435D01*
X163401897Y-127527441D01*
X163297441Y-127631897D01*
X163297435Y-127631904D01*
X163215359Y-127754741D01*
X163215358Y-127754744D01*
X163158822Y-127891231D01*
X163130000Y-128036131D01*
X160042300Y-128036131D01*
X160042300Y-128003831D01*
X160013477Y-127858931D01*
X159956941Y-127722444D01*
X159956940Y-127722441D01*
X159874864Y-127599604D01*
X159874858Y-127599597D01*
X159770402Y-127495141D01*
X159770395Y-127495135D01*
X159647558Y-127413059D01*
X159647555Y-127413058D01*
X159511068Y-127356522D01*
X159511070Y-127356522D01*
X159417300Y-127337869D01*
X159417300Y-127803457D01*
X159408096Y-127798144D01*
X159331796Y-127777700D01*
X159252804Y-127777700D01*
X159176504Y-127798144D01*
X159167300Y-127803457D01*
X159167300Y-127337869D01*
X159073530Y-127356522D01*
X158937044Y-127413058D01*
X158937041Y-127413059D01*
X158814204Y-127495135D01*
X158814197Y-127495141D01*
X158709741Y-127599597D01*
X158709735Y-127599604D01*
X158627659Y-127722441D01*
X158627658Y-127722444D01*
X158571122Y-127858931D01*
X158542300Y-128003831D01*
X151402300Y-128003831D01*
X151373477Y-127858931D01*
X151316941Y-127722444D01*
X151316940Y-127722441D01*
X151234864Y-127599604D01*
X151234858Y-127599597D01*
X151130402Y-127495141D01*
X151130395Y-127495135D01*
X151007558Y-127413059D01*
X151007555Y-127413058D01*
X150871068Y-127356522D01*
X150871070Y-127356522D01*
X150777300Y-127337869D01*
X150777300Y-127803457D01*
X150768096Y-127798144D01*
X150691796Y-127777700D01*
X150612804Y-127777700D01*
X150536504Y-127798144D01*
X150527300Y-127803457D01*
X150527300Y-127337869D01*
X150433530Y-127356522D01*
X150297044Y-127413058D01*
X150297041Y-127413059D01*
X150174204Y-127495135D01*
X150174197Y-127495141D01*
X150069741Y-127599597D01*
X150069735Y-127599604D01*
X149987659Y-127722441D01*
X149987658Y-127722444D01*
X149931122Y-127858931D01*
X149902300Y-128003831D01*
X125000500Y-128003831D01*
X125000500Y-123573831D01*
X149902300Y-123573831D01*
X149902300Y-124072700D01*
X150352300Y-124072700D01*
X150352300Y-124322700D01*
X149902300Y-124322700D01*
X149902300Y-124821568D01*
X149931122Y-124966468D01*
X149987658Y-125102955D01*
X149987659Y-125102958D01*
X150069735Y-125225795D01*
X150069741Y-125225802D01*
X150174197Y-125330258D01*
X150174204Y-125330264D01*
X150297041Y-125412340D01*
X150297044Y-125412341D01*
X150433529Y-125468876D01*
X150433531Y-125468877D01*
X150527299Y-125487528D01*
X150527300Y-125487528D01*
X150527300Y-125021942D01*
X150536504Y-125027256D01*
X150612804Y-125047700D01*
X150691796Y-125047700D01*
X150768096Y-125027256D01*
X150777300Y-125021942D01*
X150777300Y-125487528D01*
X150871068Y-125468877D01*
X150871070Y-125468876D01*
X150955013Y-125434105D01*
X152249500Y-125434105D01*
X152249500Y-125565894D01*
X152283607Y-125693183D01*
X152283608Y-125693187D01*
X152349501Y-125807316D01*
X152442683Y-125900498D01*
X152442685Y-125900499D01*
X152442686Y-125900500D01*
X152556814Y-125966392D01*
X152684108Y-126000500D01*
X152684110Y-126000500D01*
X152815890Y-126000500D01*
X152815892Y-126000500D01*
X152943186Y-125966392D01*
X153057314Y-125900500D01*
X153150500Y-125807314D01*
X153216392Y-125693186D01*
X153218825Y-125684105D01*
X157499500Y-125684105D01*
X157499500Y-125815894D01*
X157533607Y-125943183D01*
X157533608Y-125943187D01*
X157599501Y-126057316D01*
X157692683Y-126150498D01*
X157692685Y-126150499D01*
X157692686Y-126150500D01*
X157806814Y-126216392D01*
X157934108Y-126250500D01*
X157934110Y-126250500D01*
X158065890Y-126250500D01*
X158065892Y-126250500D01*
X158193186Y-126216392D01*
X158307314Y-126150500D01*
X158400500Y-126057314D01*
X158466392Y-125943186D01*
X158500500Y-125815892D01*
X158500500Y-125684108D01*
X158500499Y-125684105D01*
X165749500Y-125684105D01*
X165749500Y-125815894D01*
X165783607Y-125943183D01*
X165783608Y-125943187D01*
X165849501Y-126057316D01*
X165942683Y-126150498D01*
X165942685Y-126150499D01*
X165942686Y-126150500D01*
X166056814Y-126216392D01*
X166184108Y-126250500D01*
X166184110Y-126250500D01*
X166315890Y-126250500D01*
X166315892Y-126250500D01*
X166443186Y-126216392D01*
X166557314Y-126150500D01*
X166623709Y-126084105D01*
X170674500Y-126084105D01*
X170674500Y-126215894D01*
X170708607Y-126343183D01*
X170708608Y-126343187D01*
X170774501Y-126457316D01*
X170867683Y-126550498D01*
X170867685Y-126550499D01*
X170867686Y-126550500D01*
X170981814Y-126616392D01*
X171109108Y-126650500D01*
X171109110Y-126650500D01*
X171240890Y-126650500D01*
X171240892Y-126650500D01*
X171368186Y-126616392D01*
X171482314Y-126550500D01*
X171575500Y-126457314D01*
X171641392Y-126343186D01*
X171675500Y-126215892D01*
X171675500Y-126084108D01*
X171641392Y-125956814D01*
X171633524Y-125943187D01*
X171575498Y-125842683D01*
X171482316Y-125749501D01*
X171368187Y-125683608D01*
X171368183Y-125683607D01*
X171240894Y-125649500D01*
X171240892Y-125649500D01*
X171109108Y-125649500D01*
X171109105Y-125649500D01*
X170981816Y-125683607D01*
X170981812Y-125683608D01*
X170867683Y-125749501D01*
X170774501Y-125842683D01*
X170708608Y-125956812D01*
X170708607Y-125956816D01*
X170674500Y-126084105D01*
X166623709Y-126084105D01*
X166650500Y-126057314D01*
X166716392Y-125943186D01*
X166750500Y-125815892D01*
X166750500Y-125684108D01*
X166716392Y-125556814D01*
X166650500Y-125442686D01*
X166650499Y-125442685D01*
X166650498Y-125442683D01*
X166557316Y-125349501D01*
X166443187Y-125283608D01*
X166443183Y-125283607D01*
X166315894Y-125249500D01*
X166315892Y-125249500D01*
X166184108Y-125249500D01*
X166184105Y-125249500D01*
X166056816Y-125283607D01*
X166056812Y-125283608D01*
X165942683Y-125349501D01*
X165849501Y-125442683D01*
X165783608Y-125556812D01*
X165783607Y-125556816D01*
X165749500Y-125684105D01*
X158500499Y-125684105D01*
X158466392Y-125556814D01*
X158400500Y-125442686D01*
X158400499Y-125442685D01*
X158400498Y-125442683D01*
X158307316Y-125349501D01*
X158193187Y-125283608D01*
X158193183Y-125283607D01*
X158065894Y-125249500D01*
X158065892Y-125249500D01*
X157934108Y-125249500D01*
X157934105Y-125249500D01*
X157806816Y-125283607D01*
X157806812Y-125283608D01*
X157692683Y-125349501D01*
X157599501Y-125442683D01*
X157533608Y-125556812D01*
X157533607Y-125556816D01*
X157499500Y-125684105D01*
X153218825Y-125684105D01*
X153250500Y-125565892D01*
X153250500Y-125434108D01*
X153216392Y-125306814D01*
X153150500Y-125192686D01*
X153150499Y-125192685D01*
X153150498Y-125192683D01*
X153057316Y-125099501D01*
X152943187Y-125033608D01*
X152943183Y-125033607D01*
X152815894Y-124999500D01*
X152815892Y-124999500D01*
X152684108Y-124999500D01*
X152684105Y-124999500D01*
X152556816Y-125033607D01*
X152556812Y-125033608D01*
X152442683Y-125099501D01*
X152349501Y-125192683D01*
X152283608Y-125306812D01*
X152283607Y-125306816D01*
X152249500Y-125434105D01*
X150955013Y-125434105D01*
X151007555Y-125412341D01*
X151007558Y-125412340D01*
X151081037Y-125363244D01*
X151130395Y-125330263D01*
X151130402Y-125330258D01*
X151234858Y-125225802D01*
X151234864Y-125225795D01*
X151316940Y-125102958D01*
X151316941Y-125102955D01*
X151373477Y-124966468D01*
X151402300Y-124821568D01*
X151402300Y-124684844D01*
X151756800Y-124684844D01*
X151756800Y-124770555D01*
X151778981Y-124853335D01*
X151778982Y-124853339D01*
X151821836Y-124927564D01*
X151882435Y-124988163D01*
X151938383Y-125020465D01*
X151956662Y-125031018D01*
X152039447Y-125053200D01*
X152039449Y-125053200D01*
X152125151Y-125053200D01*
X152125153Y-125053200D01*
X152207938Y-125031018D01*
X152282162Y-124988165D01*
X152342765Y-124927562D01*
X152385618Y-124853338D01*
X152407800Y-124770553D01*
X152407800Y-124684847D01*
X152407799Y-124684844D01*
X157536800Y-124684844D01*
X157536800Y-124770555D01*
X157558981Y-124853335D01*
X157558982Y-124853339D01*
X157601836Y-124927564D01*
X157662435Y-124988163D01*
X157718383Y-125020465D01*
X157736662Y-125031018D01*
X157819447Y-125053200D01*
X157819449Y-125053200D01*
X157905151Y-125053200D01*
X157905153Y-125053200D01*
X157987938Y-125031018D01*
X158062162Y-124988165D01*
X158122765Y-124927562D01*
X158165618Y-124853338D01*
X158187800Y-124770553D01*
X158187800Y-124684847D01*
X158165618Y-124602062D01*
X158122765Y-124527838D01*
X158122764Y-124527837D01*
X158122763Y-124527835D01*
X158062164Y-124467236D01*
X157987939Y-124424382D01*
X157987935Y-124424381D01*
X157905155Y-124402200D01*
X157905153Y-124402200D01*
X157819447Y-124402200D01*
X157819444Y-124402200D01*
X157736664Y-124424381D01*
X157736660Y-124424382D01*
X157662435Y-124467236D01*
X157601836Y-124527835D01*
X157558982Y-124602060D01*
X157558981Y-124602064D01*
X157536800Y-124684844D01*
X152407799Y-124684844D01*
X152385618Y-124602062D01*
X152342765Y-124527838D01*
X152342764Y-124527837D01*
X152342763Y-124527835D01*
X152282164Y-124467236D01*
X152207939Y-124424382D01*
X152207935Y-124424381D01*
X152125155Y-124402200D01*
X152125153Y-124402200D01*
X152039447Y-124402200D01*
X152039444Y-124402200D01*
X151956664Y-124424381D01*
X151956660Y-124424382D01*
X151882435Y-124467236D01*
X151821836Y-124527835D01*
X151778982Y-124602060D01*
X151778981Y-124602064D01*
X151756800Y-124684844D01*
X151402300Y-124684844D01*
X151402300Y-124322700D01*
X150952300Y-124322700D01*
X150952300Y-124072700D01*
X151402300Y-124072700D01*
X151402300Y-123573831D01*
X158542300Y-123573831D01*
X158542300Y-124072700D01*
X158992300Y-124072700D01*
X158992300Y-124322700D01*
X158542300Y-124322700D01*
X158542300Y-124821568D01*
X158571122Y-124966468D01*
X158627658Y-125102955D01*
X158627659Y-125102958D01*
X158709735Y-125225795D01*
X158709741Y-125225802D01*
X158814197Y-125330258D01*
X158814204Y-125330264D01*
X158937041Y-125412340D01*
X158937044Y-125412341D01*
X159073529Y-125468876D01*
X159073531Y-125468877D01*
X159167299Y-125487528D01*
X159167300Y-125487528D01*
X159167300Y-125021942D01*
X159176504Y-125027256D01*
X159252804Y-125047700D01*
X159331796Y-125047700D01*
X159408096Y-125027256D01*
X159417300Y-125021942D01*
X159417300Y-125487528D01*
X159511068Y-125468877D01*
X159511070Y-125468876D01*
X159647555Y-125412341D01*
X159647558Y-125412340D01*
X159770395Y-125330264D01*
X159770402Y-125330258D01*
X159874858Y-125225802D01*
X159874864Y-125225795D01*
X159956940Y-125102958D01*
X159956941Y-125102955D01*
X160013477Y-124966468D01*
X160042300Y-124821568D01*
X160042300Y-124322700D01*
X159592300Y-124322700D01*
X159592300Y-124072700D01*
X160042300Y-124072700D01*
X160042300Y-123606131D01*
X163130000Y-123606131D01*
X163130000Y-124105000D01*
X163580000Y-124105000D01*
X163580000Y-124355000D01*
X163130000Y-124355000D01*
X163130000Y-124853868D01*
X163158822Y-124998768D01*
X163215358Y-125135255D01*
X163215359Y-125135258D01*
X163297435Y-125258095D01*
X163297441Y-125258102D01*
X163401897Y-125362558D01*
X163401904Y-125362564D01*
X163524741Y-125444640D01*
X163524744Y-125444641D01*
X163661229Y-125501176D01*
X163661231Y-125501177D01*
X163754999Y-125519828D01*
X163755000Y-125519828D01*
X163755000Y-125054242D01*
X163764204Y-125059556D01*
X163840504Y-125080000D01*
X163919496Y-125080000D01*
X163995796Y-125059556D01*
X164005000Y-125054242D01*
X164005000Y-125519828D01*
X164098768Y-125501177D01*
X164098770Y-125501176D01*
X164235255Y-125444641D01*
X164235258Y-125444640D01*
X164358095Y-125362564D01*
X164358102Y-125362558D01*
X164462558Y-125258102D01*
X164462564Y-125258095D01*
X164544640Y-125135258D01*
X164544641Y-125135255D01*
X164601177Y-124998768D01*
X164630000Y-124853868D01*
X164630000Y-124717144D01*
X164984500Y-124717144D01*
X164984500Y-124802855D01*
X165006681Y-124885635D01*
X165006682Y-124885639D01*
X165049536Y-124959864D01*
X165110135Y-125020463D01*
X165110137Y-125020464D01*
X165110138Y-125020465D01*
X165184362Y-125063318D01*
X165267147Y-125085500D01*
X165267149Y-125085500D01*
X165352851Y-125085500D01*
X165352853Y-125085500D01*
X165435638Y-125063318D01*
X165509862Y-125020465D01*
X165570465Y-124959862D01*
X165613318Y-124885638D01*
X165635500Y-124802853D01*
X165635500Y-124717147D01*
X165635499Y-124717144D01*
X170764500Y-124717144D01*
X170764500Y-124802855D01*
X170786681Y-124885635D01*
X170786682Y-124885639D01*
X170829536Y-124959864D01*
X170890135Y-125020463D01*
X170890137Y-125020464D01*
X170890138Y-125020465D01*
X170964362Y-125063318D01*
X171047147Y-125085500D01*
X171047149Y-125085500D01*
X171132851Y-125085500D01*
X171132853Y-125085500D01*
X171215638Y-125063318D01*
X171289862Y-125020465D01*
X171350465Y-124959862D01*
X171393318Y-124885638D01*
X171415500Y-124802853D01*
X171415500Y-124717147D01*
X171393318Y-124634362D01*
X171350465Y-124560138D01*
X171350464Y-124560137D01*
X171350463Y-124560135D01*
X171289864Y-124499536D01*
X171215639Y-124456682D01*
X171215635Y-124456681D01*
X171132855Y-124434500D01*
X171132853Y-124434500D01*
X171047147Y-124434500D01*
X171047144Y-124434500D01*
X170964364Y-124456681D01*
X170964360Y-124456682D01*
X170890135Y-124499536D01*
X170829536Y-124560135D01*
X170786682Y-124634360D01*
X170786681Y-124634364D01*
X170764500Y-124717144D01*
X165635499Y-124717144D01*
X165613318Y-124634362D01*
X165570465Y-124560138D01*
X165570464Y-124560137D01*
X165570463Y-124560135D01*
X165509864Y-124499536D01*
X165435639Y-124456682D01*
X165435635Y-124456681D01*
X165352855Y-124434500D01*
X165352853Y-124434500D01*
X165267147Y-124434500D01*
X165267144Y-124434500D01*
X165184364Y-124456681D01*
X165184360Y-124456682D01*
X165110135Y-124499536D01*
X165049536Y-124560135D01*
X165006682Y-124634360D01*
X165006681Y-124634364D01*
X164984500Y-124717144D01*
X164630000Y-124717144D01*
X164630000Y-124355000D01*
X164180000Y-124355000D01*
X164180000Y-124105000D01*
X164630000Y-124105000D01*
X164630000Y-123606131D01*
X171770000Y-123606131D01*
X171770000Y-124105000D01*
X172220000Y-124105000D01*
X172220000Y-124355000D01*
X171770000Y-124355000D01*
X171770000Y-124853868D01*
X171798822Y-124998768D01*
X171855358Y-125135255D01*
X171855359Y-125135258D01*
X171937435Y-125258095D01*
X171937441Y-125258102D01*
X172041897Y-125362558D01*
X172041904Y-125362564D01*
X172164741Y-125444640D01*
X172164744Y-125444641D01*
X172301229Y-125501176D01*
X172301231Y-125501177D01*
X172394999Y-125519828D01*
X172395000Y-125519828D01*
X172395000Y-125054242D01*
X172404204Y-125059556D01*
X172480504Y-125080000D01*
X172559496Y-125080000D01*
X172635796Y-125059556D01*
X172645000Y-125054242D01*
X172645000Y-125519828D01*
X172738768Y-125501177D01*
X172738770Y-125501176D01*
X172875255Y-125444641D01*
X172875258Y-125444640D01*
X172998095Y-125362564D01*
X172998102Y-125362558D01*
X173102558Y-125258102D01*
X173102564Y-125258095D01*
X173184640Y-125135258D01*
X173184641Y-125135255D01*
X173241177Y-124998768D01*
X173270000Y-124853868D01*
X173270000Y-124355000D01*
X172820000Y-124355000D01*
X172820000Y-124105000D01*
X173270000Y-124105000D01*
X173270000Y-123606131D01*
X173241177Y-123461231D01*
X173184641Y-123324744D01*
X173184640Y-123324741D01*
X173102564Y-123201904D01*
X173102558Y-123201897D01*
X172998102Y-123097441D01*
X172998095Y-123097435D01*
X172875258Y-123015359D01*
X172875255Y-123015358D01*
X172738768Y-122958822D01*
X172738770Y-122958822D01*
X172645000Y-122940169D01*
X172645000Y-123405757D01*
X172635796Y-123400444D01*
X172559496Y-123380000D01*
X172480504Y-123380000D01*
X172404204Y-123400444D01*
X172395000Y-123405757D01*
X172395000Y-122940169D01*
X172301230Y-122958822D01*
X172164744Y-123015358D01*
X172164741Y-123015359D01*
X172041904Y-123097435D01*
X172041897Y-123097441D01*
X171937441Y-123201897D01*
X171937435Y-123201904D01*
X171855359Y-123324741D01*
X171855358Y-123324744D01*
X171798822Y-123461231D01*
X171770000Y-123606131D01*
X164630000Y-123606131D01*
X164601177Y-123461231D01*
X164544641Y-123324744D01*
X164544640Y-123324741D01*
X164462564Y-123201904D01*
X164462558Y-123201897D01*
X164358102Y-123097441D01*
X164358095Y-123097435D01*
X164235258Y-123015359D01*
X164235255Y-123015358D01*
X164098768Y-122958822D01*
X164098770Y-122958822D01*
X164005000Y-122940169D01*
X164005000Y-123405757D01*
X163995796Y-123400444D01*
X163919496Y-123380000D01*
X163840504Y-123380000D01*
X163764204Y-123400444D01*
X163755000Y-123405757D01*
X163755000Y-122940169D01*
X163661230Y-122958822D01*
X163524744Y-123015358D01*
X163524741Y-123015359D01*
X163401904Y-123097435D01*
X163401897Y-123097441D01*
X163297441Y-123201897D01*
X163297435Y-123201904D01*
X163215359Y-123324741D01*
X163215358Y-123324744D01*
X163158822Y-123461231D01*
X163130000Y-123606131D01*
X160042300Y-123606131D01*
X160042300Y-123573831D01*
X160013477Y-123428931D01*
X159956941Y-123292444D01*
X159956940Y-123292441D01*
X159874864Y-123169604D01*
X159874858Y-123169597D01*
X159770402Y-123065141D01*
X159770395Y-123065135D01*
X159647558Y-122983059D01*
X159647555Y-122983058D01*
X159511068Y-122926522D01*
X159511070Y-122926522D01*
X159417300Y-122907869D01*
X159417300Y-123373457D01*
X159408096Y-123368144D01*
X159331796Y-123347700D01*
X159252804Y-123347700D01*
X159176504Y-123368144D01*
X159167300Y-123373457D01*
X159167300Y-122907869D01*
X159073530Y-122926522D01*
X158937044Y-122983058D01*
X158937041Y-122983059D01*
X158814204Y-123065135D01*
X158814197Y-123065141D01*
X158709741Y-123169597D01*
X158709735Y-123169604D01*
X158627659Y-123292441D01*
X158627658Y-123292444D01*
X158571122Y-123428931D01*
X158542300Y-123573831D01*
X151402300Y-123573831D01*
X151373477Y-123428931D01*
X151316941Y-123292444D01*
X151316940Y-123292441D01*
X151234864Y-123169604D01*
X151234858Y-123169597D01*
X151130402Y-123065141D01*
X151130395Y-123065135D01*
X151007558Y-122983059D01*
X151007555Y-122983058D01*
X150871068Y-122926522D01*
X150871070Y-122926522D01*
X150777300Y-122907869D01*
X150777300Y-123373457D01*
X150768096Y-123368144D01*
X150691796Y-123347700D01*
X150612804Y-123347700D01*
X150536504Y-123368144D01*
X150527300Y-123373457D01*
X150527300Y-122907869D01*
X150433530Y-122926522D01*
X150297044Y-122983058D01*
X150297041Y-122983059D01*
X150174204Y-123065135D01*
X150174197Y-123065141D01*
X150069741Y-123169597D01*
X150069735Y-123169604D01*
X149987659Y-123292441D01*
X149987658Y-123292444D01*
X149931122Y-123428931D01*
X149902300Y-123573831D01*
X125000500Y-123573831D01*
X125000500Y-120513393D01*
X125759500Y-120513393D01*
X125759500Y-120686606D01*
X125759501Y-120686622D01*
X125786595Y-120857690D01*
X125786600Y-120857709D01*
X125840126Y-121022443D01*
X125918771Y-121176793D01*
X125918772Y-121176794D01*
X126020586Y-121316928D01*
X126020590Y-121316932D01*
X126020595Y-121316938D01*
X126143061Y-121439404D01*
X126143067Y-121439409D01*
X126143072Y-121439414D01*
X126283212Y-121541232D01*
X126437555Y-121619873D01*
X126602299Y-121673402D01*
X126602305Y-121673402D01*
X126602309Y-121673404D01*
X126740398Y-121695274D01*
X126773389Y-121700500D01*
X126773394Y-121700500D01*
X126946606Y-121700500D01*
X126946611Y-121700500D01*
X127032156Y-121686951D01*
X127117690Y-121673404D01*
X127117692Y-121673403D01*
X127117701Y-121673402D01*
X127282445Y-121619873D01*
X127436788Y-121541232D01*
X127576928Y-121439414D01*
X127699414Y-121316928D01*
X127801232Y-121176788D01*
X127879873Y-121022445D01*
X127933402Y-120857701D01*
X127960500Y-120686611D01*
X127960500Y-120513393D01*
X128299500Y-120513393D01*
X128299500Y-120686606D01*
X128299501Y-120686622D01*
X128326595Y-120857690D01*
X128326600Y-120857709D01*
X128380126Y-121022443D01*
X128458771Y-121176793D01*
X128458772Y-121176794D01*
X128560586Y-121316928D01*
X128560590Y-121316932D01*
X128560595Y-121316938D01*
X128683061Y-121439404D01*
X128683067Y-121439409D01*
X128683072Y-121439414D01*
X128823212Y-121541232D01*
X128977555Y-121619873D01*
X129142299Y-121673402D01*
X129142305Y-121673402D01*
X129142309Y-121673404D01*
X129280398Y-121695274D01*
X129313389Y-121700500D01*
X129313394Y-121700500D01*
X129486606Y-121700500D01*
X129486611Y-121700500D01*
X129572156Y-121686951D01*
X129657690Y-121673404D01*
X129657692Y-121673403D01*
X129657701Y-121673402D01*
X129822445Y-121619873D01*
X129976788Y-121541232D01*
X130116928Y-121439414D01*
X130239414Y-121316928D01*
X130341232Y-121176788D01*
X130419873Y-121022445D01*
X130473402Y-120857701D01*
X130500500Y-120686611D01*
X130500500Y-120513389D01*
X130489381Y-120443186D01*
X130473404Y-120342309D01*
X130473402Y-120342305D01*
X130473402Y-120342299D01*
X130419873Y-120177555D01*
X130341232Y-120023212D01*
X130239414Y-119883072D01*
X130239409Y-119883067D01*
X130239404Y-119883061D01*
X130116938Y-119760595D01*
X130116932Y-119760590D01*
X130116928Y-119760586D01*
X130116920Y-119760580D01*
X129976794Y-119658772D01*
X129976793Y-119658771D01*
X129976790Y-119658769D01*
X129976788Y-119658768D01*
X129822445Y-119580127D01*
X129822444Y-119580126D01*
X129657709Y-119526600D01*
X129657690Y-119526595D01*
X129533696Y-119506957D01*
X129486622Y-119499501D01*
X129486614Y-119499500D01*
X129486611Y-119499500D01*
X129313389Y-119499500D01*
X129313386Y-119499500D01*
X129313377Y-119499501D01*
X129142309Y-119526595D01*
X129142290Y-119526600D01*
X128977556Y-119580126D01*
X128823206Y-119658771D01*
X128823205Y-119658772D01*
X128683079Y-119760580D01*
X128683061Y-119760595D01*
X128560595Y-119883061D01*
X128560580Y-119883079D01*
X128458772Y-120023205D01*
X128458771Y-120023206D01*
X128380126Y-120177556D01*
X128326600Y-120342290D01*
X128326595Y-120342309D01*
X128299501Y-120513377D01*
X128299500Y-120513393D01*
X127960500Y-120513393D01*
X127960500Y-120513389D01*
X127949381Y-120443186D01*
X127933404Y-120342309D01*
X127933402Y-120342305D01*
X127933402Y-120342299D01*
X127879873Y-120177555D01*
X127801232Y-120023212D01*
X127699414Y-119883072D01*
X127699409Y-119883067D01*
X127699404Y-119883061D01*
X127576938Y-119760595D01*
X127576932Y-119760590D01*
X127576928Y-119760586D01*
X127576920Y-119760580D01*
X127436794Y-119658772D01*
X127436793Y-119658771D01*
X127436790Y-119658769D01*
X127436788Y-119658768D01*
X127282445Y-119580127D01*
X127282444Y-119580126D01*
X127117709Y-119526600D01*
X127117690Y-119526595D01*
X126946622Y-119499501D01*
X126946614Y-119499500D01*
X126946611Y-119499500D01*
X126773389Y-119499500D01*
X126773386Y-119499500D01*
X126773377Y-119499501D01*
X126602309Y-119526595D01*
X126602290Y-119526600D01*
X126437556Y-119580126D01*
X126283206Y-119658771D01*
X126283205Y-119658772D01*
X126143079Y-119760580D01*
X126143061Y-119760595D01*
X126020595Y-119883061D01*
X126020580Y-119883079D01*
X125918772Y-120023205D01*
X125918771Y-120023206D01*
X125840126Y-120177556D01*
X125786600Y-120342290D01*
X125786595Y-120342309D01*
X125759501Y-120513377D01*
X125759500Y-120513393D01*
X125000500Y-120513393D01*
X125000500Y-119434105D01*
X136249500Y-119434105D01*
X136249500Y-119565894D01*
X136283607Y-119693183D01*
X136283608Y-119693187D01*
X136349501Y-119807316D01*
X136361324Y-119819139D01*
X136384162Y-119868115D01*
X136370176Y-119920313D01*
X136361324Y-119930861D01*
X136349501Y-119942683D01*
X136283608Y-120056812D01*
X136283607Y-120056816D01*
X136249500Y-120184105D01*
X136249500Y-120315894D01*
X136283607Y-120443183D01*
X136283608Y-120443187D01*
X136349501Y-120557316D01*
X136442683Y-120650498D01*
X136442685Y-120650499D01*
X136442686Y-120650500D01*
X136556814Y-120716392D01*
X136684108Y-120750500D01*
X136684110Y-120750500D01*
X136815890Y-120750500D01*
X136815892Y-120750500D01*
X136943186Y-120716392D01*
X137057314Y-120650500D01*
X137150500Y-120557314D01*
X137216392Y-120443186D01*
X137250500Y-120315892D01*
X137250500Y-120184108D01*
X137247552Y-120173105D01*
X140749500Y-120173105D01*
X140749500Y-120304894D01*
X140783607Y-120432183D01*
X140783608Y-120432187D01*
X140849501Y-120546316D01*
X140942683Y-120639498D01*
X140942685Y-120639499D01*
X140942686Y-120639500D01*
X141056814Y-120705392D01*
X141184108Y-120739500D01*
X141184110Y-120739500D01*
X141315890Y-120739500D01*
X141315892Y-120739500D01*
X141443186Y-120705392D01*
X141557314Y-120639500D01*
X141650500Y-120546314D01*
X141716392Y-120432186D01*
X141750500Y-120304892D01*
X141750500Y-120173108D01*
X141716392Y-120045814D01*
X141650500Y-119931686D01*
X141650499Y-119931685D01*
X141650498Y-119931683D01*
X141557316Y-119838501D01*
X141443187Y-119772608D01*
X141443183Y-119772607D01*
X141315894Y-119738500D01*
X141315892Y-119738500D01*
X141184108Y-119738500D01*
X141184105Y-119738500D01*
X141056816Y-119772607D01*
X141056812Y-119772608D01*
X140942683Y-119838501D01*
X140849501Y-119931683D01*
X140783608Y-120045812D01*
X140783607Y-120045816D01*
X140749500Y-120173105D01*
X137247552Y-120173105D01*
X137216392Y-120056814D01*
X137150500Y-119942686D01*
X137138675Y-119930861D01*
X137115837Y-119881888D01*
X137129822Y-119829690D01*
X137138670Y-119819143D01*
X137150500Y-119807314D01*
X137216392Y-119693186D01*
X137250500Y-119565892D01*
X137250500Y-119434108D01*
X137216392Y-119306814D01*
X137150500Y-119192686D01*
X137150499Y-119192685D01*
X137150498Y-119192683D01*
X137057316Y-119099501D01*
X136943187Y-119033608D01*
X136943183Y-119033607D01*
X136815894Y-118999500D01*
X136815892Y-118999500D01*
X136684108Y-118999500D01*
X136684105Y-118999500D01*
X136556816Y-119033607D01*
X136556812Y-119033608D01*
X136442683Y-119099501D01*
X136349501Y-119192683D01*
X136283608Y-119306812D01*
X136283607Y-119306816D01*
X136249500Y-119434105D01*
X125000500Y-119434105D01*
X125000500Y-117973393D01*
X125759500Y-117973393D01*
X125759500Y-118146606D01*
X125759501Y-118146622D01*
X125786595Y-118317690D01*
X125786600Y-118317709D01*
X125840126Y-118482443D01*
X125918771Y-118636793D01*
X125918772Y-118636794D01*
X126020586Y-118776928D01*
X126020590Y-118776932D01*
X126020595Y-118776938D01*
X126143061Y-118899404D01*
X126143067Y-118899409D01*
X126143072Y-118899414D01*
X126283212Y-119001232D01*
X126437555Y-119079873D01*
X126602299Y-119133402D01*
X126602305Y-119133402D01*
X126602309Y-119133404D01*
X126740398Y-119155274D01*
X126773389Y-119160500D01*
X126773394Y-119160500D01*
X126946606Y-119160500D01*
X126946611Y-119160500D01*
X127032156Y-119146951D01*
X127117690Y-119133404D01*
X127117692Y-119133403D01*
X127117701Y-119133402D01*
X127282445Y-119079873D01*
X127436788Y-119001232D01*
X127576928Y-118899414D01*
X127699414Y-118776928D01*
X127801232Y-118636788D01*
X127879873Y-118482445D01*
X127933402Y-118317701D01*
X127960500Y-118146611D01*
X127960500Y-117973393D01*
X128299500Y-117973393D01*
X128299500Y-118146606D01*
X128299501Y-118146622D01*
X128326595Y-118317690D01*
X128326600Y-118317709D01*
X128380126Y-118482443D01*
X128458771Y-118636793D01*
X128458772Y-118636794D01*
X128560586Y-118776928D01*
X128560590Y-118776932D01*
X128560595Y-118776938D01*
X128683061Y-118899404D01*
X128683067Y-118899409D01*
X128683072Y-118899414D01*
X128823212Y-119001232D01*
X128977555Y-119079873D01*
X129142299Y-119133402D01*
X129142305Y-119133402D01*
X129142309Y-119133404D01*
X129280398Y-119155274D01*
X129313389Y-119160500D01*
X129313394Y-119160500D01*
X129486606Y-119160500D01*
X129486611Y-119160500D01*
X129572156Y-119146951D01*
X129657690Y-119133404D01*
X129657692Y-119133403D01*
X129657701Y-119133402D01*
X129822445Y-119079873D01*
X129976788Y-119001232D01*
X130116928Y-118899414D01*
X130239414Y-118776928D01*
X130341232Y-118636788D01*
X130419873Y-118482445D01*
X130473402Y-118317701D01*
X130500500Y-118146611D01*
X130500500Y-117973389D01*
X130473402Y-117802299D01*
X130419873Y-117637555D01*
X130341232Y-117483212D01*
X130239414Y-117343072D01*
X130239409Y-117343067D01*
X130239404Y-117343061D01*
X130116938Y-117220595D01*
X130116932Y-117220590D01*
X130116928Y-117220586D01*
X129976794Y-117118772D01*
X129976793Y-117118771D01*
X129976790Y-117118769D01*
X129976788Y-117118768D01*
X129822445Y-117040127D01*
X129822444Y-117040126D01*
X129657709Y-116986600D01*
X129657690Y-116986595D01*
X129486622Y-116959501D01*
X129486614Y-116959500D01*
X129486611Y-116959500D01*
X129313389Y-116959500D01*
X129313386Y-116959500D01*
X129313377Y-116959501D01*
X129142309Y-116986595D01*
X129142290Y-116986600D01*
X128977556Y-117040126D01*
X128823206Y-117118771D01*
X128823205Y-117118772D01*
X128683079Y-117220580D01*
X128683061Y-117220595D01*
X128560595Y-117343061D01*
X128560580Y-117343079D01*
X128458772Y-117483205D01*
X128458771Y-117483206D01*
X128380126Y-117637556D01*
X128326600Y-117802290D01*
X128326595Y-117802309D01*
X128299501Y-117973377D01*
X128299500Y-117973393D01*
X127960500Y-117973393D01*
X127960500Y-117973389D01*
X127933402Y-117802299D01*
X127879873Y-117637555D01*
X127801232Y-117483212D01*
X127699414Y-117343072D01*
X127699409Y-117343067D01*
X127699404Y-117343061D01*
X127576938Y-117220595D01*
X127576932Y-117220590D01*
X127576928Y-117220586D01*
X127436794Y-117118772D01*
X127436793Y-117118771D01*
X127436790Y-117118769D01*
X127436788Y-117118768D01*
X127282445Y-117040127D01*
X127282444Y-117040126D01*
X127117709Y-116986600D01*
X127117690Y-116986595D01*
X126946622Y-116959501D01*
X126946614Y-116959500D01*
X126946611Y-116959500D01*
X126773389Y-116959500D01*
X126773386Y-116959500D01*
X126773377Y-116959501D01*
X126602309Y-116986595D01*
X126602290Y-116986600D01*
X126437556Y-117040126D01*
X126283206Y-117118771D01*
X126283205Y-117118772D01*
X126143079Y-117220580D01*
X126143061Y-117220595D01*
X126020595Y-117343061D01*
X126020580Y-117343079D01*
X125918772Y-117483205D01*
X125918771Y-117483206D01*
X125840126Y-117637556D01*
X125786600Y-117802290D01*
X125786595Y-117802309D01*
X125759501Y-117973377D01*
X125759500Y-117973393D01*
X125000500Y-117973393D01*
X125000500Y-115433432D01*
X125760000Y-115433432D01*
X125760000Y-115606567D01*
X125760001Y-115606583D01*
X125787083Y-115777573D01*
X125787088Y-115777593D01*
X125840589Y-115942250D01*
X125840594Y-115942263D01*
X125919195Y-116096524D01*
X125998097Y-116205125D01*
X126429270Y-115773952D01*
X126459901Y-115827007D01*
X126552993Y-115920099D01*
X126606045Y-115950728D01*
X126174873Y-116381901D01*
X126283475Y-116460804D01*
X126437736Y-116539405D01*
X126437749Y-116539410D01*
X126602406Y-116592911D01*
X126602426Y-116592916D01*
X126773416Y-116619998D01*
X126773433Y-116620000D01*
X126946567Y-116620000D01*
X126946583Y-116619998D01*
X127117573Y-116592916D01*
X127117593Y-116592911D01*
X127282250Y-116539410D01*
X127282263Y-116539405D01*
X127436525Y-116460803D01*
X127436531Y-116460799D01*
X127545125Y-116381902D01*
X127545125Y-116381901D01*
X127113953Y-115950729D01*
X127167007Y-115920099D01*
X127260099Y-115827007D01*
X127290729Y-115773953D01*
X127721901Y-116205125D01*
X127721902Y-116205125D01*
X127800799Y-116096531D01*
X127800803Y-116096525D01*
X127879405Y-115942263D01*
X127879410Y-115942250D01*
X127932911Y-115777593D01*
X127932916Y-115777573D01*
X127959998Y-115606583D01*
X127960000Y-115606567D01*
X127960000Y-115433424D01*
X127959995Y-115433393D01*
X128299500Y-115433393D01*
X128299500Y-115606606D01*
X128299501Y-115606622D01*
X128326595Y-115777690D01*
X128326600Y-115777709D01*
X128380068Y-115942263D01*
X128380127Y-115942445D01*
X128458637Y-116096531D01*
X128458771Y-116096793D01*
X128458772Y-116096794D01*
X128560580Y-116236920D01*
X128560586Y-116236928D01*
X128560590Y-116236932D01*
X128560595Y-116236938D01*
X128683061Y-116359404D01*
X128683067Y-116359409D01*
X128683072Y-116359414D01*
X128683079Y-116359419D01*
X128822621Y-116460803D01*
X128823212Y-116461232D01*
X128977555Y-116539873D01*
X129142299Y-116593402D01*
X129142305Y-116593402D01*
X129142309Y-116593404D01*
X129280398Y-116615274D01*
X129313389Y-116620500D01*
X129313394Y-116620500D01*
X129486606Y-116620500D01*
X129486611Y-116620500D01*
X129572156Y-116606951D01*
X129657690Y-116593404D01*
X129657692Y-116593403D01*
X129657701Y-116593402D01*
X129822445Y-116539873D01*
X129976788Y-116461232D01*
X130116928Y-116359414D01*
X130239414Y-116236928D01*
X130341232Y-116096788D01*
X130419873Y-115942445D01*
X130473402Y-115777701D01*
X130473423Y-115777573D01*
X130500498Y-115606622D01*
X130500500Y-115606611D01*
X130500500Y-115433389D01*
X130478215Y-115292686D01*
X130473404Y-115262309D01*
X130473402Y-115262305D01*
X130473402Y-115262299D01*
X130419873Y-115097555D01*
X130341232Y-114943212D01*
X130334615Y-114934105D01*
X141999500Y-114934105D01*
X141999500Y-115065894D01*
X142033607Y-115193183D01*
X142033608Y-115193187D01*
X142099501Y-115307316D01*
X142192683Y-115400498D01*
X142192685Y-115400499D01*
X142192686Y-115400500D01*
X142306814Y-115466392D01*
X142434108Y-115500500D01*
X142434110Y-115500500D01*
X142565890Y-115500500D01*
X142565892Y-115500500D01*
X142693186Y-115466392D01*
X142807314Y-115400500D01*
X142900500Y-115307314D01*
X142966392Y-115193186D01*
X143000500Y-115065892D01*
X143000500Y-114934108D01*
X142966392Y-114806814D01*
X142900500Y-114692686D01*
X142900499Y-114692685D01*
X142900498Y-114692683D01*
X142807316Y-114599501D01*
X142693187Y-114533608D01*
X142693183Y-114533607D01*
X142565894Y-114499500D01*
X142565892Y-114499500D01*
X142434108Y-114499500D01*
X142434105Y-114499500D01*
X142306816Y-114533607D01*
X142306812Y-114533608D01*
X142192683Y-114599501D01*
X142099501Y-114692683D01*
X142033608Y-114806812D01*
X142033607Y-114806816D01*
X141999500Y-114934105D01*
X130334615Y-114934105D01*
X130239414Y-114803072D01*
X130239409Y-114803067D01*
X130239404Y-114803061D01*
X130116938Y-114680595D01*
X130116932Y-114680590D01*
X130116928Y-114680586D01*
X130066240Y-114643759D01*
X129976794Y-114578772D01*
X129976793Y-114578771D01*
X129976790Y-114578769D01*
X129976788Y-114578768D01*
X129822445Y-114500127D01*
X129822444Y-114500126D01*
X129657709Y-114446600D01*
X129657690Y-114446595D01*
X129486622Y-114419501D01*
X129486614Y-114419500D01*
X129486611Y-114419500D01*
X129313389Y-114419500D01*
X129313386Y-114419500D01*
X129313377Y-114419501D01*
X129142309Y-114446595D01*
X129142290Y-114446600D01*
X128977556Y-114500126D01*
X128823206Y-114578771D01*
X128823205Y-114578772D01*
X128683079Y-114680580D01*
X128683061Y-114680595D01*
X128560595Y-114803061D01*
X128560580Y-114803079D01*
X128458772Y-114943205D01*
X128458771Y-114943206D01*
X128380126Y-115097556D01*
X128326600Y-115262290D01*
X128326595Y-115262309D01*
X128299501Y-115433377D01*
X128299500Y-115433393D01*
X127959995Y-115433393D01*
X127932916Y-115262426D01*
X127932911Y-115262406D01*
X127879410Y-115097749D01*
X127879405Y-115097736D01*
X127800804Y-114943475D01*
X127721901Y-114834873D01*
X127290728Y-115266045D01*
X127260099Y-115212993D01*
X127167007Y-115119901D01*
X127113952Y-115089270D01*
X127545125Y-114658097D01*
X127436524Y-114579195D01*
X127282263Y-114500594D01*
X127282250Y-114500589D01*
X127117593Y-114447088D01*
X127117573Y-114447083D01*
X126946583Y-114420001D01*
X126946567Y-114420000D01*
X126773433Y-114420000D01*
X126773416Y-114420001D01*
X126602426Y-114447083D01*
X126602406Y-114447088D01*
X126437749Y-114500589D01*
X126437736Y-114500594D01*
X126283475Y-114579195D01*
X126174873Y-114658097D01*
X126606046Y-115089270D01*
X126552993Y-115119901D01*
X126459901Y-115212993D01*
X126429270Y-115266046D01*
X125998097Y-114834873D01*
X125919195Y-114943475D01*
X125840594Y-115097736D01*
X125840589Y-115097749D01*
X125787088Y-115262406D01*
X125787083Y-115262426D01*
X125760001Y-115433416D01*
X125760000Y-115433432D01*
X125000500Y-115433432D01*
X125000500Y-112893393D01*
X125759500Y-112893393D01*
X125759500Y-113066606D01*
X125759501Y-113066622D01*
X125786595Y-113237690D01*
X125786600Y-113237709D01*
X125840126Y-113402443D01*
X125918771Y-113556793D01*
X125918772Y-113556794D01*
X126020586Y-113696928D01*
X126020590Y-113696932D01*
X126020595Y-113696938D01*
X126143061Y-113819404D01*
X126143067Y-113819409D01*
X126143072Y-113819414D01*
X126283212Y-113921232D01*
X126437555Y-113999873D01*
X126602299Y-114053402D01*
X126602305Y-114053402D01*
X126602309Y-114053404D01*
X126740398Y-114075274D01*
X126773389Y-114080500D01*
X126773394Y-114080500D01*
X126946606Y-114080500D01*
X126946611Y-114080500D01*
X127032156Y-114066951D01*
X127117690Y-114053404D01*
X127117692Y-114053403D01*
X127117701Y-114053402D01*
X127282445Y-113999873D01*
X127436788Y-113921232D01*
X127576928Y-113819414D01*
X127699414Y-113696928D01*
X127801232Y-113556788D01*
X127879873Y-113402445D01*
X127933402Y-113237701D01*
X127934385Y-113231498D01*
X127960498Y-113066622D01*
X127960500Y-113066611D01*
X127960500Y-112893393D01*
X128299500Y-112893393D01*
X128299500Y-113066606D01*
X128299501Y-113066622D01*
X128326595Y-113237690D01*
X128326600Y-113237709D01*
X128380126Y-113402443D01*
X128458771Y-113556793D01*
X128458772Y-113556794D01*
X128560586Y-113696928D01*
X128560590Y-113696932D01*
X128560595Y-113696938D01*
X128683061Y-113819404D01*
X128683067Y-113819409D01*
X128683072Y-113819414D01*
X128823212Y-113921232D01*
X128977555Y-113999873D01*
X129142299Y-114053402D01*
X129142305Y-114053402D01*
X129142309Y-114053404D01*
X129280398Y-114075274D01*
X129313389Y-114080500D01*
X129313394Y-114080500D01*
X129486606Y-114080500D01*
X129486611Y-114080500D01*
X129572156Y-114066951D01*
X129657690Y-114053404D01*
X129657692Y-114053403D01*
X129657701Y-114053402D01*
X129822445Y-113999873D01*
X129976788Y-113921232D01*
X130116928Y-113819414D01*
X130239414Y-113696928D01*
X130341232Y-113556788D01*
X130419873Y-113402445D01*
X130473402Y-113237701D01*
X130474385Y-113231498D01*
X130500498Y-113066622D01*
X130500500Y-113066611D01*
X130500500Y-112893389D01*
X130481316Y-112772263D01*
X130473404Y-112722309D01*
X130473402Y-112722305D01*
X130473402Y-112722299D01*
X130419873Y-112557555D01*
X130341232Y-112403212D01*
X130239414Y-112263072D01*
X130239409Y-112263067D01*
X130239404Y-112263061D01*
X130116938Y-112140595D01*
X130116932Y-112140590D01*
X130116928Y-112140586D01*
X130071136Y-112107316D01*
X129976794Y-112038772D01*
X129976793Y-112038771D01*
X129976790Y-112038769D01*
X129976788Y-112038768D01*
X129822445Y-111960127D01*
X129822444Y-111960126D01*
X129657709Y-111906600D01*
X129657690Y-111906595D01*
X129486622Y-111879501D01*
X129486614Y-111879500D01*
X129486611Y-111879500D01*
X129313389Y-111879500D01*
X129313386Y-111879500D01*
X129313377Y-111879501D01*
X129142309Y-111906595D01*
X129142290Y-111906600D01*
X128977556Y-111960126D01*
X128823206Y-112038771D01*
X128823205Y-112038772D01*
X128683079Y-112140580D01*
X128683061Y-112140595D01*
X128560595Y-112263061D01*
X128560580Y-112263079D01*
X128458772Y-112403205D01*
X128458771Y-112403206D01*
X128380126Y-112557556D01*
X128326600Y-112722290D01*
X128326595Y-112722309D01*
X128299501Y-112893377D01*
X128299500Y-112893393D01*
X127960500Y-112893393D01*
X127960500Y-112893389D01*
X127941316Y-112772263D01*
X127933404Y-112722309D01*
X127933402Y-112722305D01*
X127933402Y-112722299D01*
X127879873Y-112557555D01*
X127801232Y-112403212D01*
X127699414Y-112263072D01*
X127699409Y-112263067D01*
X127699404Y-112263061D01*
X127576938Y-112140595D01*
X127576932Y-112140590D01*
X127576928Y-112140586D01*
X127531136Y-112107316D01*
X127436794Y-112038772D01*
X127436793Y-112038771D01*
X127436790Y-112038769D01*
X127436788Y-112038768D01*
X127282445Y-111960127D01*
X127282444Y-111960126D01*
X127117709Y-111906600D01*
X127117690Y-111906595D01*
X126946622Y-111879501D01*
X126946614Y-111879500D01*
X126946611Y-111879500D01*
X126773389Y-111879500D01*
X126773386Y-111879500D01*
X126773377Y-111879501D01*
X126602309Y-111906595D01*
X126602290Y-111906600D01*
X126437556Y-111960126D01*
X126283206Y-112038771D01*
X126283205Y-112038772D01*
X126143079Y-112140580D01*
X126143061Y-112140595D01*
X126020595Y-112263061D01*
X126020580Y-112263079D01*
X125918772Y-112403205D01*
X125918771Y-112403206D01*
X125840126Y-112557556D01*
X125786600Y-112722290D01*
X125786595Y-112722309D01*
X125759501Y-112893377D01*
X125759500Y-112893393D01*
X125000500Y-112893393D01*
X125000500Y-111734105D01*
X143774500Y-111734105D01*
X143774500Y-111865894D01*
X143808607Y-111993183D01*
X143808608Y-111993187D01*
X143874501Y-112107316D01*
X143967683Y-112200498D01*
X143967685Y-112200499D01*
X143967686Y-112200500D01*
X144040036Y-112242271D01*
X144076075Y-112263079D01*
X144081814Y-112266392D01*
X144209108Y-112300500D01*
X144209110Y-112300500D01*
X144340890Y-112300500D01*
X144340892Y-112300500D01*
X144468186Y-112266392D01*
X144582314Y-112200500D01*
X144675500Y-112107314D01*
X144741392Y-111993186D01*
X144775500Y-111865892D01*
X144775500Y-111734108D01*
X144741392Y-111606814D01*
X144675500Y-111492686D01*
X144675499Y-111492685D01*
X144675498Y-111492683D01*
X144582316Y-111399501D01*
X144468187Y-111333608D01*
X144468183Y-111333607D01*
X144340894Y-111299500D01*
X144340892Y-111299500D01*
X144209108Y-111299500D01*
X144209105Y-111299500D01*
X144081816Y-111333607D01*
X144081812Y-111333608D01*
X143967683Y-111399501D01*
X143874501Y-111492683D01*
X143808608Y-111606812D01*
X143808607Y-111606816D01*
X143774500Y-111734105D01*
X125000500Y-111734105D01*
X125000500Y-110353393D01*
X125759500Y-110353393D01*
X125759500Y-110526606D01*
X125759501Y-110526622D01*
X125786595Y-110697690D01*
X125786600Y-110697709D01*
X125840126Y-110862443D01*
X125918771Y-111016793D01*
X125918772Y-111016794D01*
X126020586Y-111156928D01*
X126020590Y-111156932D01*
X126020595Y-111156938D01*
X126143061Y-111279404D01*
X126143067Y-111279409D01*
X126143072Y-111279414D01*
X126283212Y-111381232D01*
X126437555Y-111459873D01*
X126602299Y-111513402D01*
X126602305Y-111513402D01*
X126602309Y-111513404D01*
X126733044Y-111534110D01*
X126773389Y-111540500D01*
X126773394Y-111540500D01*
X126946606Y-111540500D01*
X126946611Y-111540500D01*
X127032156Y-111526951D01*
X127117690Y-111513404D01*
X127117692Y-111513403D01*
X127117701Y-111513402D01*
X127282445Y-111459873D01*
X127436788Y-111381232D01*
X127576928Y-111279414D01*
X127699414Y-111156928D01*
X127801232Y-111016788D01*
X127879873Y-110862445D01*
X127933402Y-110697701D01*
X127933610Y-110696392D01*
X127960498Y-110526622D01*
X127960500Y-110526611D01*
X127960500Y-110353393D01*
X128299500Y-110353393D01*
X128299500Y-110526606D01*
X128299501Y-110526622D01*
X128326595Y-110697690D01*
X128326600Y-110697709D01*
X128380126Y-110862443D01*
X128458771Y-111016793D01*
X128458772Y-111016794D01*
X128560586Y-111156928D01*
X128560590Y-111156932D01*
X128560595Y-111156938D01*
X128683061Y-111279404D01*
X128683067Y-111279409D01*
X128683072Y-111279414D01*
X128823212Y-111381232D01*
X128977555Y-111459873D01*
X129142299Y-111513402D01*
X129142305Y-111513402D01*
X129142309Y-111513404D01*
X129273044Y-111534110D01*
X129313389Y-111540500D01*
X129313394Y-111540500D01*
X129486606Y-111540500D01*
X129486611Y-111540500D01*
X129572156Y-111526951D01*
X129657690Y-111513404D01*
X129657692Y-111513403D01*
X129657701Y-111513402D01*
X129822445Y-111459873D01*
X129976788Y-111381232D01*
X130116928Y-111279414D01*
X130239414Y-111156928D01*
X130341232Y-111016788D01*
X130419873Y-110862445D01*
X130473402Y-110697701D01*
X130473610Y-110696392D01*
X130500498Y-110526622D01*
X130500500Y-110526611D01*
X130500500Y-110353389D01*
X130489954Y-110286802D01*
X130473404Y-110182309D01*
X130473402Y-110182305D01*
X130473402Y-110182299D01*
X130419873Y-110017555D01*
X130341232Y-109863212D01*
X130239414Y-109723072D01*
X130239409Y-109723067D01*
X130239404Y-109723061D01*
X130150448Y-109634105D01*
X142399500Y-109634105D01*
X142399500Y-109765894D01*
X142433607Y-109893183D01*
X142433608Y-109893187D01*
X142499501Y-110007316D01*
X142592683Y-110100498D01*
X142698600Y-110161650D01*
X142706814Y-110166392D01*
X142834108Y-110200500D01*
X142834110Y-110200500D01*
X142965890Y-110200500D01*
X142965892Y-110200500D01*
X143093186Y-110166392D01*
X143110338Y-110156489D01*
X147269500Y-110156489D01*
X147269500Y-110161650D01*
X147269500Y-112343513D01*
X147292022Y-112427565D01*
X147292023Y-112427569D01*
X147335535Y-112502934D01*
X149476361Y-114643759D01*
X149499199Y-114692735D01*
X149499500Y-114699620D01*
X149499500Y-114765894D01*
X149533607Y-114893183D01*
X149533608Y-114893187D01*
X149599501Y-115007316D01*
X149686324Y-115094139D01*
X149709162Y-115143115D01*
X149695176Y-115195313D01*
X149686324Y-115205861D01*
X149599501Y-115292683D01*
X149533608Y-115406812D01*
X149533607Y-115406816D01*
X149499500Y-115534105D01*
X149499500Y-115665894D01*
X149533607Y-115793183D01*
X149533608Y-115793187D01*
X149599501Y-115907316D01*
X149692683Y-116000498D01*
X149696526Y-116002717D01*
X149731260Y-116044114D01*
X149731259Y-116098154D01*
X149696525Y-116139548D01*
X149592682Y-116199502D01*
X149499501Y-116292683D01*
X149433608Y-116406812D01*
X149433607Y-116406816D01*
X149399500Y-116534105D01*
X149399500Y-116665894D01*
X149433607Y-116793183D01*
X149433608Y-116793187D01*
X149499501Y-116907316D01*
X149592683Y-117000498D01*
X149592685Y-117000499D01*
X149592686Y-117000500D01*
X149706814Y-117066392D01*
X149834108Y-117100500D01*
X149834110Y-117100500D01*
X149965890Y-117100500D01*
X149965892Y-117100500D01*
X150093186Y-117066392D01*
X150207314Y-117000500D01*
X150300500Y-116907314D01*
X150366392Y-116793186D01*
X150400500Y-116665892D01*
X150400500Y-116599620D01*
X150418982Y-116548840D01*
X150423639Y-116543759D01*
X151113465Y-115853933D01*
X151113467Y-115853931D01*
X151156978Y-115778567D01*
X151179501Y-115694510D01*
X151179501Y-115607488D01*
X151179501Y-113905490D01*
X151156978Y-113821433D01*
X151156978Y-113821432D01*
X151113467Y-113746069D01*
X151113466Y-113746068D01*
X151113465Y-113746066D01*
X149912189Y-112544791D01*
X149861503Y-112494105D01*
X151274500Y-112494105D01*
X151274500Y-112625894D01*
X151308607Y-112753183D01*
X151308608Y-112753187D01*
X151374501Y-112867316D01*
X151467683Y-112960498D01*
X151467685Y-112960499D01*
X151467686Y-112960500D01*
X151581814Y-113026392D01*
X151709108Y-113060500D01*
X151709110Y-113060500D01*
X151840890Y-113060500D01*
X151840892Y-113060500D01*
X151968186Y-113026392D01*
X152082314Y-112960500D01*
X152175500Y-112867314D01*
X152241392Y-112753186D01*
X152275500Y-112625892D01*
X152275500Y-112494108D01*
X152241392Y-112366814D01*
X152231684Y-112350000D01*
X152183413Y-112266392D01*
X152175500Y-112252686D01*
X152175499Y-112252685D01*
X152175498Y-112252683D01*
X152082316Y-112159501D01*
X151968187Y-112093608D01*
X151968183Y-112093607D01*
X151840894Y-112059500D01*
X151840892Y-112059500D01*
X151709108Y-112059500D01*
X151709105Y-112059500D01*
X151581816Y-112093607D01*
X151581812Y-112093608D01*
X151467683Y-112159501D01*
X151374501Y-112252683D01*
X151308608Y-112366812D01*
X151308607Y-112366816D01*
X151274500Y-112494105D01*
X149861503Y-112494105D01*
X149393467Y-112026069D01*
X149370629Y-111977093D01*
X149384615Y-111924895D01*
X149393463Y-111914350D01*
X149400500Y-111907314D01*
X149466392Y-111793186D01*
X149500500Y-111665892D01*
X149500500Y-111534108D01*
X149466392Y-111406814D01*
X149400500Y-111292686D01*
X149400499Y-111292685D01*
X149400498Y-111292683D01*
X149307316Y-111199501D01*
X149193187Y-111133608D01*
X149193183Y-111133607D01*
X149065894Y-111099500D01*
X149065892Y-111099500D01*
X148934108Y-111099500D01*
X148934105Y-111099500D01*
X148806816Y-111133607D01*
X148806812Y-111133608D01*
X148692683Y-111199501D01*
X148599501Y-111292683D01*
X148533608Y-111406812D01*
X148533607Y-111406816D01*
X148499500Y-111534105D01*
X148499500Y-111665894D01*
X148533607Y-111793183D01*
X148533608Y-111793187D01*
X148583442Y-111879501D01*
X148599500Y-111907314D01*
X148646361Y-111954175D01*
X148653649Y-111969803D01*
X148664736Y-111983016D01*
X148667730Y-112000001D01*
X148669199Y-112003150D01*
X148669500Y-112010036D01*
X148669500Y-112031823D01*
X148651018Y-112082603D01*
X148610947Y-112108131D01*
X148503501Y-112136920D01*
X148503499Y-112136921D01*
X148389370Y-112202814D01*
X148296188Y-112295997D01*
X148296187Y-112295998D01*
X148262455Y-112354421D01*
X148221058Y-112389156D01*
X148167019Y-112389155D01*
X148138179Y-112370781D01*
X147953639Y-112186241D01*
X147930801Y-112137265D01*
X147930500Y-112130380D01*
X147930500Y-110543807D01*
X147948982Y-110493027D01*
X147989056Y-110467498D01*
X147993186Y-110466392D01*
X148107314Y-110400500D01*
X148200500Y-110307314D01*
X148266392Y-110193186D01*
X148274184Y-110164105D01*
X154749500Y-110164105D01*
X154749500Y-110295894D01*
X154783607Y-110423183D01*
X154783608Y-110423187D01*
X154849501Y-110537316D01*
X154942683Y-110630498D01*
X154942685Y-110630499D01*
X154942686Y-110630500D01*
X155056814Y-110696392D01*
X155184108Y-110730500D01*
X155184110Y-110730500D01*
X155315890Y-110730500D01*
X155315892Y-110730500D01*
X155443186Y-110696392D01*
X155557314Y-110630500D01*
X155650500Y-110537314D01*
X155716392Y-110423186D01*
X155750500Y-110295892D01*
X155750500Y-110164108D01*
X155716392Y-110036814D01*
X155650500Y-109922686D01*
X155650499Y-109922685D01*
X155650498Y-109922683D01*
X155557316Y-109829501D01*
X155443187Y-109763608D01*
X155443183Y-109763607D01*
X155315894Y-109729500D01*
X155315892Y-109729500D01*
X155184108Y-109729500D01*
X155184105Y-109729500D01*
X155056816Y-109763607D01*
X155056812Y-109763608D01*
X154942683Y-109829501D01*
X154849501Y-109922683D01*
X154783608Y-110036812D01*
X154783607Y-110036816D01*
X154749500Y-110164105D01*
X148274184Y-110164105D01*
X148300500Y-110065892D01*
X148300500Y-109934108D01*
X148266392Y-109806814D01*
X148200500Y-109692686D01*
X148200499Y-109692685D01*
X148200498Y-109692683D01*
X148107316Y-109599501D01*
X147993187Y-109533608D01*
X147993183Y-109533607D01*
X147865894Y-109499500D01*
X147865892Y-109499500D01*
X147734108Y-109499500D01*
X147734105Y-109499500D01*
X147606816Y-109533607D01*
X147606812Y-109533608D01*
X147492683Y-109599501D01*
X147399501Y-109692683D01*
X147333608Y-109806812D01*
X147333607Y-109806816D01*
X147299500Y-109934105D01*
X147299500Y-110038667D01*
X147297891Y-110046753D01*
X147296839Y-110058998D01*
X147294321Y-110068450D01*
X147292023Y-110072432D01*
X147269500Y-110156489D01*
X143110338Y-110156489D01*
X143207314Y-110100500D01*
X143207316Y-110100498D01*
X143212365Y-110095450D01*
X143300498Y-110007316D01*
X143300500Y-110007314D01*
X143366392Y-109893186D01*
X143400500Y-109765892D01*
X143400500Y-109634108D01*
X143366392Y-109506814D01*
X143300500Y-109392686D01*
X143300499Y-109392685D01*
X143300498Y-109392683D01*
X143273639Y-109365824D01*
X143250801Y-109316848D01*
X143250500Y-109309963D01*
X143250500Y-109134105D01*
X155599500Y-109134105D01*
X155599500Y-109265894D01*
X155633607Y-109393183D01*
X155633608Y-109393187D01*
X155699501Y-109507316D01*
X155792683Y-109600498D01*
X155792685Y-109600499D01*
X155792686Y-109600500D01*
X155850897Y-109634108D01*
X155906812Y-109666391D01*
X155910634Y-109667974D01*
X155950478Y-109704480D01*
X155957534Y-109758057D01*
X155948822Y-109780462D01*
X155933608Y-109806812D01*
X155933607Y-109806816D01*
X155899500Y-109934105D01*
X155899500Y-110065894D01*
X155933607Y-110193183D01*
X155933608Y-110193187D01*
X155956273Y-110232443D01*
X155999500Y-110307314D01*
X156026361Y-110334175D01*
X156049199Y-110383149D01*
X156049500Y-110390036D01*
X156049500Y-111625744D01*
X156038916Y-111665244D01*
X155992556Y-111745540D01*
X155992555Y-111745544D01*
X155968670Y-111834683D01*
X155968670Y-112326976D01*
X155988339Y-112400381D01*
X155992555Y-112416117D01*
X156004261Y-112436392D01*
X156038700Y-112496042D01*
X156038702Y-112496044D01*
X156038703Y-112496045D01*
X156050421Y-112507763D01*
X156073259Y-112556739D01*
X156062977Y-112603123D01*
X156042948Y-112637814D01*
X156042948Y-112637816D01*
X156008841Y-112765105D01*
X156008841Y-112896894D01*
X156042948Y-113024183D01*
X156042949Y-113024187D01*
X156108842Y-113138316D01*
X156202024Y-113231498D01*
X156202026Y-113231499D01*
X156202027Y-113231500D01*
X156274377Y-113273271D01*
X156304742Y-113290803D01*
X156316155Y-113297392D01*
X156443449Y-113331500D01*
X156443451Y-113331500D01*
X156575231Y-113331500D01*
X156575233Y-113331500D01*
X156702527Y-113297392D01*
X156816655Y-113231500D01*
X156836254Y-113211901D01*
X156909840Y-113138316D01*
X156909840Y-113138315D01*
X156951233Y-113066622D01*
X156975733Y-113024186D01*
X157009841Y-112896892D01*
X157009841Y-112765108D01*
X156975733Y-112637814D01*
X156947549Y-112588999D01*
X156938166Y-112535782D01*
X156965185Y-112488983D01*
X157015966Y-112470500D01*
X157035890Y-112470500D01*
X157035892Y-112470500D01*
X157163186Y-112436392D01*
X157277314Y-112370500D01*
X157370500Y-112277314D01*
X157378515Y-112263432D01*
X170360000Y-112263432D01*
X170360000Y-112436567D01*
X170360001Y-112436583D01*
X170387083Y-112607573D01*
X170387088Y-112607593D01*
X170440589Y-112772250D01*
X170440594Y-112772263D01*
X170519195Y-112926524D01*
X170598097Y-113035125D01*
X171029270Y-112603952D01*
X171059901Y-112657007D01*
X171152993Y-112750099D01*
X171206045Y-112780728D01*
X170774873Y-113211901D01*
X170883475Y-113290804D01*
X171037736Y-113369405D01*
X171037749Y-113369410D01*
X171202406Y-113422911D01*
X171202426Y-113422916D01*
X171373416Y-113449998D01*
X171373433Y-113450000D01*
X171546567Y-113450000D01*
X171546583Y-113449998D01*
X171717573Y-113422916D01*
X171717593Y-113422911D01*
X171882250Y-113369410D01*
X171882263Y-113369405D01*
X172036525Y-113290803D01*
X172036531Y-113290799D01*
X172145125Y-113211902D01*
X172145125Y-113211901D01*
X171713953Y-112780729D01*
X171767007Y-112750099D01*
X171860099Y-112657007D01*
X171890729Y-112603953D01*
X172321901Y-113035125D01*
X172321902Y-113035125D01*
X172400799Y-112926531D01*
X172400803Y-112926525D01*
X172479405Y-112772263D01*
X172479410Y-112772250D01*
X172532911Y-112607593D01*
X172532916Y-112607573D01*
X172559998Y-112436583D01*
X172560000Y-112436567D01*
X172560000Y-112263432D01*
X172559998Y-112263416D01*
X172532916Y-112092426D01*
X172532911Y-112092406D01*
X172479410Y-111927749D01*
X172479405Y-111927736D01*
X172400804Y-111773475D01*
X172321901Y-111664873D01*
X171890728Y-112096045D01*
X171860099Y-112042993D01*
X171767007Y-111949901D01*
X171713952Y-111919270D01*
X172145125Y-111488097D01*
X172036524Y-111409195D01*
X171882263Y-111330594D01*
X171882250Y-111330589D01*
X171717593Y-111277088D01*
X171717573Y-111277083D01*
X171546583Y-111250001D01*
X171546567Y-111250000D01*
X171373433Y-111250000D01*
X171373416Y-111250001D01*
X171202426Y-111277083D01*
X171202406Y-111277088D01*
X171037749Y-111330589D01*
X171037736Y-111330594D01*
X170883475Y-111409195D01*
X170774873Y-111488097D01*
X171206046Y-111919270D01*
X171152993Y-111949901D01*
X171059901Y-112042993D01*
X171029270Y-112096046D01*
X170598097Y-111664873D01*
X170519195Y-111773475D01*
X170440594Y-111927736D01*
X170440589Y-111927749D01*
X170387088Y-112092406D01*
X170387083Y-112092426D01*
X170360001Y-112263416D01*
X170360000Y-112263432D01*
X157378515Y-112263432D01*
X157436392Y-112163186D01*
X157470500Y-112035892D01*
X157470500Y-111904108D01*
X157436392Y-111776814D01*
X157370500Y-111662686D01*
X157370499Y-111662685D01*
X157370498Y-111662683D01*
X157343639Y-111635824D01*
X157336351Y-111620196D01*
X157325264Y-111606983D01*
X157322268Y-111589996D01*
X157320801Y-111586848D01*
X157320500Y-111579963D01*
X157320500Y-110338256D01*
X157323192Y-110317809D01*
X157326004Y-110307314D01*
X157331500Y-110286803D01*
X157331500Y-109723393D01*
X170359500Y-109723393D01*
X170359500Y-109896606D01*
X170359501Y-109896622D01*
X170386595Y-110067690D01*
X170386600Y-110067709D01*
X170427371Y-110193187D01*
X170440127Y-110232445D01*
X170503750Y-110357314D01*
X170518771Y-110386793D01*
X170518772Y-110386794D01*
X170620580Y-110526920D01*
X170620586Y-110526928D01*
X170620590Y-110526932D01*
X170620595Y-110526938D01*
X170743061Y-110649404D01*
X170743067Y-110649409D01*
X170743072Y-110649414D01*
X170743079Y-110649419D01*
X170854675Y-110730499D01*
X170883212Y-110751232D01*
X171037555Y-110829873D01*
X171202299Y-110883402D01*
X171202305Y-110883402D01*
X171202309Y-110883404D01*
X171340398Y-110905274D01*
X171373389Y-110910500D01*
X171373394Y-110910500D01*
X171546606Y-110910500D01*
X171546611Y-110910500D01*
X171632156Y-110896951D01*
X171717690Y-110883404D01*
X171717692Y-110883403D01*
X171717701Y-110883402D01*
X171882445Y-110829873D01*
X172036788Y-110751232D01*
X172176928Y-110649414D01*
X172299414Y-110526928D01*
X172401232Y-110386788D01*
X172479873Y-110232445D01*
X172533402Y-110067701D01*
X172534781Y-110058998D01*
X172554561Y-109934108D01*
X172560500Y-109896611D01*
X172560500Y-109723389D01*
X172544767Y-109624053D01*
X172533404Y-109552309D01*
X172533402Y-109552305D01*
X172533402Y-109552299D01*
X172479873Y-109387555D01*
X172401232Y-109233212D01*
X172299414Y-109093072D01*
X172299409Y-109093067D01*
X172299404Y-109093061D01*
X172176938Y-108970595D01*
X172176932Y-108970590D01*
X172176928Y-108970586D01*
X172106657Y-108919531D01*
X172036794Y-108868772D01*
X172036793Y-108868771D01*
X172036790Y-108868769D01*
X172036788Y-108868768D01*
X171882445Y-108790127D01*
X171882444Y-108790126D01*
X171717709Y-108736600D01*
X171717690Y-108736595D01*
X171546622Y-108709501D01*
X171546614Y-108709500D01*
X171546611Y-108709500D01*
X171373389Y-108709500D01*
X171373386Y-108709500D01*
X171373377Y-108709501D01*
X171202309Y-108736595D01*
X171202290Y-108736600D01*
X171037556Y-108790126D01*
X170883206Y-108868771D01*
X170883205Y-108868772D01*
X170743079Y-108970580D01*
X170743061Y-108970595D01*
X170620595Y-109093061D01*
X170620580Y-109093079D01*
X170518772Y-109233205D01*
X170518771Y-109233206D01*
X170440126Y-109387556D01*
X170386600Y-109552290D01*
X170386595Y-109552309D01*
X170359501Y-109723377D01*
X170359500Y-109723393D01*
X157331500Y-109723393D01*
X157331500Y-109713197D01*
X157307614Y-109624053D01*
X157307613Y-109624051D01*
X157294065Y-109600585D01*
X157294064Y-109600584D01*
X157285331Y-109585458D01*
X157261470Y-109544129D01*
X157261469Y-109544128D01*
X157261469Y-109544127D01*
X156636873Y-108919531D01*
X156556949Y-108873386D01*
X156556944Y-108873384D01*
X156539714Y-108868768D01*
X156539713Y-108868768D01*
X156473919Y-108851138D01*
X156438507Y-108830693D01*
X156407314Y-108799500D01*
X156391078Y-108790126D01*
X156293187Y-108733608D01*
X156293183Y-108733607D01*
X156165894Y-108699500D01*
X156165892Y-108699500D01*
X156034108Y-108699500D01*
X156034105Y-108699500D01*
X155906816Y-108733607D01*
X155906812Y-108733608D01*
X155792683Y-108799501D01*
X155699501Y-108892683D01*
X155633608Y-109006812D01*
X155633607Y-109006816D01*
X155599500Y-109134105D01*
X143250500Y-109134105D01*
X143250500Y-108477904D01*
X143268982Y-108427124D01*
X143273639Y-108422043D01*
X143672043Y-108023639D01*
X143721019Y-108000801D01*
X143727904Y-108000500D01*
X143765890Y-108000500D01*
X143765892Y-108000500D01*
X143893186Y-107966392D01*
X144007314Y-107900500D01*
X144100500Y-107807314D01*
X144102353Y-107804105D01*
X158499500Y-107804105D01*
X158499500Y-107935894D01*
X158533607Y-108063183D01*
X158533608Y-108063187D01*
X158599501Y-108177316D01*
X158692683Y-108270498D01*
X158692685Y-108270499D01*
X158692686Y-108270500D01*
X158806814Y-108336392D01*
X158934108Y-108370500D01*
X158934110Y-108370500D01*
X159065890Y-108370500D01*
X159065892Y-108370500D01*
X159193186Y-108336392D01*
X159307314Y-108270500D01*
X159400500Y-108177314D01*
X159466392Y-108063186D01*
X159500500Y-107935892D01*
X159500500Y-107804108D01*
X159466392Y-107676814D01*
X159446470Y-107642309D01*
X159400498Y-107562683D01*
X159307316Y-107469501D01*
X159246009Y-107434105D01*
X165199500Y-107434105D01*
X165199500Y-107565894D01*
X165233607Y-107693183D01*
X165233608Y-107693187D01*
X165299501Y-107807316D01*
X165392683Y-107900498D01*
X165392685Y-107900499D01*
X165392686Y-107900500D01*
X165506814Y-107966392D01*
X165634108Y-108000500D01*
X165634110Y-108000500D01*
X165765890Y-108000500D01*
X165765892Y-108000500D01*
X165893186Y-107966392D01*
X166007314Y-107900500D01*
X166100500Y-107807314D01*
X166166392Y-107693186D01*
X166200500Y-107565892D01*
X166200500Y-107434108D01*
X166166392Y-107306814D01*
X166100500Y-107192686D01*
X166100499Y-107192684D01*
X166091208Y-107183393D01*
X170359500Y-107183393D01*
X170359500Y-107356606D01*
X170359501Y-107356622D01*
X170386595Y-107527690D01*
X170386600Y-107527709D01*
X170440126Y-107692443D01*
X170440127Y-107692445D01*
X170501744Y-107813377D01*
X170518771Y-107846793D01*
X170518772Y-107846794D01*
X170620580Y-107986920D01*
X170620586Y-107986928D01*
X170620590Y-107986932D01*
X170620595Y-107986938D01*
X170743061Y-108109404D01*
X170743067Y-108109409D01*
X170743072Y-108109414D01*
X170883212Y-108211232D01*
X171037555Y-108289873D01*
X171202299Y-108343402D01*
X171202305Y-108343402D01*
X171202309Y-108343404D01*
X171340398Y-108365274D01*
X171373389Y-108370500D01*
X171373394Y-108370500D01*
X171546606Y-108370500D01*
X171546611Y-108370500D01*
X171632156Y-108356951D01*
X171717690Y-108343404D01*
X171717692Y-108343403D01*
X171717701Y-108343402D01*
X171882445Y-108289873D01*
X172036788Y-108211232D01*
X172176928Y-108109414D01*
X172299414Y-107986928D01*
X172401232Y-107846788D01*
X172479873Y-107692445D01*
X172533402Y-107527701D01*
X172534167Y-107522875D01*
X172553056Y-107403608D01*
X172560500Y-107356611D01*
X172560500Y-107183389D01*
X172555274Y-107150398D01*
X172533404Y-107012309D01*
X172533402Y-107012305D01*
X172533402Y-107012299D01*
X172479873Y-106847555D01*
X172401232Y-106693212D01*
X172299414Y-106553072D01*
X172299409Y-106553067D01*
X172299404Y-106553061D01*
X172176938Y-106430595D01*
X172176932Y-106430590D01*
X172176928Y-106430586D01*
X172036794Y-106328772D01*
X172036793Y-106328771D01*
X172036790Y-106328769D01*
X172036788Y-106328768D01*
X171882445Y-106250127D01*
X171882444Y-106250126D01*
X171717709Y-106196600D01*
X171717690Y-106196595D01*
X171546622Y-106169501D01*
X171546614Y-106169500D01*
X171546611Y-106169500D01*
X171373389Y-106169500D01*
X171373386Y-106169500D01*
X171373377Y-106169501D01*
X171202309Y-106196595D01*
X171202290Y-106196600D01*
X171037556Y-106250126D01*
X170883206Y-106328771D01*
X170883205Y-106328772D01*
X170743079Y-106430580D01*
X170743061Y-106430595D01*
X170620595Y-106553061D01*
X170620580Y-106553079D01*
X170518772Y-106693205D01*
X170518771Y-106693206D01*
X170440126Y-106847556D01*
X170386600Y-107012290D01*
X170386595Y-107012309D01*
X170359501Y-107183377D01*
X170359500Y-107183393D01*
X166091208Y-107183393D01*
X166007316Y-107099501D01*
X165893187Y-107033608D01*
X165893183Y-107033607D01*
X165765894Y-106999500D01*
X165765892Y-106999500D01*
X165634108Y-106999500D01*
X165634105Y-106999500D01*
X165506816Y-107033607D01*
X165506812Y-107033608D01*
X165392683Y-107099501D01*
X165299501Y-107192683D01*
X165233608Y-107306812D01*
X165233607Y-107306816D01*
X165199500Y-107434105D01*
X159246009Y-107434105D01*
X159193187Y-107403608D01*
X159193183Y-107403607D01*
X159065894Y-107369500D01*
X159065892Y-107369500D01*
X158934108Y-107369500D01*
X158934105Y-107369500D01*
X158806816Y-107403607D01*
X158806812Y-107403608D01*
X158692683Y-107469501D01*
X158599501Y-107562683D01*
X158533608Y-107676812D01*
X158533607Y-107676816D01*
X158499500Y-107804105D01*
X144102353Y-107804105D01*
X144166392Y-107693186D01*
X144200500Y-107565892D01*
X144200500Y-107434108D01*
X144166392Y-107306814D01*
X144100500Y-107192686D01*
X144100499Y-107192685D01*
X144100498Y-107192683D01*
X144007316Y-107099501D01*
X143893187Y-107033608D01*
X143893183Y-107033607D01*
X143765894Y-106999500D01*
X143765892Y-106999500D01*
X143634108Y-106999500D01*
X143634105Y-106999500D01*
X143506816Y-107033607D01*
X143506812Y-107033608D01*
X143392683Y-107099501D01*
X143299501Y-107192683D01*
X143233608Y-107306812D01*
X143233607Y-107306816D01*
X143199500Y-107434105D01*
X143199500Y-107472095D01*
X143181018Y-107522875D01*
X143176361Y-107527956D01*
X142619531Y-108084785D01*
X142605318Y-108109404D01*
X142577434Y-108157701D01*
X142574667Y-108162492D01*
X142573384Y-108164715D01*
X142549500Y-108253853D01*
X142549500Y-109309963D01*
X142531018Y-109360743D01*
X142526361Y-109365824D01*
X142499501Y-109392683D01*
X142433608Y-109506812D01*
X142433607Y-109506816D01*
X142399500Y-109634105D01*
X130150448Y-109634105D01*
X130116938Y-109600595D01*
X130116932Y-109600590D01*
X130116928Y-109600586D01*
X130115435Y-109599501D01*
X129976794Y-109498772D01*
X129976793Y-109498771D01*
X129976790Y-109498769D01*
X129976788Y-109498768D01*
X129822445Y-109420127D01*
X129822444Y-109420126D01*
X129657709Y-109366600D01*
X129657690Y-109366595D01*
X129486622Y-109339501D01*
X129486614Y-109339500D01*
X129486611Y-109339500D01*
X129313389Y-109339500D01*
X129313386Y-109339500D01*
X129313377Y-109339501D01*
X129142309Y-109366595D01*
X129142290Y-109366600D01*
X128977556Y-109420126D01*
X128823206Y-109498771D01*
X128823205Y-109498772D01*
X128683079Y-109600580D01*
X128683061Y-109600595D01*
X128560595Y-109723061D01*
X128560580Y-109723079D01*
X128458772Y-109863205D01*
X128458771Y-109863206D01*
X128380126Y-110017556D01*
X128326600Y-110182290D01*
X128326595Y-110182309D01*
X128299501Y-110353377D01*
X128299500Y-110353393D01*
X127960500Y-110353393D01*
X127960500Y-110353389D01*
X127949954Y-110286802D01*
X127933404Y-110182309D01*
X127933402Y-110182305D01*
X127933402Y-110182299D01*
X127879873Y-110017555D01*
X127801232Y-109863212D01*
X127699414Y-109723072D01*
X127699409Y-109723067D01*
X127699404Y-109723061D01*
X127576938Y-109600595D01*
X127576932Y-109600590D01*
X127576928Y-109600586D01*
X127575435Y-109599501D01*
X127436794Y-109498772D01*
X127436793Y-109498771D01*
X127436790Y-109498769D01*
X127436788Y-109498768D01*
X127282445Y-109420127D01*
X127282444Y-109420126D01*
X127117709Y-109366600D01*
X127117690Y-109366595D01*
X126946622Y-109339501D01*
X126946614Y-109339500D01*
X126946611Y-109339500D01*
X126773389Y-109339500D01*
X126773386Y-109339500D01*
X126773377Y-109339501D01*
X126602309Y-109366595D01*
X126602290Y-109366600D01*
X126437556Y-109420126D01*
X126283206Y-109498771D01*
X126283205Y-109498772D01*
X126143079Y-109600580D01*
X126143061Y-109600595D01*
X126020595Y-109723061D01*
X126020580Y-109723079D01*
X125918772Y-109863205D01*
X125918771Y-109863206D01*
X125840126Y-110017556D01*
X125786600Y-110182290D01*
X125786595Y-110182309D01*
X125759501Y-110353377D01*
X125759500Y-110353393D01*
X125000500Y-110353393D01*
X125000500Y-107813393D01*
X125759500Y-107813393D01*
X125759500Y-107986606D01*
X125759501Y-107986622D01*
X125786595Y-108157690D01*
X125786600Y-108157709D01*
X125840126Y-108322443D01*
X125840127Y-108322445D01*
X125890874Y-108422043D01*
X125918771Y-108476793D01*
X125918772Y-108476794D01*
X126020580Y-108616920D01*
X126020586Y-108616928D01*
X126020590Y-108616932D01*
X126020595Y-108616938D01*
X126143061Y-108739404D01*
X126143067Y-108739409D01*
X126143072Y-108739414D01*
X126283212Y-108841232D01*
X126437555Y-108919873D01*
X126602299Y-108973402D01*
X126602305Y-108973402D01*
X126602309Y-108973404D01*
X126740398Y-108995274D01*
X126773389Y-109000500D01*
X126773394Y-109000500D01*
X126946606Y-109000500D01*
X126946611Y-109000500D01*
X127032156Y-108986951D01*
X127117690Y-108973404D01*
X127117692Y-108973403D01*
X127117701Y-108973402D01*
X127282445Y-108919873D01*
X127436788Y-108841232D01*
X127576928Y-108739414D01*
X127699414Y-108616928D01*
X127801232Y-108476788D01*
X127879873Y-108322445D01*
X127933402Y-108157701D01*
X127941052Y-108109404D01*
X127954635Y-108023639D01*
X127960500Y-107986611D01*
X127960500Y-107813393D01*
X128299500Y-107813393D01*
X128299500Y-107986606D01*
X128299501Y-107986622D01*
X128326595Y-108157690D01*
X128326600Y-108157709D01*
X128380126Y-108322443D01*
X128380127Y-108322445D01*
X128430874Y-108422043D01*
X128458771Y-108476793D01*
X128458772Y-108476794D01*
X128560580Y-108616920D01*
X128560586Y-108616928D01*
X128560590Y-108616932D01*
X128560595Y-108616938D01*
X128683061Y-108739404D01*
X128683067Y-108739409D01*
X128683072Y-108739414D01*
X128823212Y-108841232D01*
X128977555Y-108919873D01*
X129142299Y-108973402D01*
X129142305Y-108973402D01*
X129142309Y-108973404D01*
X129280398Y-108995274D01*
X129313389Y-109000500D01*
X129313394Y-109000500D01*
X129486606Y-109000500D01*
X129486611Y-109000500D01*
X129572156Y-108986951D01*
X129657690Y-108973404D01*
X129657692Y-108973403D01*
X129657701Y-108973402D01*
X129822445Y-108919873D01*
X129976788Y-108841232D01*
X130116928Y-108739414D01*
X130239414Y-108616928D01*
X130341232Y-108476788D01*
X130419873Y-108322445D01*
X130473402Y-108157701D01*
X130481052Y-108109404D01*
X130494635Y-108023639D01*
X130500500Y-107986611D01*
X130500500Y-107813389D01*
X130481461Y-107693183D01*
X130473404Y-107642309D01*
X130473402Y-107642305D01*
X130473402Y-107642299D01*
X130419873Y-107477555D01*
X130341232Y-107323212D01*
X130239414Y-107183072D01*
X130239409Y-107183067D01*
X130239404Y-107183061D01*
X130116938Y-107060595D01*
X130116932Y-107060590D01*
X130116928Y-107060586D01*
X130050467Y-107012299D01*
X129976794Y-106958772D01*
X129976793Y-106958771D01*
X129976790Y-106958769D01*
X129976788Y-106958768D01*
X129822445Y-106880127D01*
X129822444Y-106880126D01*
X129657709Y-106826600D01*
X129657690Y-106826595D01*
X129486622Y-106799501D01*
X129486614Y-106799500D01*
X129486611Y-106799500D01*
X129313389Y-106799500D01*
X129313386Y-106799500D01*
X129313377Y-106799501D01*
X129142309Y-106826595D01*
X129142290Y-106826600D01*
X128977556Y-106880126D01*
X128823206Y-106958771D01*
X128823205Y-106958772D01*
X128683079Y-107060580D01*
X128683061Y-107060595D01*
X128560595Y-107183061D01*
X128560580Y-107183079D01*
X128458772Y-107323205D01*
X128458771Y-107323206D01*
X128380126Y-107477556D01*
X128326600Y-107642290D01*
X128326595Y-107642309D01*
X128299501Y-107813377D01*
X128299500Y-107813393D01*
X127960500Y-107813393D01*
X127960500Y-107813389D01*
X127941461Y-107693183D01*
X127933404Y-107642309D01*
X127933402Y-107642305D01*
X127933402Y-107642299D01*
X127879873Y-107477555D01*
X127801232Y-107323212D01*
X127699414Y-107183072D01*
X127699409Y-107183067D01*
X127699404Y-107183061D01*
X127576938Y-107060595D01*
X127576932Y-107060590D01*
X127576928Y-107060586D01*
X127510467Y-107012299D01*
X127436794Y-106958772D01*
X127436793Y-106958771D01*
X127436790Y-106958769D01*
X127436788Y-106958768D01*
X127282445Y-106880127D01*
X127282444Y-106880126D01*
X127117709Y-106826600D01*
X127117690Y-106826595D01*
X126946622Y-106799501D01*
X126946614Y-106799500D01*
X126946611Y-106799500D01*
X126773389Y-106799500D01*
X126773386Y-106799500D01*
X126773377Y-106799501D01*
X126602309Y-106826595D01*
X126602290Y-106826600D01*
X126437556Y-106880126D01*
X126283206Y-106958771D01*
X126283205Y-106958772D01*
X126143079Y-107060580D01*
X126143061Y-107060595D01*
X126020595Y-107183061D01*
X126020580Y-107183079D01*
X125918772Y-107323205D01*
X125918771Y-107323206D01*
X125840126Y-107477556D01*
X125786600Y-107642290D01*
X125786595Y-107642309D01*
X125759501Y-107813377D01*
X125759500Y-107813393D01*
X125000500Y-107813393D01*
X125000500Y-105273393D01*
X125759500Y-105273393D01*
X125759500Y-105446606D01*
X125759501Y-105446622D01*
X125786595Y-105617690D01*
X125786600Y-105617709D01*
X125839839Y-105781560D01*
X125840127Y-105782445D01*
X125914600Y-105928608D01*
X125918771Y-105936793D01*
X125918772Y-105936794D01*
X125972322Y-106010499D01*
X126020586Y-106076928D01*
X126020590Y-106076932D01*
X126020595Y-106076938D01*
X126143061Y-106199404D01*
X126143067Y-106199409D01*
X126143072Y-106199414D01*
X126283212Y-106301232D01*
X126437555Y-106379873D01*
X126602299Y-106433402D01*
X126602305Y-106433402D01*
X126602309Y-106433404D01*
X126740398Y-106455274D01*
X126773389Y-106460500D01*
X126773394Y-106460500D01*
X126946606Y-106460500D01*
X126946611Y-106460500D01*
X127032156Y-106446951D01*
X127117690Y-106433404D01*
X127117692Y-106433403D01*
X127117701Y-106433402D01*
X127282445Y-106379873D01*
X127436788Y-106301232D01*
X127576928Y-106199414D01*
X127699414Y-106076928D01*
X127801232Y-105936788D01*
X127879873Y-105782445D01*
X127933402Y-105617701D01*
X127941052Y-105569404D01*
X127955788Y-105476361D01*
X127960500Y-105446611D01*
X127960500Y-105273393D01*
X128299500Y-105273393D01*
X128299500Y-105446606D01*
X128299501Y-105446622D01*
X128326595Y-105617690D01*
X128326600Y-105617709D01*
X128379839Y-105781560D01*
X128380127Y-105782445D01*
X128454600Y-105928608D01*
X128458771Y-105936793D01*
X128458772Y-105936794D01*
X128512322Y-106010499D01*
X128560586Y-106076928D01*
X128560590Y-106076932D01*
X128560595Y-106076938D01*
X128683061Y-106199404D01*
X128683067Y-106199409D01*
X128683072Y-106199414D01*
X128823212Y-106301232D01*
X128977555Y-106379873D01*
X129142299Y-106433402D01*
X129142305Y-106433402D01*
X129142309Y-106433404D01*
X129280398Y-106455274D01*
X129313389Y-106460500D01*
X129313394Y-106460500D01*
X129486606Y-106460500D01*
X129486611Y-106460500D01*
X129572156Y-106446951D01*
X129657690Y-106433404D01*
X129657692Y-106433403D01*
X129657701Y-106433402D01*
X129822445Y-106379873D01*
X129976788Y-106301232D01*
X130116928Y-106199414D01*
X130239414Y-106076928D01*
X130341232Y-105936788D01*
X130419873Y-105782445D01*
X130473402Y-105617701D01*
X130481052Y-105569404D01*
X130495788Y-105476361D01*
X130500500Y-105446611D01*
X130500500Y-105444105D01*
X156029500Y-105444105D01*
X156029500Y-105575894D01*
X156063607Y-105703183D01*
X156063608Y-105703187D01*
X156129501Y-105817316D01*
X156222683Y-105910498D01*
X156222685Y-105910499D01*
X156222686Y-105910500D01*
X156289370Y-105949000D01*
X156319493Y-105966392D01*
X156336814Y-105976392D01*
X156464108Y-106010500D01*
X156464110Y-106010500D01*
X156595890Y-106010500D01*
X156595892Y-106010500D01*
X156723186Y-105976392D01*
X156837314Y-105910500D01*
X156930500Y-105817314D01*
X156951142Y-105781559D01*
X156992536Y-105746826D01*
X157046575Y-105746825D01*
X157087972Y-105781560D01*
X157092542Y-105790825D01*
X157093545Y-105793247D01*
X157159439Y-105907378D01*
X157252621Y-106000560D01*
X157252623Y-106000561D01*
X157252624Y-106000562D01*
X157366752Y-106066454D01*
X157494046Y-106100562D01*
X157586459Y-106100562D01*
X157625957Y-106111145D01*
X157672431Y-106137977D01*
X157756489Y-106160500D01*
X157756491Y-106160500D01*
X159093509Y-106160500D01*
X159093511Y-106160500D01*
X159177568Y-106137977D01*
X159252932Y-106094466D01*
X159493758Y-105853638D01*
X159542735Y-105830801D01*
X159549620Y-105830500D01*
X162596910Y-105830500D01*
X162647690Y-105848982D01*
X162674710Y-105895782D01*
X162665326Y-105949000D01*
X162636412Y-105977914D01*
X162607686Y-105994500D01*
X162607681Y-105994503D01*
X162514501Y-106087683D01*
X162448608Y-106201812D01*
X162448607Y-106201816D01*
X162414500Y-106329105D01*
X162414500Y-106460894D01*
X162448607Y-106588183D01*
X162448608Y-106588187D01*
X162514501Y-106702316D01*
X162607683Y-106795498D01*
X162607685Y-106795499D01*
X162607686Y-106795500D01*
X162721814Y-106861392D01*
X162849108Y-106895500D01*
X162849110Y-106895500D01*
X162980890Y-106895500D01*
X162980892Y-106895500D01*
X163108186Y-106861392D01*
X163222314Y-106795500D01*
X163315500Y-106702314D01*
X163381392Y-106588186D01*
X163415500Y-106460892D01*
X163415500Y-106329108D01*
X163381392Y-106201814D01*
X163380006Y-106199414D01*
X163344535Y-106137976D01*
X163315500Y-106087686D01*
X163315499Y-106087685D01*
X163315498Y-106087683D01*
X163222318Y-105994503D01*
X163222315Y-105994501D01*
X163222314Y-105994500D01*
X163193588Y-105977915D01*
X163158854Y-105936519D01*
X163158854Y-105882480D01*
X163193591Y-105841084D01*
X163233090Y-105830500D01*
X164699964Y-105830500D01*
X164750744Y-105848982D01*
X164755814Y-105853628D01*
X164802686Y-105900500D01*
X164916814Y-105966392D01*
X165044108Y-106000500D01*
X165044110Y-106000500D01*
X165175890Y-106000500D01*
X165175892Y-106000500D01*
X165303186Y-105966392D01*
X165417314Y-105900500D01*
X165510500Y-105807314D01*
X165576392Y-105693186D01*
X165610500Y-105565892D01*
X165610500Y-105434108D01*
X165576392Y-105306814D01*
X165576380Y-105306794D01*
X165530840Y-105227916D01*
X165510500Y-105192686D01*
X165510499Y-105192685D01*
X165510498Y-105192683D01*
X165417316Y-105099501D01*
X165363692Y-105068541D01*
X165328956Y-105027144D01*
X165328956Y-104973105D01*
X165334777Y-104960624D01*
X165356390Y-104923189D01*
X165356392Y-104923186D01*
X165390500Y-104795892D01*
X165390500Y-104664108D01*
X165384950Y-104643393D01*
X170359500Y-104643393D01*
X170359500Y-104816606D01*
X170359501Y-104816622D01*
X170386595Y-104987690D01*
X170386600Y-104987709D01*
X170437962Y-105145782D01*
X170440127Y-105152445D01*
X170513815Y-105297068D01*
X170518771Y-105306793D01*
X170518772Y-105306794D01*
X170620580Y-105446920D01*
X170620586Y-105446928D01*
X170620590Y-105446932D01*
X170620595Y-105446938D01*
X170743061Y-105569404D01*
X170743067Y-105569409D01*
X170743072Y-105569414D01*
X170883212Y-105671232D01*
X171037555Y-105749873D01*
X171202299Y-105803402D01*
X171202305Y-105803402D01*
X171202309Y-105803404D01*
X171340398Y-105825274D01*
X171373389Y-105830500D01*
X171373394Y-105830500D01*
X171546606Y-105830500D01*
X171546611Y-105830500D01*
X171632156Y-105816951D01*
X171717690Y-105803404D01*
X171717692Y-105803403D01*
X171717701Y-105803402D01*
X171882445Y-105749873D01*
X172036788Y-105671232D01*
X172176928Y-105569414D01*
X172299414Y-105446928D01*
X172401232Y-105306788D01*
X172479873Y-105152445D01*
X172533402Y-104987701D01*
X172560500Y-104816611D01*
X172560500Y-104643389D01*
X172543620Y-104536814D01*
X172533404Y-104472309D01*
X172533402Y-104472305D01*
X172533402Y-104472299D01*
X172479873Y-104307555D01*
X172401232Y-104153212D01*
X172299414Y-104013072D01*
X172299409Y-104013067D01*
X172299404Y-104013061D01*
X172176938Y-103890595D01*
X172176932Y-103890590D01*
X172176928Y-103890586D01*
X172107128Y-103839873D01*
X172036794Y-103788772D01*
X172036793Y-103788771D01*
X172036790Y-103788769D01*
X172036788Y-103788768D01*
X171882445Y-103710127D01*
X171882444Y-103710126D01*
X171717709Y-103656600D01*
X171717690Y-103656595D01*
X171546622Y-103629501D01*
X171546614Y-103629500D01*
X171546611Y-103629500D01*
X171373389Y-103629500D01*
X171373386Y-103629500D01*
X171373377Y-103629501D01*
X171202309Y-103656595D01*
X171202290Y-103656600D01*
X171037556Y-103710126D01*
X170883206Y-103788771D01*
X170883205Y-103788772D01*
X170743079Y-103890580D01*
X170743061Y-103890595D01*
X170620595Y-104013061D01*
X170620580Y-104013079D01*
X170518772Y-104153205D01*
X170518771Y-104153206D01*
X170440126Y-104307556D01*
X170386600Y-104472290D01*
X170386595Y-104472309D01*
X170359501Y-104643377D01*
X170359500Y-104643393D01*
X165384950Y-104643393D01*
X165373308Y-104599945D01*
X165378018Y-104546113D01*
X165416229Y-104507902D01*
X165449616Y-104500500D01*
X165565890Y-104500500D01*
X165565892Y-104500500D01*
X165693186Y-104466392D01*
X165807314Y-104400500D01*
X165900500Y-104307314D01*
X165966392Y-104193186D01*
X166000500Y-104065892D01*
X166000500Y-103934108D01*
X165966392Y-103806814D01*
X165955975Y-103788772D01*
X165912505Y-103713480D01*
X165900500Y-103692686D01*
X165900499Y-103692685D01*
X165900498Y-103692683D01*
X165807316Y-103599501D01*
X165693187Y-103533608D01*
X165693183Y-103533607D01*
X165565894Y-103499500D01*
X165565892Y-103499500D01*
X165434108Y-103499500D01*
X165434105Y-103499500D01*
X165306816Y-103533607D01*
X165306812Y-103533608D01*
X165192685Y-103599500D01*
X165169255Y-103622930D01*
X165145824Y-103646361D01*
X165096850Y-103669199D01*
X165089964Y-103669500D01*
X164275655Y-103669500D01*
X164224875Y-103651018D01*
X164197855Y-103604218D01*
X164207239Y-103551000D01*
X164246392Y-103483186D01*
X164280500Y-103355892D01*
X164280500Y-103224108D01*
X164246392Y-103096814D01*
X164180500Y-102982686D01*
X164180499Y-102982685D01*
X164180498Y-102982683D01*
X164087316Y-102889501D01*
X163973187Y-102823608D01*
X163973183Y-102823607D01*
X163845894Y-102789500D01*
X163845892Y-102789500D01*
X163714108Y-102789500D01*
X163714105Y-102789500D01*
X163586816Y-102823607D01*
X163586812Y-102823608D01*
X163472683Y-102889501D01*
X163379501Y-102982683D01*
X163313608Y-103096812D01*
X163313607Y-103096816D01*
X163279500Y-103224105D01*
X163279500Y-103355894D01*
X163313607Y-103483183D01*
X163313608Y-103483187D01*
X163379501Y-103597316D01*
X163466823Y-103684638D01*
X163489661Y-103733614D01*
X163475675Y-103785812D01*
X163431409Y-103816807D01*
X163410962Y-103819499D01*
X162534431Y-103819499D01*
X162483651Y-103801017D01*
X162456631Y-103754217D01*
X162466015Y-103700999D01*
X162494931Y-103672083D01*
X162499926Y-103669199D01*
X162532314Y-103650500D01*
X162625500Y-103557314D01*
X162691392Y-103443186D01*
X162725500Y-103315892D01*
X162725500Y-103184108D01*
X162691392Y-103056814D01*
X162675575Y-103029419D01*
X162625498Y-102942683D01*
X162532316Y-102849501D01*
X162418187Y-102783608D01*
X162418183Y-102783607D01*
X162290894Y-102749500D01*
X162290892Y-102749500D01*
X162159108Y-102749500D01*
X162159105Y-102749500D01*
X162031816Y-102783607D01*
X162031812Y-102783608D01*
X161917683Y-102849501D01*
X161824501Y-102942683D01*
X161758608Y-103056812D01*
X161758607Y-103056816D01*
X161724500Y-103184105D01*
X161724500Y-103315894D01*
X161758607Y-103443183D01*
X161758608Y-103443187D01*
X161824501Y-103557316D01*
X161917683Y-103650498D01*
X161917685Y-103650499D01*
X161917686Y-103650500D01*
X161933134Y-103659419D01*
X161955069Y-103672083D01*
X161989805Y-103713480D01*
X161989805Y-103767519D01*
X161955069Y-103808915D01*
X161915569Y-103819499D01*
X159187365Y-103819499D01*
X159136585Y-103801017D01*
X159124256Y-103786327D01*
X159123651Y-103786792D01*
X159120499Y-103782684D01*
X159027316Y-103689501D01*
X158913187Y-103623608D01*
X158913183Y-103623607D01*
X158785894Y-103589500D01*
X158785892Y-103589500D01*
X158654108Y-103589500D01*
X158654105Y-103589500D01*
X158526816Y-103623607D01*
X158526814Y-103623607D01*
X158474191Y-103653989D01*
X158463789Y-103655822D01*
X158455139Y-103661880D01*
X158437959Y-103660376D01*
X158420973Y-103663372D01*
X158410626Y-103657985D01*
X158401305Y-103657170D01*
X158378831Y-103641433D01*
X158361932Y-103624534D01*
X158062932Y-103325534D01*
X158061588Y-103324503D01*
X158059356Y-103321958D01*
X158059270Y-103321872D01*
X158059275Y-103321866D01*
X158041261Y-103301325D01*
X158030500Y-103282686D01*
X158030499Y-103282685D01*
X158030498Y-103282683D01*
X157937316Y-103189501D01*
X157823187Y-103123608D01*
X157823183Y-103123607D01*
X157695894Y-103089500D01*
X157695892Y-103089500D01*
X157564108Y-103089500D01*
X157564105Y-103089500D01*
X157436816Y-103123607D01*
X157436812Y-103123608D01*
X157322683Y-103189501D01*
X157229501Y-103282683D01*
X157163608Y-103396812D01*
X157163607Y-103396816D01*
X157129500Y-103524105D01*
X157129500Y-103655894D01*
X157163607Y-103783183D01*
X157163608Y-103783187D01*
X157229501Y-103897316D01*
X157322683Y-103990498D01*
X157322685Y-103990499D01*
X157322686Y-103990500D01*
X157436814Y-104056392D01*
X157564108Y-104090500D01*
X157564110Y-104090500D01*
X157695890Y-104090500D01*
X157695892Y-104090500D01*
X157729054Y-104081614D01*
X157782886Y-104086323D01*
X157821098Y-104124535D01*
X157828500Y-104157922D01*
X157828500Y-104365887D01*
X157851022Y-104449939D01*
X157851023Y-104449943D01*
X157863936Y-104472309D01*
X157894534Y-104525306D01*
X158012621Y-104643393D01*
X158076851Y-104707622D01*
X158099689Y-104756598D01*
X158085703Y-104808796D01*
X158060490Y-104831900D01*
X158012683Y-104859501D01*
X157919501Y-104952683D01*
X157853607Y-105066813D01*
X157850609Y-105078005D01*
X157819612Y-105122271D01*
X157767414Y-105136256D01*
X157753855Y-105133865D01*
X157625832Y-105099562D01*
X157625830Y-105099562D01*
X157494046Y-105099562D01*
X157494043Y-105099562D01*
X157366754Y-105133669D01*
X157366750Y-105133670D01*
X157252621Y-105199563D01*
X157159439Y-105292746D01*
X157159438Y-105292746D01*
X157138795Y-105328501D01*
X157097399Y-105363236D01*
X157043359Y-105363235D01*
X157001963Y-105328499D01*
X156997393Y-105319231D01*
X156996391Y-105316812D01*
X156971323Y-105273393D01*
X156930500Y-105202686D01*
X156930499Y-105202685D01*
X156930498Y-105202683D01*
X156837316Y-105109501D01*
X156723187Y-105043608D01*
X156723183Y-105043607D01*
X156595894Y-105009500D01*
X156595892Y-105009500D01*
X156464108Y-105009500D01*
X156464105Y-105009500D01*
X156336816Y-105043607D01*
X156336812Y-105043608D01*
X156222683Y-105109501D01*
X156129501Y-105202683D01*
X156063608Y-105316812D01*
X156063607Y-105316816D01*
X156029500Y-105444105D01*
X130500500Y-105444105D01*
X130500500Y-105273389D01*
X130488718Y-105199000D01*
X130473404Y-105102309D01*
X130473402Y-105102305D01*
X130473402Y-105102299D01*
X130419873Y-104937555D01*
X130341232Y-104783212D01*
X130239414Y-104643072D01*
X130239409Y-104643067D01*
X130239404Y-104643061D01*
X130116938Y-104520595D01*
X130116932Y-104520590D01*
X130116928Y-104520586D01*
X130050467Y-104472299D01*
X129976794Y-104418772D01*
X129976793Y-104418771D01*
X129976790Y-104418769D01*
X129976788Y-104418768D01*
X129822445Y-104340127D01*
X129822444Y-104340126D01*
X129657709Y-104286600D01*
X129657690Y-104286595D01*
X129486622Y-104259501D01*
X129486614Y-104259500D01*
X129486611Y-104259500D01*
X129313389Y-104259500D01*
X129313386Y-104259500D01*
X129313377Y-104259501D01*
X129142309Y-104286595D01*
X129142290Y-104286600D01*
X128977556Y-104340126D01*
X128823206Y-104418771D01*
X128823205Y-104418772D01*
X128683079Y-104520580D01*
X128683061Y-104520595D01*
X128560595Y-104643061D01*
X128560580Y-104643079D01*
X128458772Y-104783205D01*
X128458771Y-104783206D01*
X128380126Y-104937556D01*
X128326600Y-105102290D01*
X128326595Y-105102309D01*
X128299501Y-105273377D01*
X128299500Y-105273393D01*
X127960500Y-105273393D01*
X127960500Y-105273389D01*
X127948718Y-105199000D01*
X127933404Y-105102309D01*
X127933402Y-105102305D01*
X127933402Y-105102299D01*
X127879873Y-104937555D01*
X127801232Y-104783212D01*
X127699414Y-104643072D01*
X127699409Y-104643067D01*
X127699404Y-104643061D01*
X127576938Y-104520595D01*
X127576932Y-104520590D01*
X127576928Y-104520586D01*
X127510467Y-104472299D01*
X127436794Y-104418772D01*
X127436793Y-104418771D01*
X127436790Y-104418769D01*
X127436788Y-104418768D01*
X127282445Y-104340127D01*
X127282444Y-104340126D01*
X127117709Y-104286600D01*
X127117690Y-104286595D01*
X126946622Y-104259501D01*
X126946614Y-104259500D01*
X126946611Y-104259500D01*
X126773389Y-104259500D01*
X126773386Y-104259500D01*
X126773377Y-104259501D01*
X126602309Y-104286595D01*
X126602290Y-104286600D01*
X126437556Y-104340126D01*
X126283206Y-104418771D01*
X126283205Y-104418772D01*
X126143079Y-104520580D01*
X126143061Y-104520595D01*
X126020595Y-104643061D01*
X126020580Y-104643079D01*
X125918772Y-104783205D01*
X125918771Y-104783206D01*
X125840126Y-104937556D01*
X125786600Y-105102290D01*
X125786595Y-105102309D01*
X125759501Y-105273377D01*
X125759500Y-105273393D01*
X125000500Y-105273393D01*
X125000500Y-102733393D01*
X125759500Y-102733393D01*
X125759500Y-102906606D01*
X125759501Y-102906622D01*
X125786595Y-103077690D01*
X125786600Y-103077709D01*
X125840126Y-103242443D01*
X125840127Y-103242445D01*
X125881937Y-103324503D01*
X125918771Y-103396793D01*
X125918772Y-103396794D01*
X126018173Y-103533607D01*
X126020586Y-103536928D01*
X126020590Y-103536932D01*
X126020595Y-103536938D01*
X126143061Y-103659404D01*
X126143067Y-103659409D01*
X126143072Y-103659414D01*
X126283212Y-103761232D01*
X126437555Y-103839873D01*
X126602299Y-103893402D01*
X126602305Y-103893402D01*
X126602309Y-103893404D01*
X126740398Y-103915274D01*
X126773389Y-103920500D01*
X126773394Y-103920500D01*
X126946606Y-103920500D01*
X126946611Y-103920500D01*
X127032156Y-103906951D01*
X127117690Y-103893404D01*
X127117692Y-103893403D01*
X127117701Y-103893402D01*
X127282445Y-103839873D01*
X127436788Y-103761232D01*
X127576928Y-103659414D01*
X127699414Y-103536928D01*
X127801232Y-103396788D01*
X127879873Y-103242445D01*
X127933402Y-103077701D01*
X127936711Y-103056812D01*
X127960498Y-102906622D01*
X127960500Y-102906611D01*
X127960500Y-102733393D01*
X128299500Y-102733393D01*
X128299500Y-102906606D01*
X128299501Y-102906622D01*
X128326595Y-103077690D01*
X128326600Y-103077709D01*
X128380126Y-103242443D01*
X128380127Y-103242445D01*
X128421937Y-103324503D01*
X128458771Y-103396793D01*
X128458772Y-103396794D01*
X128558173Y-103533607D01*
X128560586Y-103536928D01*
X128560590Y-103536932D01*
X128560595Y-103536938D01*
X128683061Y-103659404D01*
X128683067Y-103659409D01*
X128683072Y-103659414D01*
X128823212Y-103761232D01*
X128977555Y-103839873D01*
X129142299Y-103893402D01*
X129142305Y-103893402D01*
X129142309Y-103893404D01*
X129280398Y-103915274D01*
X129313389Y-103920500D01*
X129313394Y-103920500D01*
X129486606Y-103920500D01*
X129486611Y-103920500D01*
X129572156Y-103906951D01*
X129657690Y-103893404D01*
X129657692Y-103893403D01*
X129657701Y-103893402D01*
X129822445Y-103839873D01*
X129976788Y-103761232D01*
X130116928Y-103659414D01*
X130239414Y-103536928D01*
X130341232Y-103396788D01*
X130419873Y-103242445D01*
X130473402Y-103077701D01*
X130476711Y-103056812D01*
X130500498Y-102906622D01*
X130500500Y-102906611D01*
X130500500Y-102733389D01*
X130483700Y-102627316D01*
X130473404Y-102562309D01*
X130473402Y-102562305D01*
X130473402Y-102562299D01*
X130419873Y-102397555D01*
X130358249Y-102276611D01*
X130346782Y-102254105D01*
X141439500Y-102254105D01*
X141439500Y-102385894D01*
X141473607Y-102513183D01*
X141473608Y-102513187D01*
X141539501Y-102627316D01*
X141632683Y-102720498D01*
X141632685Y-102720499D01*
X141632686Y-102720500D01*
X141746814Y-102786392D01*
X141874108Y-102820500D01*
X141874110Y-102820500D01*
X142005890Y-102820500D01*
X142005892Y-102820500D01*
X142133186Y-102786392D01*
X142247314Y-102720500D01*
X142340500Y-102627314D01*
X142406392Y-102513186D01*
X142440500Y-102385892D01*
X142440500Y-102254108D01*
X142419063Y-102174105D01*
X166449500Y-102174105D01*
X166449500Y-102305894D01*
X166483607Y-102433183D01*
X166483608Y-102433187D01*
X166549501Y-102547316D01*
X166642683Y-102640498D01*
X166642685Y-102640499D01*
X166642686Y-102640500D01*
X166756814Y-102706392D01*
X166884108Y-102740500D01*
X166884110Y-102740500D01*
X167015890Y-102740500D01*
X167015892Y-102740500D01*
X167143186Y-102706392D01*
X167257314Y-102640500D01*
X167350500Y-102547314D01*
X167416392Y-102433186D01*
X167450500Y-102305892D01*
X167450500Y-102174108D01*
X167431552Y-102103393D01*
X170359500Y-102103393D01*
X170359500Y-102276606D01*
X170359501Y-102276622D01*
X170386595Y-102447690D01*
X170386600Y-102447709D01*
X170440126Y-102612443D01*
X170440127Y-102612445D01*
X170509959Y-102749500D01*
X170518771Y-102766793D01*
X170518772Y-102766794D01*
X170620580Y-102906920D01*
X170620586Y-102906928D01*
X170620590Y-102906932D01*
X170620595Y-102906938D01*
X170743061Y-103029404D01*
X170743067Y-103029409D01*
X170743072Y-103029414D01*
X170883212Y-103131232D01*
X171037555Y-103209873D01*
X171202299Y-103263402D01*
X171202305Y-103263402D01*
X171202309Y-103263404D01*
X171324034Y-103282683D01*
X171373389Y-103290500D01*
X171373394Y-103290500D01*
X171546606Y-103290500D01*
X171546611Y-103290500D01*
X171632156Y-103276951D01*
X171717690Y-103263404D01*
X171717692Y-103263403D01*
X171717701Y-103263402D01*
X171882445Y-103209873D01*
X172036788Y-103131232D01*
X172176928Y-103029414D01*
X172299414Y-102906928D01*
X172401232Y-102766788D01*
X172479873Y-102612445D01*
X172533402Y-102447701D01*
X172535702Y-102433183D01*
X172560498Y-102276622D01*
X172560500Y-102276611D01*
X172560500Y-102103389D01*
X172546134Y-102012683D01*
X172533404Y-101932309D01*
X172533402Y-101932305D01*
X172533402Y-101932299D01*
X172479873Y-101767555D01*
X172401232Y-101613212D01*
X172299414Y-101473072D01*
X172299409Y-101473067D01*
X172299404Y-101473061D01*
X172176938Y-101350595D01*
X172176932Y-101350590D01*
X172176928Y-101350586D01*
X172036794Y-101248772D01*
X172036793Y-101248771D01*
X172036790Y-101248769D01*
X172036788Y-101248768D01*
X171882445Y-101170127D01*
X171882444Y-101170126D01*
X171717709Y-101116600D01*
X171717690Y-101116595D01*
X171546622Y-101089501D01*
X171546614Y-101089500D01*
X171546611Y-101089500D01*
X171373389Y-101089500D01*
X171373386Y-101089500D01*
X171373377Y-101089501D01*
X171202309Y-101116595D01*
X171202290Y-101116600D01*
X171037556Y-101170126D01*
X170883206Y-101248771D01*
X170883205Y-101248772D01*
X170743079Y-101350580D01*
X170743061Y-101350595D01*
X170620595Y-101473061D01*
X170620580Y-101473079D01*
X170518772Y-101613205D01*
X170518771Y-101613206D01*
X170440126Y-101767556D01*
X170386600Y-101932290D01*
X170386595Y-101932309D01*
X170359501Y-102103377D01*
X170359500Y-102103393D01*
X167431552Y-102103393D01*
X167416392Y-102046814D01*
X167350500Y-101932686D01*
X167350499Y-101932685D01*
X167350498Y-101932683D01*
X167257316Y-101839501D01*
X167143187Y-101773608D01*
X167143183Y-101773607D01*
X167015894Y-101739500D01*
X167015892Y-101739500D01*
X166884108Y-101739500D01*
X166884105Y-101739500D01*
X166756816Y-101773607D01*
X166756812Y-101773608D01*
X166642683Y-101839501D01*
X166549501Y-101932683D01*
X166483608Y-102046812D01*
X166483607Y-102046816D01*
X166449500Y-102174105D01*
X142419063Y-102174105D01*
X142406392Y-102126814D01*
X142340500Y-102012686D01*
X142340499Y-102012685D01*
X142340498Y-102012683D01*
X142247316Y-101919501D01*
X142133187Y-101853608D01*
X142133183Y-101853607D01*
X142005894Y-101819500D01*
X142005892Y-101819500D01*
X141874108Y-101819500D01*
X141874105Y-101819500D01*
X141746816Y-101853607D01*
X141746812Y-101853608D01*
X141632683Y-101919501D01*
X141539501Y-102012683D01*
X141473608Y-102126812D01*
X141473607Y-102126816D01*
X141439500Y-102254105D01*
X130346782Y-102254105D01*
X130341234Y-102243216D01*
X130341232Y-102243212D01*
X130239414Y-102103072D01*
X130239409Y-102103067D01*
X130239404Y-102103061D01*
X130116938Y-101980595D01*
X130116932Y-101980590D01*
X130116928Y-101980586D01*
X130051000Y-101932686D01*
X129976794Y-101878772D01*
X129976793Y-101878771D01*
X129976790Y-101878769D01*
X129976788Y-101878768D01*
X129822445Y-101800127D01*
X129822444Y-101800126D01*
X129657709Y-101746600D01*
X129657690Y-101746595D01*
X129486622Y-101719501D01*
X129486614Y-101719500D01*
X129486611Y-101719500D01*
X129313389Y-101719500D01*
X129313386Y-101719500D01*
X129313377Y-101719501D01*
X129142309Y-101746595D01*
X129142290Y-101746600D01*
X128977556Y-101800126D01*
X128823206Y-101878771D01*
X128823205Y-101878772D01*
X128683079Y-101980580D01*
X128683061Y-101980595D01*
X128560595Y-102103061D01*
X128560580Y-102103079D01*
X128458772Y-102243205D01*
X128458771Y-102243206D01*
X128380126Y-102397556D01*
X128326600Y-102562290D01*
X128326595Y-102562309D01*
X128299501Y-102733377D01*
X128299500Y-102733393D01*
X127960500Y-102733393D01*
X127960500Y-102733389D01*
X127943700Y-102627316D01*
X127933404Y-102562309D01*
X127933402Y-102562305D01*
X127933402Y-102562299D01*
X127879873Y-102397555D01*
X127801232Y-102243212D01*
X127699414Y-102103072D01*
X127699409Y-102103067D01*
X127699404Y-102103061D01*
X127576938Y-101980595D01*
X127576932Y-101980590D01*
X127576928Y-101980586D01*
X127511000Y-101932686D01*
X127436794Y-101878772D01*
X127436793Y-101878771D01*
X127436790Y-101878769D01*
X127436788Y-101878768D01*
X127282445Y-101800127D01*
X127282444Y-101800126D01*
X127117709Y-101746600D01*
X127117690Y-101746595D01*
X126946622Y-101719501D01*
X126946614Y-101719500D01*
X126946611Y-101719500D01*
X126773389Y-101719500D01*
X126773386Y-101719500D01*
X126773377Y-101719501D01*
X126602309Y-101746595D01*
X126602290Y-101746600D01*
X126437556Y-101800126D01*
X126283206Y-101878771D01*
X126283205Y-101878772D01*
X126143079Y-101980580D01*
X126143061Y-101980595D01*
X126020595Y-102103061D01*
X126020580Y-102103079D01*
X125918772Y-102243205D01*
X125918771Y-102243206D01*
X125840126Y-102397556D01*
X125786600Y-102562290D01*
X125786595Y-102562309D01*
X125759501Y-102733377D01*
X125759500Y-102733393D01*
X125000500Y-102733393D01*
X125000500Y-100193432D01*
X125760000Y-100193432D01*
X125760000Y-100366567D01*
X125760001Y-100366583D01*
X125787083Y-100537573D01*
X125787088Y-100537593D01*
X125840589Y-100702250D01*
X125840594Y-100702263D01*
X125919195Y-100856524D01*
X125998097Y-100965125D01*
X126429270Y-100533952D01*
X126459901Y-100587007D01*
X126552993Y-100680099D01*
X126606045Y-100710728D01*
X126174873Y-101141901D01*
X126283475Y-101220804D01*
X126437736Y-101299405D01*
X126437749Y-101299410D01*
X126602406Y-101352911D01*
X126602426Y-101352916D01*
X126773416Y-101379998D01*
X126773433Y-101380000D01*
X126946567Y-101380000D01*
X126946583Y-101379998D01*
X127117573Y-101352916D01*
X127117593Y-101352911D01*
X127282250Y-101299410D01*
X127282263Y-101299405D01*
X127436525Y-101220803D01*
X127436531Y-101220799D01*
X127545125Y-101141902D01*
X127545125Y-101141901D01*
X127113953Y-100710729D01*
X127167007Y-100680099D01*
X127260099Y-100587007D01*
X127290729Y-100533953D01*
X127721901Y-100965125D01*
X127721902Y-100965125D01*
X127800799Y-100856531D01*
X127800803Y-100856525D01*
X127879405Y-100702263D01*
X127879410Y-100702250D01*
X127932911Y-100537593D01*
X127932916Y-100537573D01*
X127959998Y-100366583D01*
X127960000Y-100366567D01*
X127960000Y-100193424D01*
X127959995Y-100193393D01*
X128299500Y-100193393D01*
X128299500Y-100366606D01*
X128299501Y-100366622D01*
X128326595Y-100537690D01*
X128326600Y-100537709D01*
X128380068Y-100702263D01*
X128380127Y-100702445D01*
X128458637Y-100856531D01*
X128458771Y-100856793D01*
X128458772Y-100856794D01*
X128560580Y-100996920D01*
X128560586Y-100996928D01*
X128560590Y-100996932D01*
X128560595Y-100996938D01*
X128683061Y-101119404D01*
X128683067Y-101119409D01*
X128683072Y-101119414D01*
X128683079Y-101119419D01*
X128822621Y-101220803D01*
X128823212Y-101221232D01*
X128977555Y-101299873D01*
X129142299Y-101353402D01*
X129142305Y-101353402D01*
X129142309Y-101353404D01*
X129280398Y-101375274D01*
X129313389Y-101380500D01*
X129313394Y-101380500D01*
X129486606Y-101380500D01*
X129486611Y-101380500D01*
X129572156Y-101366951D01*
X129657690Y-101353404D01*
X129657692Y-101353403D01*
X129657701Y-101353402D01*
X129822445Y-101299873D01*
X129976788Y-101221232D01*
X130116928Y-101119414D01*
X130239414Y-100996928D01*
X130341232Y-100856788D01*
X130419873Y-100702445D01*
X130473402Y-100537701D01*
X130473423Y-100537573D01*
X130500498Y-100366622D01*
X130500500Y-100366611D01*
X130500500Y-100193389D01*
X130483006Y-100082934D01*
X130473404Y-100022309D01*
X130473402Y-100022305D01*
X130473402Y-100022299D01*
X130419873Y-99857555D01*
X130341232Y-99703212D01*
X130291023Y-99634105D01*
X155839500Y-99634105D01*
X155839500Y-99765894D01*
X155873607Y-99893183D01*
X155873608Y-99893187D01*
X155939501Y-100007316D01*
X156032683Y-100100498D01*
X156032685Y-100100499D01*
X156032686Y-100100500D01*
X156146814Y-100166392D01*
X156274108Y-100200500D01*
X156274110Y-100200500D01*
X156405890Y-100200500D01*
X156405892Y-100200500D01*
X156533186Y-100166392D01*
X156647314Y-100100500D01*
X156740500Y-100007314D01*
X156806392Y-99893186D01*
X156840500Y-99765892D01*
X156840500Y-99634108D01*
X156806392Y-99506814D01*
X156740500Y-99392686D01*
X156740499Y-99392685D01*
X156740498Y-99392683D01*
X156647316Y-99299501D01*
X156533187Y-99233608D01*
X156533183Y-99233607D01*
X156405894Y-99199500D01*
X156405892Y-99199500D01*
X156274108Y-99199500D01*
X156274105Y-99199500D01*
X156146816Y-99233607D01*
X156146812Y-99233608D01*
X156032683Y-99299501D01*
X155939501Y-99392683D01*
X155873608Y-99506812D01*
X155873607Y-99506816D01*
X155839500Y-99634105D01*
X130291023Y-99634105D01*
X130239414Y-99563072D01*
X130239409Y-99563067D01*
X130239404Y-99563061D01*
X130116938Y-99440595D01*
X130116932Y-99440590D01*
X130116928Y-99440586D01*
X130051000Y-99392686D01*
X129976794Y-99338772D01*
X129976793Y-99338771D01*
X129976790Y-99338769D01*
X129976788Y-99338768D01*
X129822445Y-99260127D01*
X129822444Y-99260126D01*
X129657709Y-99206600D01*
X129657690Y-99206595D01*
X129486622Y-99179501D01*
X129486614Y-99179500D01*
X129486611Y-99179500D01*
X129313389Y-99179500D01*
X129313386Y-99179500D01*
X129313377Y-99179501D01*
X129142309Y-99206595D01*
X129142290Y-99206600D01*
X128977556Y-99260126D01*
X128823206Y-99338771D01*
X128823205Y-99338772D01*
X128683079Y-99440580D01*
X128683061Y-99440595D01*
X128560595Y-99563061D01*
X128560580Y-99563079D01*
X128458772Y-99703205D01*
X128458771Y-99703206D01*
X128380126Y-99857556D01*
X128326600Y-100022290D01*
X128326595Y-100022309D01*
X128299501Y-100193377D01*
X128299500Y-100193393D01*
X127959995Y-100193393D01*
X127932916Y-100022426D01*
X127932911Y-100022406D01*
X127879410Y-99857749D01*
X127879405Y-99857736D01*
X127800804Y-99703475D01*
X127721901Y-99594873D01*
X127290728Y-100026045D01*
X127260099Y-99972993D01*
X127167007Y-99879901D01*
X127113952Y-99849270D01*
X127545125Y-99418097D01*
X127436524Y-99339195D01*
X127282263Y-99260594D01*
X127282250Y-99260589D01*
X127117593Y-99207088D01*
X127117573Y-99207083D01*
X126946583Y-99180001D01*
X126946567Y-99180000D01*
X126773433Y-99180000D01*
X126773416Y-99180001D01*
X126602426Y-99207083D01*
X126602406Y-99207088D01*
X126437749Y-99260589D01*
X126437736Y-99260594D01*
X126283475Y-99339195D01*
X126174873Y-99418097D01*
X126606046Y-99849270D01*
X126552993Y-99879901D01*
X126459901Y-99972993D01*
X126429270Y-100026046D01*
X125998097Y-99594873D01*
X125919195Y-99703475D01*
X125840594Y-99857736D01*
X125840589Y-99857749D01*
X125787088Y-100022406D01*
X125787083Y-100022426D01*
X125760001Y-100193416D01*
X125760000Y-100193432D01*
X125000500Y-100193432D01*
X125000500Y-97653393D01*
X125759500Y-97653393D01*
X125759500Y-97826606D01*
X125759501Y-97826622D01*
X125786595Y-97997690D01*
X125786600Y-97997709D01*
X125838352Y-98156982D01*
X125840127Y-98162445D01*
X125911837Y-98303186D01*
X125918771Y-98316793D01*
X125918772Y-98316794D01*
X125991806Y-98417316D01*
X126020586Y-98456928D01*
X126020590Y-98456932D01*
X126020595Y-98456938D01*
X126143061Y-98579404D01*
X126143067Y-98579409D01*
X126143072Y-98579414D01*
X126283212Y-98681232D01*
X126437555Y-98759873D01*
X126602299Y-98813402D01*
X126602305Y-98813402D01*
X126602309Y-98813404D01*
X126740398Y-98835274D01*
X126773389Y-98840500D01*
X126773394Y-98840500D01*
X126946606Y-98840500D01*
X126946611Y-98840500D01*
X127032156Y-98826951D01*
X127117690Y-98813404D01*
X127117692Y-98813403D01*
X127117701Y-98813402D01*
X127282445Y-98759873D01*
X127436788Y-98681232D01*
X127576928Y-98579414D01*
X127699414Y-98456928D01*
X127801232Y-98316788D01*
X127879873Y-98162445D01*
X127933402Y-97997701D01*
X127934197Y-97992686D01*
X127947372Y-97909500D01*
X127960500Y-97826611D01*
X127960500Y-97653393D01*
X128299500Y-97653393D01*
X128299500Y-97826606D01*
X128299501Y-97826622D01*
X128326595Y-97997690D01*
X128326600Y-97997709D01*
X128378352Y-98156982D01*
X128380127Y-98162445D01*
X128451837Y-98303186D01*
X128458771Y-98316793D01*
X128458772Y-98316794D01*
X128531806Y-98417316D01*
X128560586Y-98456928D01*
X128560590Y-98456932D01*
X128560595Y-98456938D01*
X128683061Y-98579404D01*
X128683067Y-98579409D01*
X128683072Y-98579414D01*
X128823212Y-98681232D01*
X128977555Y-98759873D01*
X129142299Y-98813402D01*
X129142305Y-98813402D01*
X129142309Y-98813404D01*
X129280398Y-98835274D01*
X129313389Y-98840500D01*
X129313394Y-98840500D01*
X129486606Y-98840500D01*
X129486611Y-98840500D01*
X129572156Y-98826951D01*
X129657690Y-98813404D01*
X129657692Y-98813403D01*
X129657701Y-98813402D01*
X129822445Y-98759873D01*
X129976788Y-98681232D01*
X130116928Y-98579414D01*
X130239414Y-98456928D01*
X130341232Y-98316788D01*
X130419873Y-98162445D01*
X130473402Y-97997701D01*
X130474197Y-97992686D01*
X130487372Y-97909500D01*
X130500500Y-97826611D01*
X130500500Y-97653389D01*
X130481529Y-97533608D01*
X130473404Y-97482309D01*
X130473402Y-97482305D01*
X130473402Y-97482299D01*
X130419873Y-97317555D01*
X130341232Y-97163212D01*
X130239414Y-97023072D01*
X130239409Y-97023067D01*
X130239404Y-97023061D01*
X130116938Y-96900595D01*
X130116932Y-96900590D01*
X130116928Y-96900586D01*
X129976794Y-96798772D01*
X129976793Y-96798771D01*
X129976790Y-96798769D01*
X129976788Y-96798768D01*
X129822445Y-96720127D01*
X129822444Y-96720126D01*
X129657709Y-96666600D01*
X129657690Y-96666595D01*
X129486622Y-96639501D01*
X129486614Y-96639500D01*
X129486611Y-96639500D01*
X129313389Y-96639500D01*
X129313386Y-96639500D01*
X129313377Y-96639501D01*
X129142309Y-96666595D01*
X129142290Y-96666600D01*
X128977556Y-96720126D01*
X128823206Y-96798771D01*
X128823205Y-96798772D01*
X128683079Y-96900580D01*
X128683061Y-96900595D01*
X128560595Y-97023061D01*
X128560580Y-97023079D01*
X128458772Y-97163205D01*
X128458771Y-97163206D01*
X128380126Y-97317556D01*
X128326600Y-97482290D01*
X128326595Y-97482309D01*
X128299501Y-97653377D01*
X128299500Y-97653393D01*
X127960500Y-97653393D01*
X127960500Y-97653389D01*
X127941529Y-97533608D01*
X127933404Y-97482309D01*
X127933402Y-97482305D01*
X127933402Y-97482299D01*
X127879873Y-97317555D01*
X127801232Y-97163212D01*
X127699414Y-97023072D01*
X127699409Y-97023067D01*
X127699404Y-97023061D01*
X127576938Y-96900595D01*
X127576932Y-96900590D01*
X127576928Y-96900586D01*
X127436794Y-96798772D01*
X127436793Y-96798771D01*
X127436790Y-96798769D01*
X127436788Y-96798768D01*
X127282445Y-96720127D01*
X127282444Y-96720126D01*
X127117709Y-96666600D01*
X127117690Y-96666595D01*
X126946622Y-96639501D01*
X126946614Y-96639500D01*
X126946611Y-96639500D01*
X126773389Y-96639500D01*
X126773386Y-96639500D01*
X126773377Y-96639501D01*
X126602309Y-96666595D01*
X126602290Y-96666600D01*
X126437556Y-96720126D01*
X126283206Y-96798771D01*
X126283205Y-96798772D01*
X126143079Y-96900580D01*
X126143061Y-96900595D01*
X126020595Y-97023061D01*
X126020580Y-97023079D01*
X125918772Y-97163205D01*
X125918771Y-97163206D01*
X125840126Y-97317556D01*
X125786600Y-97482290D01*
X125786595Y-97482309D01*
X125759501Y-97653377D01*
X125759500Y-97653393D01*
X125000500Y-97653393D01*
X125000500Y-95113393D01*
X125759500Y-95113393D01*
X125759500Y-95286606D01*
X125759501Y-95286622D01*
X125786595Y-95457690D01*
X125786600Y-95457709D01*
X125829875Y-95590894D01*
X125840127Y-95622445D01*
X125882822Y-95706240D01*
X125918771Y-95776793D01*
X125918772Y-95776794D01*
X126020580Y-95916920D01*
X126020586Y-95916928D01*
X126020590Y-95916932D01*
X126020595Y-95916938D01*
X126143061Y-96039404D01*
X126143067Y-96039409D01*
X126143072Y-96039414D01*
X126283212Y-96141232D01*
X126437555Y-96219873D01*
X126602299Y-96273402D01*
X126602305Y-96273402D01*
X126602309Y-96273404D01*
X126740398Y-96295274D01*
X126773389Y-96300500D01*
X126773394Y-96300500D01*
X126946606Y-96300500D01*
X126946611Y-96300500D01*
X127032156Y-96286951D01*
X127117690Y-96273404D01*
X127117692Y-96273403D01*
X127117701Y-96273402D01*
X127282445Y-96219873D01*
X127436788Y-96141232D01*
X127576928Y-96039414D01*
X127699414Y-95916928D01*
X127801232Y-95776788D01*
X127879873Y-95622445D01*
X127933402Y-95457701D01*
X127960500Y-95286611D01*
X127960500Y-95113393D01*
X128299500Y-95113393D01*
X128299500Y-95286606D01*
X128299501Y-95286622D01*
X128326595Y-95457690D01*
X128326600Y-95457709D01*
X128369875Y-95590894D01*
X128380127Y-95622445D01*
X128422822Y-95706240D01*
X128458771Y-95776793D01*
X128458772Y-95776794D01*
X128560580Y-95916920D01*
X128560586Y-95916928D01*
X128560590Y-95916932D01*
X128560595Y-95916938D01*
X128683061Y-96039404D01*
X128683067Y-96039409D01*
X128683072Y-96039414D01*
X128823212Y-96141232D01*
X128977555Y-96219873D01*
X129142299Y-96273402D01*
X129142305Y-96273402D01*
X129142309Y-96273404D01*
X129280398Y-96295274D01*
X129313389Y-96300500D01*
X129313394Y-96300500D01*
X129486606Y-96300500D01*
X129486611Y-96300500D01*
X129572156Y-96286951D01*
X129657690Y-96273404D01*
X129657692Y-96273403D01*
X129657701Y-96273402D01*
X129822445Y-96219873D01*
X129976788Y-96141232D01*
X130116928Y-96039414D01*
X130239414Y-95916928D01*
X130341232Y-95776788D01*
X130419873Y-95622445D01*
X130473402Y-95457701D01*
X130500500Y-95286611D01*
X130500500Y-95113389D01*
X130491823Y-95058607D01*
X130473404Y-94942309D01*
X130473402Y-94942305D01*
X130473402Y-94942299D01*
X130419873Y-94777555D01*
X130341232Y-94623212D01*
X130239414Y-94483072D01*
X130239409Y-94483067D01*
X130239404Y-94483061D01*
X130116938Y-94360595D01*
X130116932Y-94360590D01*
X130116928Y-94360586D01*
X129976794Y-94258772D01*
X129976793Y-94258771D01*
X129976790Y-94258769D01*
X129976788Y-94258768D01*
X129822445Y-94180127D01*
X129822444Y-94180126D01*
X129657709Y-94126600D01*
X129657690Y-94126595D01*
X129486622Y-94099501D01*
X129486614Y-94099500D01*
X129486611Y-94099500D01*
X129313389Y-94099500D01*
X129313386Y-94099500D01*
X129313377Y-94099501D01*
X129142309Y-94126595D01*
X129142290Y-94126600D01*
X128977556Y-94180126D01*
X128823206Y-94258771D01*
X128823205Y-94258772D01*
X128683079Y-94360580D01*
X128683061Y-94360595D01*
X128560595Y-94483061D01*
X128560580Y-94483079D01*
X128458772Y-94623205D01*
X128458771Y-94623206D01*
X128380126Y-94777556D01*
X128326600Y-94942290D01*
X128326595Y-94942309D01*
X128299501Y-95113377D01*
X128299500Y-95113393D01*
X127960500Y-95113393D01*
X127960500Y-95113389D01*
X127951823Y-95058607D01*
X127933404Y-94942309D01*
X127933402Y-94942305D01*
X127933402Y-94942299D01*
X127879873Y-94777555D01*
X127801232Y-94623212D01*
X127699414Y-94483072D01*
X127699409Y-94483067D01*
X127699404Y-94483061D01*
X127576938Y-94360595D01*
X127576932Y-94360590D01*
X127576928Y-94360586D01*
X127436794Y-94258772D01*
X127436793Y-94258771D01*
X127436790Y-94258769D01*
X127436788Y-94258768D01*
X127282445Y-94180127D01*
X127282444Y-94180126D01*
X127117709Y-94126600D01*
X127117690Y-94126595D01*
X126946622Y-94099501D01*
X126946614Y-94099500D01*
X126946611Y-94099500D01*
X126773389Y-94099500D01*
X126773386Y-94099500D01*
X126773377Y-94099501D01*
X126602309Y-94126595D01*
X126602290Y-94126600D01*
X126437556Y-94180126D01*
X126283206Y-94258771D01*
X126283205Y-94258772D01*
X126143079Y-94360580D01*
X126143061Y-94360595D01*
X126020595Y-94483061D01*
X126020580Y-94483079D01*
X125918772Y-94623205D01*
X125918771Y-94623206D01*
X125840126Y-94777556D01*
X125786600Y-94942290D01*
X125786595Y-94942309D01*
X125759501Y-95113377D01*
X125759500Y-95113393D01*
X125000500Y-95113393D01*
X125000500Y-92573393D01*
X125759500Y-92573393D01*
X125759500Y-92746606D01*
X125759501Y-92746622D01*
X125786595Y-92917690D01*
X125786600Y-92917709D01*
X125840126Y-93082443D01*
X125840127Y-93082445D01*
X125909959Y-93219500D01*
X125918771Y-93236793D01*
X125918772Y-93236794D01*
X126012930Y-93366391D01*
X126020586Y-93376928D01*
X126020590Y-93376932D01*
X126020595Y-93376938D01*
X126143061Y-93499404D01*
X126143067Y-93499409D01*
X126143072Y-93499414D01*
X126283212Y-93601232D01*
X126437555Y-93679873D01*
X126602299Y-93733402D01*
X126602305Y-93733402D01*
X126602309Y-93733404D01*
X126740398Y-93755274D01*
X126773389Y-93760500D01*
X126773394Y-93760500D01*
X126946606Y-93760500D01*
X126946611Y-93760500D01*
X127032156Y-93746951D01*
X127117690Y-93733404D01*
X127117692Y-93733403D01*
X127117701Y-93733402D01*
X127282445Y-93679873D01*
X127436788Y-93601232D01*
X127576928Y-93499414D01*
X127699414Y-93376928D01*
X127801232Y-93236788D01*
X127879873Y-93082445D01*
X127933402Y-92917701D01*
X127935443Y-92904818D01*
X127960498Y-92746622D01*
X127960500Y-92746611D01*
X127960500Y-92573393D01*
X128299500Y-92573393D01*
X128299500Y-92746606D01*
X128299501Y-92746622D01*
X128326595Y-92917690D01*
X128326600Y-92917709D01*
X128380126Y-93082443D01*
X128380127Y-93082445D01*
X128449959Y-93219500D01*
X128458771Y-93236793D01*
X128458772Y-93236794D01*
X128552930Y-93366391D01*
X128560586Y-93376928D01*
X128560590Y-93376932D01*
X128560595Y-93376938D01*
X128683061Y-93499404D01*
X128683067Y-93499409D01*
X128683072Y-93499414D01*
X128823212Y-93601232D01*
X128977555Y-93679873D01*
X129142299Y-93733402D01*
X129142305Y-93733402D01*
X129142309Y-93733404D01*
X129280398Y-93755274D01*
X129313389Y-93760500D01*
X129313394Y-93760500D01*
X129486606Y-93760500D01*
X129486611Y-93760500D01*
X129572156Y-93746951D01*
X129657690Y-93733404D01*
X129657692Y-93733403D01*
X129657701Y-93733402D01*
X129822445Y-93679873D01*
X129976788Y-93601232D01*
X130116928Y-93499414D01*
X130239414Y-93376928D01*
X130341232Y-93236788D01*
X130419873Y-93082445D01*
X130473402Y-92917701D01*
X130473404Y-92917690D01*
X130486643Y-92834105D01*
X142099500Y-92834105D01*
X142099500Y-92965894D01*
X142133607Y-93093183D01*
X142133608Y-93093187D01*
X142199501Y-93207316D01*
X142292683Y-93300498D01*
X142292685Y-93300499D01*
X142292686Y-93300500D01*
X142406814Y-93366392D01*
X142534108Y-93400500D01*
X142572096Y-93400500D01*
X142622876Y-93418982D01*
X142627957Y-93423639D01*
X146126361Y-96922043D01*
X146133648Y-96937670D01*
X146144736Y-96950884D01*
X146147731Y-96967870D01*
X146149199Y-96971019D01*
X146149500Y-96977904D01*
X146149500Y-97109963D01*
X146131018Y-97160743D01*
X146126361Y-97165824D01*
X146099501Y-97192683D01*
X146033608Y-97306812D01*
X146033607Y-97306816D01*
X145999500Y-97434105D01*
X145999500Y-97520742D01*
X145981018Y-97571522D01*
X145934218Y-97598542D01*
X145900054Y-97597050D01*
X145815894Y-97574500D01*
X145815892Y-97574500D01*
X145684108Y-97574500D01*
X145684105Y-97574500D01*
X145556816Y-97608607D01*
X145556812Y-97608608D01*
X145442683Y-97674501D01*
X145349501Y-97767683D01*
X145283608Y-97881812D01*
X145283607Y-97881816D01*
X145249500Y-98009105D01*
X145249500Y-98140894D01*
X145283607Y-98268183D01*
X145283608Y-98268187D01*
X145349501Y-98382316D01*
X145442683Y-98475498D01*
X145442685Y-98475499D01*
X145442686Y-98475500D01*
X145556814Y-98541392D01*
X145684108Y-98575500D01*
X145684110Y-98575500D01*
X145815890Y-98575500D01*
X145815892Y-98575500D01*
X145943186Y-98541392D01*
X146057314Y-98475500D01*
X146118175Y-98414638D01*
X146167150Y-98391801D01*
X146174036Y-98391500D01*
X146775883Y-98391500D01*
X146775885Y-98391500D01*
X146859942Y-98368977D01*
X146935306Y-98325466D01*
X147099133Y-98161638D01*
X147148108Y-98138801D01*
X147154994Y-98138500D01*
X147745006Y-98138500D01*
X147795786Y-98156982D01*
X147800867Y-98161639D01*
X148003158Y-98363930D01*
X148003160Y-98363932D01*
X148064694Y-98425466D01*
X148104083Y-98448207D01*
X148109796Y-98451505D01*
X148109798Y-98451507D01*
X148140055Y-98468976D01*
X148140057Y-98468977D01*
X148224115Y-98491500D01*
X148224117Y-98491500D01*
X148775883Y-98491500D01*
X148775885Y-98491500D01*
X148859942Y-98468977D01*
X148887261Y-98453204D01*
X148940476Y-98443820D01*
X148987276Y-98470838D01*
X149003066Y-98501167D01*
X149003605Y-98503179D01*
X149003608Y-98503187D01*
X149069501Y-98617316D01*
X149162683Y-98710498D01*
X149274967Y-98775326D01*
X149276814Y-98776392D01*
X149404108Y-98810500D01*
X149404110Y-98810500D01*
X149535890Y-98810500D01*
X149535892Y-98810500D01*
X149663186Y-98776392D01*
X149777314Y-98710500D01*
X149870500Y-98617314D01*
X149936392Y-98503186D01*
X149970500Y-98375892D01*
X149970500Y-98244108D01*
X149936392Y-98116814D01*
X149930618Y-98106814D01*
X149901810Y-98056916D01*
X149870500Y-98002686D01*
X149870499Y-98002685D01*
X149870498Y-98002683D01*
X149833176Y-97965361D01*
X149810338Y-97916385D01*
X149824324Y-97864187D01*
X149868590Y-97833192D01*
X149889037Y-97830500D01*
X150270963Y-97830500D01*
X150321743Y-97848982D01*
X150348763Y-97895782D01*
X150339379Y-97949000D01*
X150326824Y-97965361D01*
X150299501Y-97992683D01*
X150233608Y-98106812D01*
X150233607Y-98106816D01*
X150199500Y-98234105D01*
X150199500Y-98365894D01*
X150233607Y-98493183D01*
X150233608Y-98493187D01*
X150299501Y-98607316D01*
X150392683Y-98700498D01*
X150392685Y-98700499D01*
X150392686Y-98700500D01*
X150506814Y-98766392D01*
X150634108Y-98800500D01*
X150634110Y-98800500D01*
X150765890Y-98800500D01*
X150765892Y-98800500D01*
X150893186Y-98766392D01*
X151007314Y-98700500D01*
X151100500Y-98607314D01*
X151166392Y-98493186D01*
X151200500Y-98365892D01*
X151200500Y-98234108D01*
X151166392Y-98106814D01*
X151100500Y-97992686D01*
X151100499Y-97992685D01*
X151100498Y-97992683D01*
X151073176Y-97965361D01*
X151050338Y-97916385D01*
X151064324Y-97864187D01*
X151108590Y-97833192D01*
X151129037Y-97830500D01*
X154753781Y-97830500D01*
X154804561Y-97848982D01*
X154831581Y-97895782D01*
X154830089Y-97929946D01*
X154799500Y-98044105D01*
X154799500Y-98175894D01*
X154833607Y-98303183D01*
X154833608Y-98303187D01*
X154899501Y-98417316D01*
X154992683Y-98510498D01*
X154992685Y-98510499D01*
X154992686Y-98510500D01*
X155106814Y-98576392D01*
X155234108Y-98610500D01*
X155300380Y-98610500D01*
X155351160Y-98628982D01*
X155356230Y-98633628D01*
X155387068Y-98664466D01*
X155416101Y-98681228D01*
X155452531Y-98702261D01*
X155462432Y-98707977D01*
X155546489Y-98730500D01*
X155546491Y-98730500D01*
X156343509Y-98730500D01*
X156343511Y-98730500D01*
X156427568Y-98707977D01*
X156502932Y-98664466D01*
X156843759Y-98323638D01*
X156892735Y-98300801D01*
X156899620Y-98300500D01*
X156965890Y-98300500D01*
X156965892Y-98300500D01*
X157093186Y-98266392D01*
X157207314Y-98200500D01*
X157300500Y-98107314D01*
X157366392Y-97993186D01*
X157400500Y-97865892D01*
X157400500Y-97734108D01*
X157366392Y-97606814D01*
X157300500Y-97492686D01*
X157300499Y-97492685D01*
X157300498Y-97492683D01*
X157273176Y-97465361D01*
X157250338Y-97416385D01*
X157264324Y-97364187D01*
X157308590Y-97333192D01*
X157329037Y-97330500D01*
X160080380Y-97330500D01*
X160096587Y-97336398D01*
X160113767Y-97337902D01*
X160127891Y-97347792D01*
X160131160Y-97348982D01*
X160136241Y-97353639D01*
X160154072Y-97371470D01*
X160176910Y-97420446D01*
X160162924Y-97472644D01*
X160118658Y-97503639D01*
X160006814Y-97533607D01*
X160006812Y-97533608D01*
X159892683Y-97599501D01*
X159799501Y-97692683D01*
X159733608Y-97806812D01*
X159733607Y-97806816D01*
X159699500Y-97934105D01*
X159699500Y-98065894D01*
X159733607Y-98193183D01*
X159733608Y-98193187D01*
X159799501Y-98307316D01*
X159892683Y-98400498D01*
X159892685Y-98400499D01*
X159892686Y-98400500D01*
X159921809Y-98417314D01*
X159983973Y-98453205D01*
X160006814Y-98466392D01*
X160134108Y-98500500D01*
X160134110Y-98500500D01*
X160265890Y-98500500D01*
X160265892Y-98500500D01*
X160393186Y-98466392D01*
X160507314Y-98400500D01*
X160600500Y-98307314D01*
X160666392Y-98193186D01*
X160696360Y-98081341D01*
X160727355Y-98037075D01*
X160779553Y-98023089D01*
X160828527Y-98045925D01*
X160828529Y-98045927D01*
X161896361Y-99113759D01*
X161919199Y-99162735D01*
X161919500Y-99169620D01*
X161919500Y-99339963D01*
X161901018Y-99390743D01*
X161896361Y-99395824D01*
X161849501Y-99442683D01*
X161783608Y-99556812D01*
X161783607Y-99556816D01*
X161749500Y-99684105D01*
X161749500Y-99815894D01*
X161783607Y-99943183D01*
X161783607Y-99943185D01*
X161799240Y-99970262D01*
X161807130Y-99989312D01*
X161812020Y-100007562D01*
X161812023Y-100007569D01*
X161855535Y-100082934D01*
X161917065Y-100144464D01*
X161917067Y-100144465D01*
X161917068Y-100144466D01*
X161992432Y-100187977D01*
X162007645Y-100192053D01*
X162010683Y-100192867D01*
X162029738Y-100200759D01*
X162056814Y-100216392D01*
X162184108Y-100250500D01*
X162184110Y-100250500D01*
X162315890Y-100250500D01*
X162315892Y-100250500D01*
X162443186Y-100216392D01*
X162557314Y-100150500D01*
X162650500Y-100057314D01*
X162716392Y-99943186D01*
X162750500Y-99815892D01*
X162750500Y-99749620D01*
X162768982Y-99698840D01*
X162773639Y-99693759D01*
X163692072Y-98775326D01*
X170359500Y-98775326D01*
X170359500Y-100524673D01*
X170374033Y-100597738D01*
X170374034Y-100597740D01*
X170396209Y-100630928D01*
X170429398Y-100680601D01*
X170461800Y-100702250D01*
X170512260Y-100735966D01*
X170585326Y-100750500D01*
X172334674Y-100750500D01*
X172407740Y-100735966D01*
X172490601Y-100680601D01*
X172545966Y-100597740D01*
X172560500Y-100524674D01*
X172560500Y-98775326D01*
X172545966Y-98702260D01*
X172500116Y-98633639D01*
X172490601Y-98619398D01*
X172440928Y-98586209D01*
X172407740Y-98564034D01*
X172407738Y-98564033D01*
X172334674Y-98549500D01*
X170585326Y-98549500D01*
X170512261Y-98564033D01*
X170512260Y-98564034D01*
X170429398Y-98619398D01*
X170374034Y-98702260D01*
X170374033Y-98702261D01*
X170359500Y-98775326D01*
X163692072Y-98775326D01*
X166444464Y-96022934D01*
X166444466Y-96022932D01*
X166487977Y-95947568D01*
X166510500Y-95863511D01*
X166510500Y-95776489D01*
X166510500Y-84945036D01*
X166528982Y-84894256D01*
X166533628Y-84889185D01*
X166580500Y-84842314D01*
X166646392Y-84728186D01*
X166680500Y-84600892D01*
X166680500Y-84469108D01*
X166646392Y-84341814D01*
X166580500Y-84227686D01*
X166580499Y-84227685D01*
X166580498Y-84227683D01*
X166487316Y-84134501D01*
X166373187Y-84068608D01*
X166373183Y-84068607D01*
X166245894Y-84034500D01*
X166245892Y-84034500D01*
X166114108Y-84034500D01*
X166114105Y-84034500D01*
X165986816Y-84068607D01*
X165986812Y-84068608D01*
X165872683Y-84134501D01*
X165779501Y-84227683D01*
X165713608Y-84341812D01*
X165713607Y-84341816D01*
X165679500Y-84469105D01*
X165679500Y-84600894D01*
X165713607Y-84728183D01*
X165713608Y-84728187D01*
X165754781Y-84799500D01*
X165779500Y-84842314D01*
X165826361Y-84889175D01*
X165849199Y-84938150D01*
X165849500Y-84945036D01*
X165849500Y-95650379D01*
X165831018Y-95701159D01*
X165826361Y-95706240D01*
X162668182Y-98864419D01*
X162619206Y-98887257D01*
X162567008Y-98873271D01*
X162543905Y-98848058D01*
X162514466Y-98797068D01*
X162514465Y-98797067D01*
X162514464Y-98797065D01*
X160452934Y-96735535D01*
X160377569Y-96692023D01*
X160377565Y-96692022D01*
X160293513Y-96669500D01*
X160293511Y-96669500D01*
X156950137Y-96669500D01*
X156863115Y-96669500D01*
X156863112Y-96669500D01*
X156779060Y-96692022D01*
X156779056Y-96692023D01*
X156703693Y-96735534D01*
X156538648Y-96900580D01*
X156292866Y-97146361D01*
X156243891Y-97169199D01*
X156237006Y-97169500D01*
X149349860Y-97169500D01*
X149265807Y-97192022D01*
X149265803Y-97192023D01*
X149190441Y-97235534D01*
X149058506Y-97367468D01*
X149009530Y-97390305D01*
X148957332Y-97376319D01*
X148934229Y-97351106D01*
X148908657Y-97306814D01*
X148900500Y-97292686D01*
X148900499Y-97292685D01*
X148900498Y-97292683D01*
X148807316Y-97199501D01*
X148693187Y-97133608D01*
X148693183Y-97133607D01*
X148565894Y-97099500D01*
X148565892Y-97099500D01*
X148434108Y-97099500D01*
X148434105Y-97099500D01*
X148306816Y-97133607D01*
X148306812Y-97133608D01*
X148297620Y-97138916D01*
X148258120Y-97149500D01*
X146929500Y-97149500D01*
X146878720Y-97131018D01*
X146851700Y-97084218D01*
X146850500Y-97070500D01*
X146850500Y-96753858D01*
X146850499Y-96753853D01*
X146845591Y-96735535D01*
X146826614Y-96664712D01*
X146812058Y-96639500D01*
X146780470Y-96584788D01*
X146780469Y-96584787D01*
X146780468Y-96584785D01*
X146311524Y-96115842D01*
X146288686Y-96066866D01*
X146302672Y-96014669D01*
X146327885Y-95991565D01*
X146328183Y-95991392D01*
X146328186Y-95991392D01*
X146442314Y-95925500D01*
X146535500Y-95832314D01*
X146601392Y-95718186D01*
X146635500Y-95590892D01*
X146635500Y-95459108D01*
X146601392Y-95331814D01*
X146535500Y-95217686D01*
X146535499Y-95217685D01*
X146535498Y-95217683D01*
X146442316Y-95124501D01*
X146328187Y-95058608D01*
X146328183Y-95058607D01*
X146200894Y-95024500D01*
X146200892Y-95024500D01*
X146069108Y-95024500D01*
X146069105Y-95024500D01*
X145941816Y-95058607D01*
X145941812Y-95058608D01*
X145827683Y-95124501D01*
X145734501Y-95217683D01*
X145668434Y-95332114D01*
X145627037Y-95366850D01*
X145572998Y-95366850D01*
X145544157Y-95348475D01*
X143849787Y-93654105D01*
X155799500Y-93654105D01*
X155799500Y-93785894D01*
X155833607Y-93913183D01*
X155833608Y-93913187D01*
X155899501Y-94027316D01*
X155992683Y-94120498D01*
X155992685Y-94120499D01*
X155992686Y-94120500D01*
X156106814Y-94186392D01*
X156234108Y-94220500D01*
X156234110Y-94220500D01*
X156365890Y-94220500D01*
X156365892Y-94220500D01*
X156493186Y-94186392D01*
X156607314Y-94120500D01*
X156700500Y-94027314D01*
X156766392Y-93913186D01*
X156800500Y-93785892D01*
X156800500Y-93654108D01*
X156766392Y-93526814D01*
X156750575Y-93499419D01*
X156700498Y-93412683D01*
X156607316Y-93319501D01*
X156493187Y-93253608D01*
X156493183Y-93253607D01*
X156365894Y-93219500D01*
X156365892Y-93219500D01*
X156234108Y-93219500D01*
X156234105Y-93219500D01*
X156106816Y-93253607D01*
X156106812Y-93253608D01*
X155992683Y-93319501D01*
X155899501Y-93412683D01*
X155833608Y-93526812D01*
X155833607Y-93526816D01*
X155799500Y-93654105D01*
X143849787Y-93654105D01*
X143123639Y-92927957D01*
X143100801Y-92878981D01*
X143100500Y-92872096D01*
X143100500Y-92834110D01*
X143100499Y-92834105D01*
X143077054Y-92746606D01*
X143066392Y-92706814D01*
X143000500Y-92592686D01*
X143000499Y-92592685D01*
X143000498Y-92592683D01*
X142907316Y-92499501D01*
X142793187Y-92433608D01*
X142793183Y-92433607D01*
X142665894Y-92399500D01*
X142665892Y-92399500D01*
X142534108Y-92399500D01*
X142534105Y-92399500D01*
X142406816Y-92433607D01*
X142406812Y-92433608D01*
X142292683Y-92499501D01*
X142199501Y-92592683D01*
X142133608Y-92706812D01*
X142133607Y-92706816D01*
X142099500Y-92834105D01*
X130486643Y-92834105D01*
X130489420Y-92816572D01*
X130500498Y-92746622D01*
X130500500Y-92746611D01*
X130500500Y-92573389D01*
X130473402Y-92402299D01*
X130419873Y-92237555D01*
X130341232Y-92083212D01*
X130239414Y-91943072D01*
X130239409Y-91943067D01*
X130239404Y-91943061D01*
X130116938Y-91820595D01*
X130116932Y-91820590D01*
X130116928Y-91820586D01*
X130079217Y-91793187D01*
X129976794Y-91718772D01*
X129976793Y-91718771D01*
X129976790Y-91718769D01*
X129976788Y-91718768D01*
X129822445Y-91640127D01*
X129822444Y-91640126D01*
X129711453Y-91604063D01*
X129657709Y-91586600D01*
X129657690Y-91586595D01*
X129486622Y-91559501D01*
X129486614Y-91559500D01*
X129486611Y-91559500D01*
X129313389Y-91559500D01*
X129313386Y-91559500D01*
X129313377Y-91559501D01*
X129142309Y-91586595D01*
X129142290Y-91586600D01*
X128977556Y-91640126D01*
X128823206Y-91718771D01*
X128823205Y-91718772D01*
X128683079Y-91820580D01*
X128683061Y-91820595D01*
X128560595Y-91943061D01*
X128560580Y-91943079D01*
X128458772Y-92083205D01*
X128458771Y-92083206D01*
X128380126Y-92237556D01*
X128326600Y-92402290D01*
X128326595Y-92402309D01*
X128299501Y-92573377D01*
X128299500Y-92573393D01*
X127960500Y-92573393D01*
X127960500Y-92573389D01*
X127933402Y-92402299D01*
X127879873Y-92237555D01*
X127801232Y-92083212D01*
X127699414Y-91943072D01*
X127699409Y-91943067D01*
X127699404Y-91943061D01*
X127576938Y-91820595D01*
X127576932Y-91820590D01*
X127576928Y-91820586D01*
X127539217Y-91793187D01*
X127436794Y-91718772D01*
X127436793Y-91718771D01*
X127436790Y-91718769D01*
X127436788Y-91718768D01*
X127282445Y-91640127D01*
X127282444Y-91640126D01*
X127117709Y-91586600D01*
X127117690Y-91586595D01*
X126946622Y-91559501D01*
X126946614Y-91559500D01*
X126946611Y-91559500D01*
X126773389Y-91559500D01*
X126773386Y-91559500D01*
X126773377Y-91559501D01*
X126602309Y-91586595D01*
X126602290Y-91586600D01*
X126437556Y-91640126D01*
X126283206Y-91718771D01*
X126283205Y-91718772D01*
X126143079Y-91820580D01*
X126143061Y-91820595D01*
X126020595Y-91943061D01*
X126020580Y-91943079D01*
X125918772Y-92083205D01*
X125918771Y-92083206D01*
X125840126Y-92237556D01*
X125786600Y-92402290D01*
X125786595Y-92402309D01*
X125759501Y-92573377D01*
X125759500Y-92573393D01*
X125000500Y-92573393D01*
X125000500Y-91534105D01*
X140039500Y-91534105D01*
X140039500Y-91665894D01*
X140073607Y-91793183D01*
X140073608Y-91793187D01*
X140139501Y-91907316D01*
X140232683Y-92000498D01*
X140232685Y-92000499D01*
X140232686Y-92000500D01*
X140346814Y-92066392D01*
X140474108Y-92100500D01*
X140474110Y-92100500D01*
X140605890Y-92100500D01*
X140605892Y-92100500D01*
X140733186Y-92066392D01*
X140847314Y-92000500D01*
X140940500Y-91907314D01*
X141006392Y-91793186D01*
X141040500Y-91665892D01*
X141040500Y-91534108D01*
X141006392Y-91406814D01*
X140940500Y-91292686D01*
X140940499Y-91292685D01*
X140940498Y-91292683D01*
X140847316Y-91199501D01*
X140733187Y-91133608D01*
X140733183Y-91133607D01*
X140605894Y-91099500D01*
X140605892Y-91099500D01*
X140474108Y-91099500D01*
X140474105Y-91099500D01*
X140346816Y-91133607D01*
X140346812Y-91133608D01*
X140232683Y-91199501D01*
X140139501Y-91292683D01*
X140073608Y-91406812D01*
X140073607Y-91406816D01*
X140039500Y-91534105D01*
X125000500Y-91534105D01*
X125000500Y-89245376D01*
X125760000Y-89245376D01*
X125760000Y-89995000D01*
X126375856Y-89995000D01*
X126360000Y-90054174D01*
X126360000Y-90185826D01*
X126375856Y-90245000D01*
X125760000Y-90245000D01*
X125760000Y-90994623D01*
X125774504Y-91067545D01*
X125774505Y-91067546D01*
X125829759Y-91150240D01*
X125912453Y-91205494D01*
X125912454Y-91205495D01*
X125985376Y-91220000D01*
X126735000Y-91220000D01*
X126735000Y-90604144D01*
X126794174Y-90620000D01*
X126925826Y-90620000D01*
X126985000Y-90604144D01*
X126985000Y-91220000D01*
X127734624Y-91220000D01*
X127807545Y-91205495D01*
X127807546Y-91205494D01*
X127890240Y-91150240D01*
X127945494Y-91067546D01*
X127945495Y-91067545D01*
X127960000Y-90994623D01*
X127960000Y-90245000D01*
X127344144Y-90245000D01*
X127360000Y-90185826D01*
X127360000Y-90054174D01*
X127354432Y-90033393D01*
X128299500Y-90033393D01*
X128299500Y-90206606D01*
X128299501Y-90206622D01*
X128326595Y-90377690D01*
X128326600Y-90377709D01*
X128380126Y-90542443D01*
X128458771Y-90696793D01*
X128458772Y-90696794D01*
X128560586Y-90836928D01*
X128560590Y-90836932D01*
X128560595Y-90836938D01*
X128683061Y-90959404D01*
X128683067Y-90959409D01*
X128683072Y-90959414D01*
X128823212Y-91061232D01*
X128977555Y-91139873D01*
X129142299Y-91193402D01*
X129142305Y-91193402D01*
X129142309Y-91193404D01*
X129280398Y-91215274D01*
X129313389Y-91220500D01*
X129313394Y-91220500D01*
X129486606Y-91220500D01*
X129486611Y-91220500D01*
X129581355Y-91205494D01*
X129657690Y-91193404D01*
X129657692Y-91193403D01*
X129657701Y-91193402D01*
X129822445Y-91139873D01*
X129976788Y-91061232D01*
X130116928Y-90959414D01*
X130239414Y-90836928D01*
X130341232Y-90696788D01*
X130419873Y-90542445D01*
X130473402Y-90377701D01*
X130500500Y-90206611D01*
X130500500Y-90033389D01*
X130473402Y-89862299D01*
X130419873Y-89697555D01*
X130341232Y-89543212D01*
X130239414Y-89403072D01*
X130239409Y-89403067D01*
X130239404Y-89403061D01*
X130116938Y-89280595D01*
X130116932Y-89280590D01*
X130116928Y-89280586D01*
X129976794Y-89178772D01*
X129976793Y-89178771D01*
X129976790Y-89178769D01*
X129976788Y-89178768D01*
X129822445Y-89100127D01*
X129822444Y-89100126D01*
X129657709Y-89046600D01*
X129657690Y-89046595D01*
X129486622Y-89019501D01*
X129486614Y-89019500D01*
X129486611Y-89019500D01*
X129313389Y-89019500D01*
X129313386Y-89019500D01*
X129313377Y-89019501D01*
X129142309Y-89046595D01*
X129142290Y-89046600D01*
X128977556Y-89100126D01*
X128823206Y-89178771D01*
X128823205Y-89178772D01*
X128683079Y-89280580D01*
X128683061Y-89280595D01*
X128560595Y-89403061D01*
X128560580Y-89403079D01*
X128458772Y-89543205D01*
X128458771Y-89543206D01*
X128380126Y-89697556D01*
X128326600Y-89862290D01*
X128326595Y-89862309D01*
X128299501Y-90033377D01*
X128299500Y-90033393D01*
X127354432Y-90033393D01*
X127344144Y-89995000D01*
X127960000Y-89995000D01*
X127960000Y-89245376D01*
X127945495Y-89172454D01*
X127945494Y-89172453D01*
X127890240Y-89089759D01*
X127807546Y-89034505D01*
X127807545Y-89034504D01*
X127734624Y-89020000D01*
X126985000Y-89020000D01*
X126985000Y-89635855D01*
X126925826Y-89620000D01*
X126794174Y-89620000D01*
X126735000Y-89635855D01*
X126735000Y-89020000D01*
X125985376Y-89020000D01*
X125912454Y-89034504D01*
X125912453Y-89034505D01*
X125829759Y-89089759D01*
X125774505Y-89172453D01*
X125774504Y-89172454D01*
X125760000Y-89245376D01*
X125000500Y-89245376D01*
X125000500Y-88254105D01*
X157139500Y-88254105D01*
X157139500Y-88385894D01*
X157173607Y-88513183D01*
X157173608Y-88513187D01*
X157239501Y-88627316D01*
X157332683Y-88720498D01*
X157332685Y-88720499D01*
X157332686Y-88720500D01*
X157446814Y-88786392D01*
X157574108Y-88820500D01*
X157574110Y-88820500D01*
X157705890Y-88820500D01*
X157705892Y-88820500D01*
X157833186Y-88786392D01*
X157947314Y-88720500D01*
X158040500Y-88627314D01*
X158106392Y-88513186D01*
X158140500Y-88385892D01*
X158140500Y-88254108D01*
X158106392Y-88126814D01*
X158040500Y-88012686D01*
X158040499Y-88012685D01*
X158040498Y-88012683D01*
X157947316Y-87919501D01*
X157833187Y-87853608D01*
X157833183Y-87853607D01*
X157705894Y-87819500D01*
X157705892Y-87819500D01*
X157574108Y-87819500D01*
X157574105Y-87819500D01*
X157446816Y-87853607D01*
X157446812Y-87853608D01*
X157332683Y-87919501D01*
X157239501Y-88012683D01*
X157173608Y-88126812D01*
X157173607Y-88126816D01*
X157139500Y-88254105D01*
X125000500Y-88254105D01*
X125000500Y-86544105D01*
X147489500Y-86544105D01*
X147489500Y-86675894D01*
X147523607Y-86803183D01*
X147523608Y-86803187D01*
X147589501Y-86917316D01*
X147682683Y-87010498D01*
X147682685Y-87010499D01*
X147682686Y-87010500D01*
X147749370Y-87049000D01*
X147779493Y-87066392D01*
X147796814Y-87076392D01*
X147924108Y-87110500D01*
X147924110Y-87110500D01*
X148055890Y-87110500D01*
X148055892Y-87110500D01*
X148183186Y-87076392D01*
X148297314Y-87010500D01*
X148390500Y-86917314D01*
X148456392Y-86803186D01*
X148490500Y-86675892D01*
X148490500Y-86544108D01*
X148456392Y-86416814D01*
X148450618Y-86406814D01*
X148400208Y-86319501D01*
X148390500Y-86302686D01*
X148390499Y-86302685D01*
X148390498Y-86302683D01*
X148297316Y-86209501D01*
X148183187Y-86143608D01*
X148183183Y-86143607D01*
X148055894Y-86109500D01*
X148055892Y-86109500D01*
X147924108Y-86109500D01*
X147924105Y-86109500D01*
X147796816Y-86143607D01*
X147796812Y-86143608D01*
X147682683Y-86209501D01*
X147589501Y-86302683D01*
X147523608Y-86416812D01*
X147523607Y-86416816D01*
X147489500Y-86544105D01*
X125000500Y-86544105D01*
X125000500Y-84634105D01*
X148174500Y-84634105D01*
X148174500Y-84765894D01*
X148208607Y-84893183D01*
X148208608Y-84893187D01*
X148241997Y-84951018D01*
X148274500Y-85007314D01*
X148321361Y-85054175D01*
X148344199Y-85103150D01*
X148344500Y-85110036D01*
X148344500Y-85218513D01*
X148367022Y-85302565D01*
X148367023Y-85302569D01*
X148410535Y-85377934D01*
X149832770Y-86800167D01*
X149832775Y-86800173D01*
X149832776Y-86800173D01*
X149835532Y-86802929D01*
X149835534Y-86802932D01*
X149897068Y-86864466D01*
X149944844Y-86892049D01*
X149944846Y-86892051D01*
X149944846Y-86892050D01*
X149972431Y-86907977D01*
X150056489Y-86930500D01*
X150143511Y-86930500D01*
X152008571Y-86930500D01*
X152059351Y-86948982D01*
X152086371Y-86995782D01*
X152076987Y-87049000D01*
X152043608Y-87106812D01*
X152043607Y-87106816D01*
X152009500Y-87234105D01*
X152009500Y-87365894D01*
X152043607Y-87493183D01*
X152043608Y-87493187D01*
X152109501Y-87607316D01*
X152202683Y-87700498D01*
X152202685Y-87700499D01*
X152202686Y-87700500D01*
X152316814Y-87766392D01*
X152444108Y-87800500D01*
X152444110Y-87800500D01*
X152575890Y-87800500D01*
X152575892Y-87800500D01*
X152703186Y-87766392D01*
X152817314Y-87700500D01*
X152910500Y-87607314D01*
X152976392Y-87493186D01*
X153010500Y-87365892D01*
X153010500Y-87268620D01*
X153028982Y-87217840D01*
X153075782Y-87190820D01*
X153129000Y-87200204D01*
X153145361Y-87212759D01*
X153426361Y-87493759D01*
X153449199Y-87542735D01*
X153449500Y-87549620D01*
X153449500Y-87615894D01*
X153483607Y-87743183D01*
X153483608Y-87743187D01*
X153549501Y-87857316D01*
X153642683Y-87950498D01*
X153642685Y-87950499D01*
X153642686Y-87950500D01*
X153756814Y-88016392D01*
X153884108Y-88050500D01*
X153884110Y-88050500D01*
X154015890Y-88050500D01*
X154015892Y-88050500D01*
X154143186Y-88016392D01*
X154257314Y-87950500D01*
X154350500Y-87857314D01*
X154416392Y-87743186D01*
X154450500Y-87615892D01*
X154450500Y-87484108D01*
X154416392Y-87356814D01*
X154350500Y-87242686D01*
X154350499Y-87242685D01*
X154350498Y-87242683D01*
X154285984Y-87178169D01*
X154285980Y-87178166D01*
X154257314Y-87149500D01*
X154171291Y-87099834D01*
X154171283Y-87099829D01*
X154143187Y-87083608D01*
X154143183Y-87083607D01*
X154015894Y-87049500D01*
X154015892Y-87049500D01*
X153949620Y-87049500D01*
X153933412Y-87043601D01*
X153916233Y-87042098D01*
X153902108Y-87032207D01*
X153898840Y-87031018D01*
X153893759Y-87026361D01*
X153814078Y-86946680D01*
X153791240Y-86897704D01*
X153805226Y-86845506D01*
X153839712Y-86817830D01*
X153843179Y-86816393D01*
X153843186Y-86816392D01*
X153957314Y-86750500D01*
X153990577Y-86717236D01*
X154039552Y-86694399D01*
X154091750Y-86708384D01*
X154122746Y-86752650D01*
X154133608Y-86793186D01*
X154133608Y-86793187D01*
X154199501Y-86907316D01*
X154264014Y-86971829D01*
X154264017Y-86971831D01*
X154292686Y-87000500D01*
X154406814Y-87066392D01*
X154534108Y-87100500D01*
X154534110Y-87100500D01*
X154665890Y-87100500D01*
X154665892Y-87100500D01*
X154793186Y-87066392D01*
X154907314Y-87000500D01*
X154954175Y-86953638D01*
X155003150Y-86930801D01*
X155010036Y-86930500D01*
X155489964Y-86930500D01*
X155540744Y-86948982D01*
X155545814Y-86953628D01*
X155592686Y-87000500D01*
X155706814Y-87066392D01*
X155834108Y-87100500D01*
X155834110Y-87100500D01*
X155965890Y-87100500D01*
X155965892Y-87100500D01*
X156093186Y-87066392D01*
X156207314Y-87000500D01*
X156300500Y-86907314D01*
X156366392Y-86793186D01*
X156400500Y-86665892D01*
X156400500Y-86654105D01*
X158909500Y-86654105D01*
X158909500Y-86785894D01*
X158943607Y-86913183D01*
X158943608Y-86913187D01*
X159009501Y-87027316D01*
X159102683Y-87120498D01*
X159102685Y-87120499D01*
X159102686Y-87120500D01*
X159216814Y-87186392D01*
X159344108Y-87220500D01*
X159344110Y-87220500D01*
X159475890Y-87220500D01*
X159475892Y-87220500D01*
X159603186Y-87186392D01*
X159717314Y-87120500D01*
X159810500Y-87027314D01*
X159876392Y-86913186D01*
X159910500Y-86785892D01*
X159910500Y-86654108D01*
X159876392Y-86526814D01*
X159810500Y-86412686D01*
X159810499Y-86412685D01*
X159810498Y-86412683D01*
X159717316Y-86319501D01*
X159603187Y-86253608D01*
X159603183Y-86253607D01*
X159475894Y-86219500D01*
X159475892Y-86219500D01*
X159344108Y-86219500D01*
X159344105Y-86219500D01*
X159216816Y-86253607D01*
X159216812Y-86253608D01*
X159102683Y-86319501D01*
X159009501Y-86412683D01*
X158943608Y-86526812D01*
X158943607Y-86526816D01*
X158909500Y-86654105D01*
X156400500Y-86654105D01*
X156400500Y-86534108D01*
X156366392Y-86406814D01*
X156300500Y-86292686D01*
X156300499Y-86292685D01*
X156300498Y-86292683D01*
X156207316Y-86199501D01*
X156093187Y-86133608D01*
X156093183Y-86133607D01*
X155965894Y-86099500D01*
X155965892Y-86099500D01*
X155834108Y-86099500D01*
X155834105Y-86099500D01*
X155706816Y-86133607D01*
X155706812Y-86133608D01*
X155592685Y-86199500D01*
X155572686Y-86219500D01*
X155545824Y-86246361D01*
X155496850Y-86269199D01*
X155489964Y-86269500D01*
X155010036Y-86269500D01*
X154959256Y-86251018D01*
X154954185Y-86246371D01*
X154907314Y-86199500D01*
X154903587Y-86197348D01*
X154793187Y-86133608D01*
X154793183Y-86133607D01*
X154665894Y-86099500D01*
X154665892Y-86099500D01*
X154534108Y-86099500D01*
X154534105Y-86099500D01*
X154406816Y-86133607D01*
X154406812Y-86133608D01*
X154292685Y-86199500D01*
X154259422Y-86232763D01*
X154210445Y-86255600D01*
X154158248Y-86241613D01*
X154127253Y-86197348D01*
X154116392Y-86156814D01*
X154116391Y-86156812D01*
X154050498Y-86042683D01*
X153957316Y-85949501D01*
X153843187Y-85883608D01*
X153843183Y-85883607D01*
X153715894Y-85849500D01*
X153715892Y-85849500D01*
X153584108Y-85849500D01*
X153584107Y-85849500D01*
X153554569Y-85857414D01*
X153519511Y-85866808D01*
X153499067Y-85869500D01*
X151309429Y-85869500D01*
X151258649Y-85851018D01*
X151231629Y-85804218D01*
X151241013Y-85751000D01*
X151259886Y-85728965D01*
X151264638Y-85725138D01*
X151307314Y-85700500D01*
X151357188Y-85650625D01*
X151360493Y-85647965D01*
X151382287Y-85640529D01*
X151403150Y-85630801D01*
X151410036Y-85630500D01*
X156843509Y-85630500D01*
X156843511Y-85630500D01*
X156927568Y-85607977D01*
X157002932Y-85564466D01*
X157243759Y-85323638D01*
X157292735Y-85300801D01*
X157299620Y-85300500D01*
X157365890Y-85300500D01*
X157365892Y-85300500D01*
X157493186Y-85266392D01*
X157607314Y-85200500D01*
X157700500Y-85107314D01*
X157766392Y-84993186D01*
X157800500Y-84865892D01*
X157800500Y-84734108D01*
X157766392Y-84606814D01*
X157700500Y-84492686D01*
X157700499Y-84492685D01*
X157700498Y-84492683D01*
X157607316Y-84399501D01*
X157493187Y-84333608D01*
X157493183Y-84333607D01*
X157365894Y-84299500D01*
X157365892Y-84299500D01*
X157234108Y-84299500D01*
X157234105Y-84299500D01*
X157106816Y-84333607D01*
X157106812Y-84333608D01*
X156992683Y-84399501D01*
X156899501Y-84492683D01*
X156833608Y-84606812D01*
X156833607Y-84606816D01*
X156799500Y-84734105D01*
X156799500Y-84800380D01*
X156793601Y-84816587D01*
X156792098Y-84833767D01*
X156782207Y-84847891D01*
X156781018Y-84851160D01*
X156776361Y-84856241D01*
X156686241Y-84946361D01*
X156637265Y-84969199D01*
X156630380Y-84969500D01*
X152979616Y-84969500D01*
X152928836Y-84951018D01*
X152901816Y-84904218D01*
X152903308Y-84870053D01*
X152920500Y-84805892D01*
X152920500Y-84674108D01*
X152886392Y-84546814D01*
X152820500Y-84432686D01*
X152820499Y-84432685D01*
X152820498Y-84432683D01*
X152727316Y-84339501D01*
X152613187Y-84273608D01*
X152613183Y-84273607D01*
X152485894Y-84239500D01*
X152485892Y-84239500D01*
X152354108Y-84239500D01*
X152354105Y-84239500D01*
X152226816Y-84273607D01*
X152226812Y-84273608D01*
X152112683Y-84339501D01*
X152019501Y-84432683D01*
X151953608Y-84546812D01*
X151953607Y-84546816D01*
X151919500Y-84674105D01*
X151919500Y-84674108D01*
X151919500Y-84805892D01*
X151935577Y-84865894D01*
X151936692Y-84870053D01*
X151931982Y-84923887D01*
X151893771Y-84962098D01*
X151860384Y-84969500D01*
X151410036Y-84969500D01*
X151359256Y-84951018D01*
X151354185Y-84946371D01*
X151307314Y-84899500D01*
X151296373Y-84893183D01*
X151193187Y-84833608D01*
X151193183Y-84833607D01*
X151065894Y-84799500D01*
X151065892Y-84799500D01*
X150934108Y-84799500D01*
X150934105Y-84799500D01*
X150806816Y-84833607D01*
X150806812Y-84833608D01*
X150692683Y-84899501D01*
X150599501Y-84992683D01*
X150533608Y-85106812D01*
X150533607Y-85106816D01*
X150499500Y-85234105D01*
X150499500Y-85341380D01*
X150481018Y-85392160D01*
X150434218Y-85419180D01*
X150381000Y-85409796D01*
X150364639Y-85397241D01*
X150180729Y-85213331D01*
X150157891Y-85164355D01*
X150171877Y-85112157D01*
X150173920Y-85109371D01*
X150175493Y-85107320D01*
X150175500Y-85107314D01*
X150241392Y-84993186D01*
X150275500Y-84865892D01*
X150275500Y-84734108D01*
X150241392Y-84606814D01*
X150175500Y-84492686D01*
X150175499Y-84492685D01*
X150175498Y-84492683D01*
X150082316Y-84399501D01*
X149968187Y-84333608D01*
X149968183Y-84333607D01*
X149840894Y-84299500D01*
X149840892Y-84299500D01*
X149709108Y-84299500D01*
X149709105Y-84299500D01*
X149581816Y-84333607D01*
X149581812Y-84333608D01*
X149467683Y-84399501D01*
X149374502Y-84492682D01*
X149308059Y-84607764D01*
X149266662Y-84642499D01*
X149212623Y-84642498D01*
X149171227Y-84607762D01*
X149163335Y-84588709D01*
X149152110Y-84546816D01*
X149141392Y-84506814D01*
X149133233Y-84492683D01*
X149098592Y-84432683D01*
X149075500Y-84392686D01*
X149075499Y-84392685D01*
X149075498Y-84392683D01*
X148982316Y-84299501D01*
X148868187Y-84233608D01*
X148868183Y-84233607D01*
X148740894Y-84199500D01*
X148740892Y-84199500D01*
X148609108Y-84199500D01*
X148609105Y-84199500D01*
X148481816Y-84233607D01*
X148481812Y-84233608D01*
X148367683Y-84299501D01*
X148274501Y-84392683D01*
X148208608Y-84506812D01*
X148208607Y-84506816D01*
X148174500Y-84634105D01*
X125000500Y-84634105D01*
X125000500Y-66579500D01*
X125018982Y-66528720D01*
X125065782Y-66501700D01*
X125079500Y-66500500D01*
X174920500Y-66500500D01*
X174971280Y-66518982D01*
G37*
%TD.AperFunction*%
%TD*%
M02*
