%TF.GenerationSoftware,KiCad,Pcbnew,9.0.4*%
%TF.CreationDate,2025-09-08T22:46:10+10:00*%
%TF.ProjectId,simple-p4,73696d70-6c65-42d7-9034-2e6b69636164,rev?*%
%TF.SameCoordinates,Original*%
%TF.FileFunction,Soldermask,Bot*%
%TF.FilePolarity,Negative*%
%FSLAX46Y46*%
G04 Gerber Fmt 4.6, Leading zero omitted, Abs format (unit mm)*
G04 Created by KiCad (PCBNEW 9.0.4) date 2025-09-08 22:46:10*
%MOMM*%
%LPD*%
G01*
G04 APERTURE LIST*
%ADD10C,0.650000*%
%ADD11O,1.000000X2.100000*%
%ADD12O,1.000000X1.600000*%
%ADD13R,1.700000X1.700000*%
%ADD14C,1.700000*%
G04 APERTURE END LIST*
D10*
%TO.C,J6*%
X100170000Y-67500000D03*
X105950000Y-67500000D03*
D11*
X98740000Y-66970000D03*
D12*
X98740000Y-71150000D03*
D11*
X107380000Y-66970000D03*
D12*
X107380000Y-71150000D03*
%TD*%
D10*
%TO.C,J5*%
X100170000Y-57030000D03*
X105950000Y-57030000D03*
D11*
X98740000Y-56500000D03*
D12*
X98740000Y-60680000D03*
D11*
X107380000Y-56500000D03*
D12*
X107380000Y-60680000D03*
%TD*%
D13*
%TO.C,J4*%
X112530000Y-105920000D03*
D14*
X112530000Y-108460000D03*
X112530000Y-111000000D03*
X112530000Y-113540000D03*
X112530000Y-116080000D03*
X112530000Y-118620000D03*
%TD*%
D13*
%TO.C,J3*%
X94920000Y-56140000D03*
D14*
X94920000Y-58680000D03*
X94920000Y-61220000D03*
X94920000Y-63760000D03*
X94920000Y-66300000D03*
X94920000Y-68840000D03*
X94920000Y-71380000D03*
X94920000Y-73920000D03*
X94920000Y-76460000D03*
X94920000Y-79000000D03*
X94920000Y-81540000D03*
X94920000Y-84080000D03*
X94920000Y-86620000D03*
X94920000Y-89160000D03*
X94920000Y-91700000D03*
X94920000Y-94240000D03*
X94920000Y-96780000D03*
X94920000Y-99320000D03*
X94920000Y-101860000D03*
X94920000Y-104400000D03*
%TD*%
D13*
%TO.C,J2*%
X90330000Y-56140000D03*
D14*
X90330000Y-58680000D03*
X90330000Y-61220000D03*
X90330000Y-63760000D03*
X90330000Y-66300000D03*
X90330000Y-68840000D03*
X90330000Y-71380000D03*
X90330000Y-73920000D03*
X90330000Y-76460000D03*
X90330000Y-79000000D03*
X90330000Y-81540000D03*
X90330000Y-84080000D03*
X90330000Y-86620000D03*
X90330000Y-89160000D03*
X90330000Y-91700000D03*
X90330000Y-94240000D03*
X90330000Y-96780000D03*
X90330000Y-99320000D03*
X90330000Y-101860000D03*
X90330000Y-104400000D03*
%TD*%
D13*
%TO.C,J1*%
X85740000Y-56130000D03*
D14*
X85740000Y-58670000D03*
X85740000Y-61210000D03*
X85740000Y-63750000D03*
X85740000Y-66290000D03*
X85740000Y-68830000D03*
X85740000Y-71370000D03*
X85740000Y-73910000D03*
X85740000Y-76450000D03*
X85740000Y-78990000D03*
X85740000Y-81530000D03*
X85740000Y-84070000D03*
X85740000Y-86610000D03*
X85740000Y-89150000D03*
X85740000Y-91690000D03*
X85740000Y-94230000D03*
X85740000Y-96770000D03*
X85740000Y-99310000D03*
X85740000Y-101850000D03*
X85740000Y-104390000D03*
X85740000Y-106930000D03*
X85740000Y-109470000D03*
X85740000Y-112010000D03*
X85740000Y-114550000D03*
X85740000Y-117090000D03*
X85740000Y-119630000D03*
%TD*%
M02*
