%TF.GenerationSoftware,KiCad,Pcbnew,9.0.4*%
%TF.CreationDate,2025-09-11T23:10:15+10:00*%
%TF.ProjectId,simple-p4,73696d70-6c65-42d7-9034-2e6b69636164,rev?*%
%TF.SameCoordinates,Original*%
%TF.FileFunction,Soldermask,Top*%
%TF.FilePolarity,Negative*%
%FSLAX46Y46*%
G04 Gerber Fmt 4.6, Leading zero omitted, Abs format (unit mm)*
G04 Created by KiCad (PCBNEW 9.0.4) date 2025-09-11 23:10:15*
%MOMM*%
%LPD*%
G01*
G04 APERTURE LIST*
G04 Aperture macros list*
%AMRoundRect*
0 Rectangle with rounded corners*
0 $1 Rounding radius*
0 $2 $3 $4 $5 $6 $7 $8 $9 X,Y pos of 4 corners*
0 Add a 4 corners polygon primitive as box body*
4,1,4,$2,$3,$4,$5,$6,$7,$8,$9,$2,$3,0*
0 Add four circle primitives for the rounded corners*
1,1,$1+$1,$2,$3*
1,1,$1+$1,$4,$5*
1,1,$1+$1,$6,$7*
1,1,$1+$1,$8,$9*
0 Add four rect primitives between the rounded corners*
20,1,$1+$1,$2,$3,$4,$5,0*
20,1,$1+$1,$4,$5,$6,$7,0*
20,1,$1+$1,$6,$7,$8,$9,0*
20,1,$1+$1,$8,$9,$2,$3,0*%
G04 Aperture macros list end*
%ADD10RoundRect,0.135000X0.185000X-0.135000X0.185000X0.135000X-0.185000X0.135000X-0.185000X-0.135000X0*%
%ADD11R,1.000000X1.500000*%
%ADD12R,0.700000X1.200000*%
%ADD13R,1.000000X0.800000*%
%ADD14R,1.000000X1.200000*%
%ADD15R,1.000000X2.800000*%
%ADD16R,1.300000X1.900000*%
%ADD17RoundRect,0.140000X0.170000X-0.140000X0.170000X0.140000X-0.170000X0.140000X-0.170000X-0.140000X0*%
%ADD18RoundRect,0.225000X0.225000X0.250000X-0.225000X0.250000X-0.225000X-0.250000X0.225000X-0.250000X0*%
%ADD19RoundRect,0.140000X-0.170000X0.140000X-0.170000X-0.140000X0.170000X-0.140000X0.170000X0.140000X0*%
%ADD20R,1.000000X0.750000*%
%ADD21R,0.600000X1.450000*%
%ADD22R,0.300000X1.450000*%
%ADD23O,1.000000X2.100000*%
%ADD24O,1.000000X1.600000*%
%ADD25RoundRect,0.250000X-1.000000X0.300000X-1.000000X-0.300000X1.000000X-0.300000X1.000000X0.300000X0*%
%ADD26RoundRect,0.225000X-0.225000X-0.250000X0.225000X-0.250000X0.225000X0.250000X-0.225000X0.250000X0*%
%ADD27RoundRect,0.225000X0.250000X-0.225000X0.250000X0.225000X-0.250000X0.225000X-0.250000X-0.225000X0*%
%ADD28RoundRect,0.135000X-0.185000X0.135000X-0.185000X-0.135000X0.185000X-0.135000X0.185000X0.135000X0*%
%ADD29RoundRect,0.140000X0.140000X0.170000X-0.140000X0.170000X-0.140000X-0.170000X0.140000X-0.170000X0*%
%ADD30RoundRect,0.135000X0.135000X0.185000X-0.135000X0.185000X-0.135000X-0.185000X0.135000X-0.185000X0*%
%ADD31R,1.700000X1.700000*%
%ADD32C,1.700000*%
%ADD33RoundRect,0.140000X-0.140000X-0.170000X0.140000X-0.170000X0.140000X0.170000X-0.140000X0.170000X0*%
%ADD34O,0.650000X0.200000*%
%ADD35O,0.200000X0.650000*%
%ADD36R,2.100000X2.100000*%
%ADD37RoundRect,0.375000X-0.375000X0.625000X-0.375000X-0.625000X0.375000X-0.625000X0.375000X0.625000X0*%
%ADD38RoundRect,0.500000X-1.400000X0.500000X-1.400000X-0.500000X1.400000X-0.500000X1.400000X0.500000X0*%
%ADD39R,1.500000X1.000000*%
%ADD40RoundRect,0.150000X0.512500X0.150000X-0.512500X0.150000X-0.512500X-0.150000X0.512500X-0.150000X0*%
%ADD41RoundRect,0.162500X-0.650000X-0.162500X0.650000X-0.162500X0.650000X0.162500X-0.650000X0.162500X0*%
%ADD42RoundRect,0.200000X-0.250000X-0.200000X0.250000X-0.200000X0.250000X0.200000X-0.250000X0.200000X0*%
%ADD43RoundRect,0.135000X-0.135000X-0.185000X0.135000X-0.185000X0.135000X0.185000X-0.135000X0.185000X0*%
%ADD44R,1.800000X1.000000*%
G04 APERTURE END LIST*
%TO.C,JP2*%
G36*
X141950000Y-90850000D02*
G01*
X142250000Y-90850000D01*
X142250000Y-92350000D01*
X141950000Y-92350000D01*
X141950000Y-90850000D01*
G37*
%TO.C,JP1*%
G36*
X136000000Y-122400000D02*
G01*
X137500000Y-122400000D01*
X137500000Y-122100000D01*
X136000000Y-122100000D01*
X136000000Y-122400000D01*
G37*
%TD*%
D10*
%TO.C,R14*%
X149800000Y-86620000D03*
X149800000Y-85600000D03*
%TD*%
D11*
%TO.C,JP2*%
X141450000Y-91600000D03*
X142750000Y-91600000D03*
%TD*%
D10*
%TO.C,R2*%
X167540000Y-101650000D03*
X167540000Y-100630000D03*
%TD*%
D12*
%TO.C,J3*%
X148675000Y-83215000D03*
X149775000Y-83215000D03*
X150875000Y-83215000D03*
X151975000Y-83215000D03*
X153075000Y-83215000D03*
X154175000Y-83215000D03*
X155275000Y-83215000D03*
X156375000Y-83215000D03*
X157325000Y-83215000D03*
D13*
X158275000Y-72715000D03*
D14*
X158275000Y-78915000D03*
D15*
X158275000Y-68565000D03*
D14*
X147125000Y-83215000D03*
D16*
X144775000Y-68115000D03*
%TD*%
D17*
%TO.C,C25*%
X141200000Y-99380000D03*
X141200000Y-98420000D03*
%TD*%
D10*
%TO.C,R5*%
X160892300Y-125987700D03*
X160892300Y-124967700D03*
%TD*%
D18*
%TO.C,C20*%
X141275000Y-102600000D03*
X139725000Y-102600000D03*
%TD*%
D19*
%TO.C,C38*%
X153100000Y-113260000D03*
X153100000Y-114220000D03*
%TD*%
D20*
%TO.C,SW1*%
X164870000Y-86865000D03*
X170870000Y-86865000D03*
X164870000Y-90615000D03*
X170870000Y-90615000D03*
%TD*%
D19*
%TO.C,C31*%
X147500000Y-110900000D03*
X147500000Y-111860000D03*
%TD*%
%TO.C,C33*%
X159000000Y-110820000D03*
X159000000Y-111780000D03*
%TD*%
D21*
%TO.C,J6*%
X164950000Y-123315000D03*
X165750000Y-123315000D03*
D22*
X166950000Y-123315000D03*
X167950000Y-123315000D03*
X168450000Y-123315000D03*
X169450000Y-123315000D03*
D21*
X170650000Y-123315000D03*
X171450000Y-123315000D03*
X171450000Y-123315000D03*
X170650000Y-123315000D03*
D22*
X169950000Y-123315000D03*
X168950000Y-123315000D03*
X167450000Y-123315000D03*
X166450000Y-123315000D03*
D21*
X165750000Y-123315000D03*
X164950000Y-123315000D03*
D23*
X163880000Y-124230000D03*
D24*
X163880000Y-128410000D03*
D23*
X172520000Y-124230000D03*
D24*
X172520000Y-128410000D03*
%TD*%
D10*
%TO.C,R13*%
X148700000Y-86610000D03*
X148700000Y-85590000D03*
%TD*%
D25*
%TO.C,L1*%
X161200000Y-94650000D03*
X161200000Y-96750000D03*
%TD*%
D17*
%TO.C,C12*%
X149000000Y-97780000D03*
X149000000Y-96820000D03*
%TD*%
%TO.C,C42*%
X144900000Y-97080000D03*
X144900000Y-96120000D03*
%TD*%
%TO.C,C7*%
X144600000Y-94780000D03*
X144600000Y-93820000D03*
%TD*%
D26*
%TO.C,C34*%
X160225000Y-111200000D03*
X161775000Y-111200000D03*
%TD*%
D27*
%TO.C,C18*%
X163000000Y-102375000D03*
X163000000Y-100825000D03*
%TD*%
%TO.C,C11*%
X150425000Y-95550000D03*
X150425000Y-94000000D03*
%TD*%
D28*
%TO.C,R9*%
X174100000Y-127550000D03*
X174100000Y-128570000D03*
%TD*%
D29*
%TO.C,C24*%
X144380000Y-109700000D03*
X143420000Y-109700000D03*
%TD*%
D30*
%TO.C,R12*%
X146940000Y-96330000D03*
X145920000Y-96330000D03*
%TD*%
D20*
%TO.C,SW2*%
X164840000Y-80785000D03*
X170840000Y-80785000D03*
X164840000Y-84535000D03*
X170840000Y-84535000D03*
%TD*%
D30*
%TO.C,R19*%
X159410000Y-86000000D03*
X158390000Y-86000000D03*
%TD*%
D29*
%TO.C,C10*%
X143380000Y-95200000D03*
X142420000Y-95200000D03*
%TD*%
D31*
%TO.C,J2*%
X171460000Y-99650000D03*
D32*
X171460000Y-102190000D03*
X171460000Y-104730000D03*
X171460000Y-107270000D03*
X171460000Y-109810000D03*
X171460000Y-112350000D03*
%TD*%
D30*
%TO.C,R17*%
X156410000Y-87900000D03*
X155390000Y-87900000D03*
%TD*%
D27*
%TO.C,C37*%
X146500000Y-124025000D03*
X146500000Y-122475000D03*
%TD*%
D33*
%TO.C,C16*%
X157680000Y-101560000D03*
X158640000Y-101560000D03*
%TD*%
D26*
%TO.C,C41*%
X142475000Y-120750000D03*
X144025000Y-120750000D03*
%TD*%
D27*
%TO.C,C14*%
X166150000Y-102375000D03*
X166150000Y-100825000D03*
%TD*%
D34*
%TO.C,U1*%
X145650000Y-99600000D03*
X145650000Y-99950000D03*
X145650000Y-100300000D03*
X145650000Y-100650000D03*
X145650000Y-101000000D03*
X145650000Y-101350000D03*
X145650000Y-101700000D03*
X145650000Y-102050000D03*
X145650000Y-102400000D03*
X145650000Y-102750000D03*
X145650000Y-103100000D03*
X145650000Y-103450000D03*
X145650000Y-103800000D03*
X145650000Y-104150000D03*
X145650000Y-104500000D03*
X145650000Y-104850000D03*
X145650000Y-105200000D03*
X145650000Y-105550000D03*
X145650000Y-105900000D03*
X145650000Y-106250000D03*
X145650000Y-106600000D03*
X145650000Y-106950000D03*
X145650000Y-107300000D03*
X145650000Y-107650000D03*
X145650000Y-108000000D03*
X145650000Y-108350000D03*
D35*
X146150000Y-108850000D03*
X146500000Y-108850000D03*
X146850000Y-108850000D03*
X147200000Y-108850000D03*
X147550000Y-108850000D03*
X147900000Y-108850000D03*
X148250000Y-108850000D03*
X148600000Y-108850000D03*
X148950000Y-108850000D03*
X149300000Y-108850000D03*
X149650000Y-108850000D03*
X150000000Y-108850000D03*
X150350000Y-108850000D03*
X150700000Y-108850000D03*
X151050000Y-108850000D03*
X151400000Y-108850000D03*
X151750000Y-108850000D03*
X152100000Y-108850000D03*
X152450000Y-108850000D03*
X152800000Y-108850000D03*
X153150000Y-108850000D03*
X153500000Y-108850000D03*
X153850000Y-108850000D03*
X154200000Y-108850000D03*
X154550000Y-108850000D03*
X154900000Y-108850000D03*
D34*
X155400000Y-108350000D03*
X155400000Y-108000000D03*
X155400000Y-107650000D03*
X155400000Y-107300000D03*
X155400000Y-106950000D03*
X155400000Y-106600000D03*
X155400000Y-106250000D03*
X155400000Y-105900000D03*
X155400000Y-105550000D03*
X155400000Y-105200000D03*
X155400000Y-104850000D03*
X155400000Y-104500000D03*
X155400000Y-104150000D03*
X155400000Y-103800000D03*
X155400000Y-103450000D03*
X155400000Y-103100000D03*
X155400000Y-102750000D03*
X155400000Y-102400000D03*
X155400000Y-102050000D03*
X155400000Y-101700000D03*
X155400000Y-101350000D03*
X155400000Y-101000000D03*
X155400000Y-100650000D03*
X155400000Y-100300000D03*
X155400000Y-99950000D03*
X155400000Y-99600000D03*
D35*
X154900000Y-99100000D03*
X154550000Y-99100000D03*
X154200000Y-99100000D03*
X153850000Y-99100000D03*
X153500000Y-99100000D03*
X153150000Y-99100000D03*
X152800000Y-99100000D03*
X152450000Y-99100000D03*
X152100000Y-99100000D03*
X151750000Y-99100000D03*
X151400000Y-99100000D03*
X151050000Y-99100000D03*
X150700000Y-99100000D03*
X150350000Y-99100000D03*
X150000000Y-99100000D03*
X149650000Y-99100000D03*
X149300000Y-99100000D03*
X148950000Y-99100000D03*
X148600000Y-99100000D03*
X148250000Y-99100000D03*
X147900000Y-99100000D03*
X147550000Y-99100000D03*
X147200000Y-99100000D03*
X146850000Y-99100000D03*
X146500000Y-99100000D03*
X146150000Y-99100000D03*
D36*
X147825000Y-101275000D03*
X147825000Y-103975000D03*
X147825000Y-106675000D03*
X150525000Y-101275000D03*
X150525000Y-103975000D03*
X150525000Y-106675000D03*
X153225000Y-101275000D03*
X153225000Y-103975000D03*
X153225000Y-106675000D03*
%TD*%
D19*
%TO.C,C29*%
X145500000Y-110220000D03*
X145500000Y-111180000D03*
%TD*%
D37*
%TO.C,U4*%
X144250000Y-123000000D03*
X141950000Y-123000000D03*
D38*
X141950000Y-129300000D03*
D37*
X139650000Y-123000000D03*
%TD*%
D27*
%TO.C,C22*%
X159940000Y-102405000D03*
X159940000Y-100855000D03*
%TD*%
D28*
%TO.C,R11*%
X142500000Y-113190000D03*
X142500000Y-114210000D03*
%TD*%
D18*
%TO.C,C30*%
X151775000Y-111500000D03*
X150225000Y-111500000D03*
%TD*%
D29*
%TO.C,C5*%
X148180000Y-92300000D03*
X147220000Y-92300000D03*
%TD*%
D17*
%TO.C,C36*%
X172230000Y-84120000D03*
X172230000Y-83160000D03*
%TD*%
D39*
%TO.C,JP1*%
X136750000Y-122900000D03*
X136750000Y-121600000D03*
%TD*%
D10*
%TO.C,R1*%
X162750000Y-105835000D03*
X162750000Y-104815000D03*
%TD*%
D27*
%TO.C,C19*%
X161470000Y-102375000D03*
X161470000Y-100825000D03*
%TD*%
D17*
%TO.C,C35*%
X172240000Y-89280000D03*
X172240000Y-88320000D03*
%TD*%
D40*
%TO.C,U3*%
X158575000Y-96400000D03*
X158575000Y-95450000D03*
X158575000Y-94500000D03*
X156300000Y-94500000D03*
X156300000Y-96400000D03*
%TD*%
D41*
%TO.C,U2*%
X144212500Y-113395000D03*
X144212500Y-114665000D03*
X144212500Y-115935000D03*
X144212500Y-117205000D03*
X151387500Y-117205000D03*
X151387500Y-115935000D03*
X151387500Y-114665000D03*
X151387500Y-113395000D03*
%TD*%
D26*
%TO.C,C1*%
X156125000Y-92800000D03*
X157675000Y-92800000D03*
%TD*%
D42*
%TO.C,Y1*%
X147000000Y-94750000D03*
X148400000Y-94750000D03*
X148400000Y-93650000D03*
X147000000Y-93650000D03*
%TD*%
D18*
%TO.C,C28*%
X144275000Y-111000000D03*
X142725000Y-111000000D03*
%TD*%
D10*
%TO.C,R6*%
X148992300Y-126187700D03*
X148992300Y-125167700D03*
%TD*%
D19*
%TO.C,C32*%
X158000000Y-110820000D03*
X158000000Y-111780000D03*
%TD*%
D33*
%TO.C,C26*%
X159120000Y-105650000D03*
X160080000Y-105650000D03*
%TD*%
D43*
%TO.C,R16*%
X151990000Y-86200000D03*
X153010000Y-86200000D03*
%TD*%
D44*
%TO.C,Y2*%
X142900000Y-96550001D03*
X142900000Y-99049999D03*
%TD*%
D28*
%TO.C,R7*%
X153400000Y-110090000D03*
X153400000Y-111110000D03*
%TD*%
D21*
%TO.C,J5*%
X151722300Y-123282700D03*
X152522300Y-123282700D03*
D22*
X153722300Y-123282700D03*
X154722300Y-123282700D03*
X155222300Y-123282700D03*
X156222300Y-123282700D03*
D21*
X157422300Y-123282700D03*
X158222300Y-123282700D03*
X158222300Y-123282700D03*
X157422300Y-123282700D03*
D22*
X156722300Y-123282700D03*
X155722300Y-123282700D03*
X154222300Y-123282700D03*
X153222300Y-123282700D03*
D21*
X152522300Y-123282700D03*
X151722300Y-123282700D03*
D23*
X150652300Y-124197700D03*
D24*
X150652300Y-128377700D03*
D23*
X159292300Y-124197700D03*
D24*
X159292300Y-128377700D03*
%TD*%
D33*
%TO.C,C23*%
X156990000Y-106410000D03*
X157950000Y-106410000D03*
%TD*%
D17*
%TO.C,C6*%
X150000000Y-97780000D03*
X150000000Y-96820000D03*
%TD*%
D33*
%TO.C,C40*%
X139770000Y-121000000D03*
X140730000Y-121000000D03*
%TD*%
D17*
%TO.C,C13*%
X157170000Y-99590000D03*
X157170000Y-98630000D03*
%TD*%
D31*
%TO.C,J1*%
X126860000Y-90120000D03*
D32*
X129400000Y-90120000D03*
X126860000Y-92660000D03*
X129400000Y-92660000D03*
X126860000Y-95200000D03*
X129400000Y-95200000D03*
X126860000Y-97740000D03*
X129400000Y-97740000D03*
X126860000Y-100280000D03*
X129400000Y-100280000D03*
X126860000Y-102820000D03*
X129400000Y-102820000D03*
X126860000Y-105360000D03*
X129400000Y-105360000D03*
X126860000Y-107900000D03*
X129400000Y-107900000D03*
X126860000Y-110440000D03*
X129400000Y-110440000D03*
X126860000Y-112980000D03*
X129400000Y-112980000D03*
X126860000Y-115520000D03*
X129400000Y-115520000D03*
X126860000Y-118060000D03*
X129400000Y-118060000D03*
X126860000Y-120600000D03*
X129400000Y-120600000D03*
%TD*%
D33*
%TO.C,C15*%
X157700000Y-100560000D03*
X158660000Y-100560000D03*
%TD*%
D18*
%TO.C,C3*%
X159975000Y-99200000D03*
X158425000Y-99200000D03*
%TD*%
D28*
%TO.C,R10*%
X162200000Y-127340000D03*
X162200000Y-128360000D03*
%TD*%
D30*
%TO.C,R15*%
X152010000Y-87300000D03*
X150990000Y-87300000D03*
%TD*%
D17*
%TO.C,C8*%
X151000000Y-97780000D03*
X151000000Y-96820000D03*
%TD*%
D10*
%TO.C,R8*%
X154400000Y-111110000D03*
X154400000Y-110090000D03*
%TD*%
D19*
%TO.C,C39*%
X146250000Y-125250000D03*
X146250000Y-126210000D03*
%TD*%
D27*
%TO.C,C17*%
X164530000Y-102375000D03*
X164530000Y-100825000D03*
%TD*%
D17*
%TO.C,C9*%
X152500000Y-97380000D03*
X152500000Y-96420000D03*
%TD*%
D10*
%TO.C,R3*%
X165770000Y-106570000D03*
X165770000Y-105550000D03*
%TD*%
D30*
%TO.C,R18*%
X157410000Y-86000000D03*
X156390000Y-86000000D03*
%TD*%
D19*
%TO.C,C4*%
X145600000Y-93820000D03*
X145600000Y-94780000D03*
%TD*%
D26*
%TO.C,C27*%
X159800000Y-107850000D03*
X161350000Y-107850000D03*
%TD*%
D19*
%TO.C,C21*%
X142500000Y-102320000D03*
X142500000Y-103280000D03*
%TD*%
M02*
