%TF.GenerationSoftware,KiCad,Pcbnew,9.0.4*%
%TF.CreationDate,2025-09-08T22:46:10+10:00*%
%TF.ProjectId,simple-p4,73696d70-6c65-42d7-9034-2e6b69636164,rev?*%
%TF.SameCoordinates,Original*%
%TF.FileFunction,Copper,L2,Bot*%
%TF.FilePolarity,Positive*%
%FSLAX46Y46*%
G04 Gerber Fmt 4.6, Leading zero omitted, Abs format (unit mm)*
G04 Created by KiCad (PCBNEW 9.0.4) date 2025-09-08 22:46:10*
%MOMM*%
%LPD*%
G01*
G04 APERTURE LIST*
%TA.AperFunction,HeatsinkPad*%
%ADD10O,1.000000X2.100000*%
%TD*%
%TA.AperFunction,HeatsinkPad*%
%ADD11O,1.000000X1.600000*%
%TD*%
%TA.AperFunction,ComponentPad*%
%ADD12R,1.700000X1.700000*%
%TD*%
%TA.AperFunction,ComponentPad*%
%ADD13C,1.700000*%
%TD*%
G04 APERTURE END LIST*
D10*
%TO.P,J6,S1,SHIELD*%
%TO.N,GND*%
X98740000Y-66970000D03*
D11*
X98740000Y-71150000D03*
D10*
X107380000Y-66970000D03*
D11*
X107380000Y-71150000D03*
%TD*%
D10*
%TO.P,J5,S1,SHIELD*%
%TO.N,GND*%
X98740000Y-56500000D03*
D11*
X98740000Y-60680000D03*
D10*
X107380000Y-56500000D03*
D11*
X107380000Y-60680000D03*
%TD*%
D12*
%TO.P,J4,1,Pin_1*%
%TO.N,+3V3*%
X112530000Y-105920000D03*
D13*
%TO.P,J4,2,Pin_2*%
%TO.N,GPIO37{slash}U0TXD*%
X112530000Y-108460000D03*
%TO.P,J4,3,Pin_3*%
%TO.N,GPIO38{slash}U0RXD*%
X112530000Y-111000000D03*
%TO.P,J4,4,Pin_4*%
%TO.N,CHIP_PU*%
X112530000Y-113540000D03*
%TO.P,J4,5,Pin_5*%
%TO.N,GPIO35{slash}BOOT*%
X112530000Y-116080000D03*
%TO.P,J4,6,Pin_6*%
%TO.N,GND*%
X112530000Y-118620000D03*
%TD*%
D12*
%TO.P,J3,1,Pin_1*%
%TO.N,GPIO54*%
X94920000Y-56140000D03*
D13*
%TO.P,J3,2,Pin_2*%
%TO.N,GPIO53*%
X94920000Y-58680000D03*
%TO.P,J3,3,Pin_3*%
%TO.N,GND*%
X94920000Y-61220000D03*
%TO.P,J3,4,Pin_4*%
%TO.N,GPIO52*%
X94920000Y-63760000D03*
%TO.P,J3,5,Pin_5*%
%TO.N,GPIO51*%
X94920000Y-66300000D03*
%TO.P,J3,6,Pin_6*%
%TO.N,GPIO50*%
X94920000Y-68840000D03*
%TO.P,J3,7,Pin_7*%
%TO.N,GPIO49*%
X94920000Y-71380000D03*
%TO.P,J3,8,Pin_8*%
%TO.N,GND*%
X94920000Y-73920000D03*
%TO.P,J3,9,Pin_9*%
%TO.N,GPIO48*%
X94920000Y-76460000D03*
%TO.P,J3,10,Pin_10*%
%TO.N,GPIO47*%
X94920000Y-79000000D03*
%TO.P,J3,11,Pin_11*%
%TO.N,GPIO46*%
X94920000Y-81540000D03*
%TO.P,J3,12,Pin_12*%
%TO.N,GPIO45*%
X94920000Y-84080000D03*
%TO.P,J3,13,Pin_13*%
%TO.N,GPIO44*%
X94920000Y-86620000D03*
%TO.P,J3,14,Pin_14*%
%TO.N,GND*%
X94920000Y-89160000D03*
%TO.P,J3,15,Pin_15*%
%TO.N,GPIO43*%
X94920000Y-91700000D03*
%TO.P,J3,16,Pin_16*%
%TO.N,GPIO52*%
X94920000Y-94240000D03*
%TO.P,J3,17,Pin_17*%
%TO.N,GPIO41*%
X94920000Y-96780000D03*
%TO.P,J3,18,Pin_18*%
%TO.N,GPIO40*%
X94920000Y-99320000D03*
%TO.P,J3,19,Pin_19*%
%TO.N,GPIO39*%
X94920000Y-101860000D03*
%TO.P,J3,20,Pin_20*%
%TO.N,+3V3*%
X94920000Y-104400000D03*
%TD*%
D12*
%TO.P,J2,1,Pin_1*%
%TO.N,GPIO25*%
X90330000Y-56140000D03*
D13*
%TO.P,J2,2,Pin_2*%
%TO.N,GND*%
X90330000Y-58680000D03*
%TO.P,J2,3,Pin_3*%
%TO.N,GPIO26*%
X90330000Y-61220000D03*
%TO.P,J2,4,Pin_4*%
%TO.N,GPIO27*%
X90330000Y-63760000D03*
%TO.P,J2,5,Pin_5*%
%TO.N,GPIO28*%
X90330000Y-66300000D03*
%TO.P,J2,6,Pin_6*%
%TO.N,GPIO29*%
X90330000Y-68840000D03*
%TO.P,J2,7,Pin_7*%
%TO.N,GND*%
X90330000Y-71380000D03*
%TO.P,J2,8,Pin_8*%
%TO.N,GPIO30*%
X90330000Y-73920000D03*
%TO.P,J2,9,Pin_9*%
%TO.N,GPIO31*%
X90330000Y-76460000D03*
%TO.P,J2,10,Pin_10*%
%TO.N,GND*%
X90330000Y-79000000D03*
%TO.P,J2,11,Pin_11*%
%TO.N,GPIO32*%
X90330000Y-81540000D03*
%TO.P,J2,12,Pin_12*%
%TO.N,GPIO33*%
X90330000Y-84080000D03*
%TO.P,J2,13,Pin_13*%
%TO.N,GPIO34*%
X90330000Y-86620000D03*
%TO.P,J2,14,Pin_14*%
%TO.N,GPIO35{slash}BOOT*%
X90330000Y-89160000D03*
%TO.P,J2,15,Pin_15*%
%TO.N,GND*%
X90330000Y-91700000D03*
%TO.P,J2,16,Pin_16*%
%TO.N,GPIO36*%
X90330000Y-94240000D03*
%TO.P,J2,17,Pin_17*%
%TO.N,GPIO37{slash}U0TXD*%
X90330000Y-96780000D03*
%TO.P,J2,18,Pin_18*%
%TO.N,GPIO38{slash}U0RXD*%
X90330000Y-99320000D03*
%TO.P,J2,19,Pin_19*%
%TO.N,+3V3*%
X90330000Y-101860000D03*
%TO.P,J2,20,Pin_20*%
X90330000Y-104400000D03*
%TD*%
D12*
%TO.P,J1,1,Pin_1*%
%TO.N,GND*%
X85740000Y-56130000D03*
D13*
%TO.P,J1,2,Pin_2*%
%TO.N,GPIO2*%
X85740000Y-58670000D03*
%TO.P,J1,3,Pin_3*%
%TO.N,GPIO3*%
X85740000Y-61210000D03*
%TO.P,J1,4,Pin_4*%
%TO.N,GPIO4*%
X85740000Y-63750000D03*
%TO.P,J1,5,Pin_5*%
%TO.N,GPIO5*%
X85740000Y-66290000D03*
%TO.P,J1,6,Pin_6*%
%TO.N,GPIO6*%
X85740000Y-68830000D03*
%TO.P,J1,7,Pin_7*%
%TO.N,GPIO7*%
X85740000Y-71370000D03*
%TO.P,J1,8,Pin_8*%
%TO.N,GPIO8*%
X85740000Y-73910000D03*
%TO.P,J1,9,Pin_9*%
%TO.N,GND*%
X85740000Y-76450000D03*
%TO.P,J1,10,Pin_10*%
%TO.N,GPIO9*%
X85740000Y-78990000D03*
%TO.P,J1,11,Pin_11*%
%TO.N,GPIO10*%
X85740000Y-81530000D03*
%TO.P,J1,12,Pin_12*%
%TO.N,GPIO11*%
X85740000Y-84070000D03*
%TO.P,J1,13,Pin_13*%
%TO.N,GPIO12*%
X85740000Y-86610000D03*
%TO.P,J1,14,Pin_14*%
%TO.N,GPIO13*%
X85740000Y-89150000D03*
%TO.P,J1,15,Pin_15*%
%TO.N,GPIO14*%
X85740000Y-91690000D03*
%TO.P,J1,16,Pin_16*%
%TO.N,GPIO15*%
X85740000Y-94230000D03*
%TO.P,J1,17,Pin_17*%
%TO.N,GPIO16*%
X85740000Y-96770000D03*
%TO.P,J1,18,Pin_18*%
%TO.N,GPIO17*%
X85740000Y-99310000D03*
%TO.P,J1,19,Pin_19*%
%TO.N,GPIO18*%
X85740000Y-101850000D03*
%TO.P,J1,20,Pin_20*%
%TO.N,GPIO19*%
X85740000Y-104390000D03*
%TO.P,J1,21,Pin_21*%
%TO.N,GND*%
X85740000Y-106930000D03*
%TO.P,J1,22,Pin_22*%
%TO.N,GPIO20*%
X85740000Y-109470000D03*
%TO.P,J1,23,Pin_23*%
%TO.N,GPIO21*%
X85740000Y-112010000D03*
%TO.P,J1,24,Pin_24*%
%TO.N,GPIO22*%
X85740000Y-114550000D03*
%TO.P,J1,25,Pin_25*%
%TO.N,GPIO23*%
X85740000Y-117090000D03*
%TO.P,J1,26,Pin_26*%
%TO.N,+3V3*%
X85740000Y-119630000D03*
%TD*%
M02*
