%TF.GenerationSoftware,KiCad,Pcbnew,9.0.4*%
%TF.CreationDate,2025-09-08T22:46:10+10:00*%
%TF.ProjectId,simple-p4,73696d70-6c65-42d7-9034-2e6b69636164,rev?*%
%TF.SameCoordinates,Original*%
%TF.FileFunction,Soldermask,Top*%
%TF.FilePolarity,Negative*%
%FSLAX46Y46*%
G04 Gerber Fmt 4.6, Leading zero omitted, Abs format (unit mm)*
G04 Created by KiCad (PCBNEW 9.0.4) date 2025-09-08 22:46:10*
%MOMM*%
%LPD*%
G01*
G04 APERTURE LIST*
G04 Aperture macros list*
%AMRoundRect*
0 Rectangle with rounded corners*
0 $1 Rounding radius*
0 $2 $3 $4 $5 $6 $7 $8 $9 X,Y pos of 4 corners*
0 Add a 4 corners polygon primitive as box body*
4,1,4,$2,$3,$4,$5,$6,$7,$8,$9,$2,$3,0*
0 Add four circle primitives for the rounded corners*
1,1,$1+$1,$2,$3*
1,1,$1+$1,$4,$5*
1,1,$1+$1,$6,$7*
1,1,$1+$1,$8,$9*
0 Add four rect primitives between the rounded corners*
20,1,$1+$1,$2,$3,$4,$5,0*
20,1,$1+$1,$4,$5,$6,$7,0*
20,1,$1+$1,$6,$7,$8,$9,0*
20,1,$1+$1,$8,$9,$2,$3,0*%
G04 Aperture macros list end*
%ADD10R,1.000000X1.800000*%
%ADD11RoundRect,0.200000X-0.250000X-0.200000X0.250000X-0.200000X0.250000X0.200000X-0.250000X0.200000X0*%
%ADD12RoundRect,0.375000X-0.625000X-0.375000X0.625000X-0.375000X0.625000X0.375000X-0.625000X0.375000X0*%
%ADD13RoundRect,0.500000X-0.500000X-1.400000X0.500000X-1.400000X0.500000X1.400000X-0.500000X1.400000X0*%
%ADD14RoundRect,0.150000X-0.512500X-0.150000X0.512500X-0.150000X0.512500X0.150000X-0.512500X0.150000X0*%
%ADD15RoundRect,0.162500X-0.650000X-0.162500X0.650000X-0.162500X0.650000X0.162500X-0.650000X0.162500X0*%
%ADD16O,0.650020X0.200020*%
%ADD17O,0.200020X0.650020*%
%ADD18RoundRect,0.000010X-1.050000X-1.050000X1.050000X-1.050000X1.050000X1.050000X-1.050000X1.050000X0*%
%ADD19C,1.500000*%
%ADD20R,1.000000X0.750000*%
%ADD21RoundRect,0.135000X-0.135000X-0.185000X0.135000X-0.185000X0.135000X0.185000X-0.135000X0.185000X0*%
%ADD22RoundRect,0.250000X-0.300000X-1.000000X0.300000X-1.000000X0.300000X1.000000X-0.300000X1.000000X0*%
%ADD23R,1.000000X1.500000*%
%ADD24R,0.600000X1.450000*%
%ADD25R,0.300000X1.450000*%
%ADD26O,1.000000X2.100000*%
%ADD27O,1.000000X1.600000*%
%ADD28R,1.700000X1.700000*%
%ADD29C,1.700000*%
%ADD30RoundRect,0.225000X-0.225000X-0.250000X0.225000X-0.250000X0.225000X0.250000X-0.225000X0.250000X0*%
%ADD31RoundRect,0.140000X-0.140000X-0.170000X0.140000X-0.170000X0.140000X0.170000X-0.140000X0.170000X0*%
G04 APERTURE END LIST*
%TO.C,JP2*%
G36*
X116750000Y-58410000D02*
G01*
X117050000Y-58410000D01*
X117050000Y-59910000D01*
X116750000Y-59910000D01*
X116750000Y-58410000D01*
G37*
%TO.C,JP1*%
G36*
X116750000Y-54860000D02*
G01*
X117050000Y-54860000D01*
X117050000Y-56360000D01*
X116750000Y-56360000D01*
X116750000Y-54860000D01*
G37*
%TD*%
D10*
%TO.C,Y2*%
X100990000Y-117550000D03*
X98490000Y-117550000D03*
%TD*%
D11*
%TO.C,Y1*%
X103590000Y-118250000D03*
X104990000Y-118250000D03*
X104990000Y-117150000D03*
X103590000Y-117150000D03*
%TD*%
D12*
%TO.C,U4*%
X111020000Y-76675000D03*
X111020000Y-78975000D03*
D13*
X117320000Y-78975000D03*
D12*
X111020000Y-81275000D03*
%TD*%
D14*
%TO.C,U3*%
X110682500Y-84545000D03*
X110682500Y-85495000D03*
X110682500Y-86445000D03*
X112957500Y-86445000D03*
X112957500Y-84545000D03*
%TD*%
D15*
%TO.C,U2*%
X110492500Y-67295000D03*
X110492500Y-68565000D03*
X110492500Y-69835000D03*
X110492500Y-71105000D03*
X117667500Y-71105000D03*
X117667500Y-69835000D03*
X117667500Y-68565000D03*
X117667500Y-67295000D03*
%TD*%
D16*
%TO.C,U1*%
X123650000Y-111800000D03*
X123650000Y-112150000D03*
X123650000Y-112500000D03*
X123650000Y-112850000D03*
X123650000Y-113200000D03*
X123650000Y-113550000D03*
X123650000Y-113900000D03*
X123650000Y-114250000D03*
X123650000Y-114600000D03*
X123650000Y-114950000D03*
X123650000Y-115300000D03*
X123650000Y-115650000D03*
X123650000Y-116000000D03*
X123650000Y-116350000D03*
X123650000Y-116700000D03*
X123650000Y-117050000D03*
X123650000Y-117400000D03*
X123650000Y-117750000D03*
X123650000Y-118100000D03*
X123650000Y-118450000D03*
X123650000Y-118800000D03*
X123650000Y-119150000D03*
X123650000Y-119500000D03*
X123650000Y-119850000D03*
X123650000Y-120200000D03*
X123650000Y-120550000D03*
D17*
X124150000Y-121050000D03*
X124500000Y-121050000D03*
X124850000Y-121050000D03*
X125200000Y-121050000D03*
X125550000Y-121050000D03*
X125900000Y-121050000D03*
X126250000Y-121050000D03*
X126600000Y-121050000D03*
X126950000Y-121050000D03*
X127300000Y-121050000D03*
X127650000Y-121050000D03*
X128000000Y-121050000D03*
X128350000Y-121050000D03*
X128700000Y-121050000D03*
X129050000Y-121050000D03*
X129400000Y-121050000D03*
X129750000Y-121050000D03*
X130100000Y-121050000D03*
X130450000Y-121050000D03*
X130800000Y-121050000D03*
X131150000Y-121050000D03*
X131500000Y-121050000D03*
X131850000Y-121050000D03*
X132200000Y-121050000D03*
X132550000Y-121050000D03*
X132900000Y-121050000D03*
D16*
X133400000Y-120550000D03*
X133400000Y-120200000D03*
X133400000Y-119850000D03*
X133400000Y-119500000D03*
X133400000Y-119150000D03*
X133400000Y-118800000D03*
X133400000Y-118450000D03*
X133400000Y-118100000D03*
X133400000Y-117750000D03*
X133400000Y-117400000D03*
X133400000Y-117050000D03*
X133400000Y-116700000D03*
X133400000Y-116350000D03*
X133400000Y-116000000D03*
X133400000Y-115650000D03*
X133400000Y-115300000D03*
X133400000Y-114950000D03*
X133400000Y-114600000D03*
X133400000Y-114250000D03*
X133400000Y-113900000D03*
X133400000Y-113550000D03*
X133400000Y-113200000D03*
X133400000Y-112850000D03*
X133400000Y-112500000D03*
X133400000Y-112150000D03*
X133400000Y-111800000D03*
D17*
X132900000Y-111300000D03*
X132550000Y-111300000D03*
X132200000Y-111300000D03*
X131850000Y-111300000D03*
X131500000Y-111300000D03*
X131150000Y-111300000D03*
X130800000Y-111300000D03*
X130450000Y-111300000D03*
X130100000Y-111300000D03*
X129750000Y-111300000D03*
X129400000Y-111300000D03*
X129050000Y-111300000D03*
X128700000Y-111300000D03*
X128350000Y-111300000D03*
X128000000Y-111300000D03*
X127650000Y-111300000D03*
X127300000Y-111300000D03*
X126950000Y-111300000D03*
X126600000Y-111300000D03*
X126250000Y-111300000D03*
X125900000Y-111300000D03*
X125550000Y-111300000D03*
X125200000Y-111300000D03*
X124850000Y-111300000D03*
X124500000Y-111300000D03*
X124150000Y-111300000D03*
D18*
X125825000Y-113475000D03*
X125825000Y-116175000D03*
X125825000Y-118875000D03*
X128525000Y-113475000D03*
X128525000Y-116175000D03*
X128525000Y-118875000D03*
X131225000Y-113475000D03*
X131225000Y-116175000D03*
X131225000Y-118875000D03*
%TD*%
D19*
%TO.C,TP5*%
X116600000Y-119600000D03*
%TD*%
%TO.C,TP4*%
X116600000Y-116050000D03*
%TD*%
%TO.C,TP3*%
X116600000Y-112500000D03*
%TD*%
%TO.C,TP2*%
X116600000Y-108950000D03*
%TD*%
%TO.C,TP1*%
X116600000Y-105400000D03*
%TD*%
D20*
%TO.C,SW2*%
X109970000Y-97935000D03*
X115970000Y-97935000D03*
X109970000Y-101685000D03*
X115970000Y-101685000D03*
%TD*%
%TO.C,SW1*%
X109970000Y-91285000D03*
X115970000Y-91285000D03*
X109970000Y-95035000D03*
X115970000Y-95035000D03*
%TD*%
D21*
%TO.C,R11*%
X112760000Y-62790000D03*
X113780000Y-62790000D03*
%TD*%
%TO.C,R10*%
X112760000Y-60800000D03*
X113780000Y-60800000D03*
%TD*%
%TO.C,R9*%
X112760000Y-58810000D03*
X113780000Y-58810000D03*
%TD*%
%TO.C,R8*%
X112760000Y-56820000D03*
X113780000Y-56820000D03*
%TD*%
%TO.C,R7*%
X112760000Y-54830000D03*
X113780000Y-54830000D03*
%TD*%
%TO.C,R6*%
X109850000Y-64780000D03*
X110870000Y-64780000D03*
%TD*%
%TO.C,R5*%
X109850000Y-62790000D03*
X110870000Y-62790000D03*
%TD*%
%TO.C,R4*%
X109850000Y-60800000D03*
X110870000Y-60800000D03*
%TD*%
%TO.C,R3*%
X109850000Y-58810000D03*
X110870000Y-58810000D03*
%TD*%
%TO.C,R2*%
X109850000Y-56820000D03*
X110870000Y-56820000D03*
%TD*%
%TO.C,R1*%
X109850000Y-54830000D03*
X110870000Y-54830000D03*
%TD*%
D22*
%TO.C,L1*%
X115720000Y-85165000D03*
X117820000Y-85165000D03*
%TD*%
D23*
%TO.C,JP2*%
X116250000Y-59160000D03*
X117550000Y-59160000D03*
%TD*%
%TO.C,JP1*%
X116250000Y-55610000D03*
X117550000Y-55610000D03*
%TD*%
D24*
%TO.C,J6*%
X99810000Y-66055000D03*
X100610000Y-66055000D03*
D25*
X101810000Y-66055000D03*
X102810000Y-66055000D03*
X103310000Y-66055000D03*
X104310000Y-66055000D03*
D24*
X105510000Y-66055000D03*
X106310000Y-66055000D03*
X106310000Y-66055000D03*
X105510000Y-66055000D03*
D25*
X104810000Y-66055000D03*
X103810000Y-66055000D03*
X102310000Y-66055000D03*
X101310000Y-66055000D03*
D24*
X100610000Y-66055000D03*
X99810000Y-66055000D03*
D26*
X98740000Y-66970000D03*
D27*
X98740000Y-71150000D03*
D26*
X107380000Y-66970000D03*
D27*
X107380000Y-71150000D03*
%TD*%
D24*
%TO.C,J5*%
X99810000Y-55585000D03*
X100610000Y-55585000D03*
D25*
X101810000Y-55585000D03*
X102810000Y-55585000D03*
X103310000Y-55585000D03*
X104310000Y-55585000D03*
D24*
X105510000Y-55585000D03*
X106310000Y-55585000D03*
X106310000Y-55585000D03*
X105510000Y-55585000D03*
D25*
X104810000Y-55585000D03*
X103810000Y-55585000D03*
X102310000Y-55585000D03*
X101310000Y-55585000D03*
D24*
X100610000Y-55585000D03*
X99810000Y-55585000D03*
D26*
X98740000Y-56500000D03*
D27*
X98740000Y-60680000D03*
D26*
X107380000Y-56500000D03*
D27*
X107380000Y-60680000D03*
%TD*%
D28*
%TO.C,J4*%
X112530000Y-105920000D03*
D29*
X112530000Y-108460000D03*
X112530000Y-111000000D03*
X112530000Y-113540000D03*
X112530000Y-116080000D03*
X112530000Y-118620000D03*
%TD*%
D28*
%TO.C,J3*%
X94920000Y-56140000D03*
D29*
X94920000Y-58680000D03*
X94920000Y-61220000D03*
X94920000Y-63760000D03*
X94920000Y-66300000D03*
X94920000Y-68840000D03*
X94920000Y-71380000D03*
X94920000Y-73920000D03*
X94920000Y-76460000D03*
X94920000Y-79000000D03*
X94920000Y-81540000D03*
X94920000Y-84080000D03*
X94920000Y-86620000D03*
X94920000Y-89160000D03*
X94920000Y-91700000D03*
X94920000Y-94240000D03*
X94920000Y-96780000D03*
X94920000Y-99320000D03*
X94920000Y-101860000D03*
X94920000Y-104400000D03*
%TD*%
D28*
%TO.C,J2*%
X90330000Y-56140000D03*
D29*
X90330000Y-58680000D03*
X90330000Y-61220000D03*
X90330000Y-63760000D03*
X90330000Y-66300000D03*
X90330000Y-68840000D03*
X90330000Y-71380000D03*
X90330000Y-73920000D03*
X90330000Y-76460000D03*
X90330000Y-79000000D03*
X90330000Y-81540000D03*
X90330000Y-84080000D03*
X90330000Y-86620000D03*
X90330000Y-89160000D03*
X90330000Y-91700000D03*
X90330000Y-94240000D03*
X90330000Y-96780000D03*
X90330000Y-99320000D03*
X90330000Y-101860000D03*
X90330000Y-104400000D03*
%TD*%
D28*
%TO.C,J1*%
X85740000Y-56130000D03*
D29*
X85740000Y-58670000D03*
X85740000Y-61210000D03*
X85740000Y-63750000D03*
X85740000Y-66290000D03*
X85740000Y-68830000D03*
X85740000Y-71370000D03*
X85740000Y-73910000D03*
X85740000Y-76450000D03*
X85740000Y-78990000D03*
X85740000Y-81530000D03*
X85740000Y-84070000D03*
X85740000Y-86610000D03*
X85740000Y-89150000D03*
X85740000Y-91690000D03*
X85740000Y-94230000D03*
X85740000Y-96770000D03*
X85740000Y-99310000D03*
X85740000Y-101850000D03*
X85740000Y-104390000D03*
X85740000Y-106930000D03*
X85740000Y-109470000D03*
X85740000Y-112010000D03*
X85740000Y-114550000D03*
X85740000Y-117090000D03*
X85740000Y-119630000D03*
%TD*%
D30*
%TO.C,C41*%
X106465000Y-81050000D03*
X108015000Y-81050000D03*
%TD*%
D31*
%TO.C,C40*%
X106780000Y-98700000D03*
X107740000Y-98700000D03*
%TD*%
%TO.C,C39*%
X106780000Y-96730000D03*
X107740000Y-96730000D03*
%TD*%
%TO.C,C38*%
X106780000Y-94760000D03*
X107740000Y-94760000D03*
%TD*%
D30*
%TO.C,C37*%
X106465000Y-78540000D03*
X108015000Y-78540000D03*
%TD*%
D31*
%TO.C,C36*%
X106780000Y-92790000D03*
X107740000Y-92790000D03*
%TD*%
%TO.C,C35*%
X106780000Y-90820000D03*
X107740000Y-90820000D03*
%TD*%
D30*
%TO.C,C34*%
X106465000Y-76030000D03*
X108015000Y-76030000D03*
%TD*%
D31*
%TO.C,C33*%
X103910000Y-102640000D03*
X104870000Y-102640000D03*
%TD*%
%TO.C,C32*%
X103910000Y-100670000D03*
X104870000Y-100670000D03*
%TD*%
%TO.C,C31*%
X103910000Y-98700000D03*
X104870000Y-98700000D03*
%TD*%
D30*
%TO.C,C30*%
X102455000Y-88580000D03*
X104005000Y-88580000D03*
%TD*%
D31*
%TO.C,C29*%
X103910000Y-96730000D03*
X104870000Y-96730000D03*
%TD*%
D30*
%TO.C,C28*%
X102455000Y-86070000D03*
X104005000Y-86070000D03*
%TD*%
%TO.C,C27*%
X102455000Y-83560000D03*
X104005000Y-83560000D03*
%TD*%
D31*
%TO.C,C26*%
X103910000Y-94760000D03*
X104870000Y-94760000D03*
%TD*%
%TO.C,C25*%
X103910000Y-92790000D03*
X104870000Y-92790000D03*
%TD*%
%TO.C,C24*%
X103910000Y-90820000D03*
X104870000Y-90820000D03*
%TD*%
%TO.C,C23*%
X101040000Y-102640000D03*
X102000000Y-102640000D03*
%TD*%
D30*
%TO.C,C22*%
X102455000Y-81050000D03*
X104005000Y-81050000D03*
%TD*%
D31*
%TO.C,C21*%
X101040000Y-100670000D03*
X102000000Y-100670000D03*
%TD*%
D30*
%TO.C,C20*%
X102455000Y-78540000D03*
X104005000Y-78540000D03*
%TD*%
%TO.C,C19*%
X102455000Y-76030000D03*
X104005000Y-76030000D03*
%TD*%
%TO.C,C18*%
X98445000Y-88580000D03*
X99995000Y-88580000D03*
%TD*%
%TO.C,C17*%
X98445000Y-86070000D03*
X99995000Y-86070000D03*
%TD*%
D31*
%TO.C,C16*%
X101040000Y-98700000D03*
X102000000Y-98700000D03*
%TD*%
%TO.C,C15*%
X101040000Y-96730000D03*
X102000000Y-96730000D03*
%TD*%
D30*
%TO.C,C14*%
X98445000Y-83560000D03*
X99995000Y-83560000D03*
%TD*%
D31*
%TO.C,C13*%
X101040000Y-94760000D03*
X102000000Y-94760000D03*
%TD*%
%TO.C,C12*%
X101040000Y-92790000D03*
X102000000Y-92790000D03*
%TD*%
D30*
%TO.C,C11*%
X98445000Y-81050000D03*
X99995000Y-81050000D03*
%TD*%
D31*
%TO.C,C10*%
X101040000Y-90820000D03*
X102000000Y-90820000D03*
%TD*%
%TO.C,C9*%
X98170000Y-102640000D03*
X99130000Y-102640000D03*
%TD*%
%TO.C,C8*%
X98170000Y-100670000D03*
X99130000Y-100670000D03*
%TD*%
%TO.C,C7*%
X98170000Y-98700000D03*
X99130000Y-98700000D03*
%TD*%
%TO.C,C6*%
X98170000Y-96730000D03*
X99130000Y-96730000D03*
%TD*%
%TO.C,C5*%
X98170000Y-94760000D03*
X99130000Y-94760000D03*
%TD*%
%TO.C,C4*%
X98170000Y-92790000D03*
X99130000Y-92790000D03*
%TD*%
D30*
%TO.C,C3*%
X98445000Y-78540000D03*
X99995000Y-78540000D03*
%TD*%
D31*
%TO.C,C2*%
X98170000Y-90820000D03*
X99130000Y-90820000D03*
%TD*%
D30*
%TO.C,C1*%
X98445000Y-76030000D03*
X99995000Y-76030000D03*
%TD*%
M02*
